STARTFONT 2.3
FONT -FontForge-Lobster-Book-R-Normal--16-160-72-72-P-93-ISO10646-1
SIZE 16 72 72  4
FONTBOUNDINGBOX 33 24 -8 -8
COMMENT "Generated by fontforge, http://fontforge.sourceforge.net"
COMMENT "Copyright 2010 The Lobster Project Authors (https://github.com/impallari/The-Lobster-Font), with Reserved Font Name "Lobster"."
STARTPROPERTIES 41
FOUNDRY "FontForge"
FAMILY_NAME "Lobster"
WEIGHT_NAME "Book"
SLANT "R"
SETWIDTH_NAME "Normal"
ADD_STYLE_NAME ""
PIXEL_SIZE 16
POINT_SIZE 160
RESOLUTION_X 72
RESOLUTION_Y 72
SPACING "P"
AVERAGE_WIDTH 93
CHARSET_REGISTRY "ISO10646"
CHARSET_ENCODING "1"
FONTNAME_REGISTRY ""
CHARSET_COLLECTIONS "ISO8859-2 ISO8859-5 ISO8859-9 ISO8859-4 ISO10646-1"
BITS_PER_PIXEL 4
FONT_NAME "Lobster-Regular"
FACE_NAME "Lobster Regular"
COPYRIGHT "Copyright 2010 The Lobster Project Authors (https://github.com/impallari/The-Lobster-Font), with Reserved Font Name "Lobster"."
FONT_VERSION "2.100"
FONT_ASCENT 13
FONT_DESCENT 3
UNDERLINE_POSITION -2
UNDERLINE_THICKNESS 1
X_HEIGHT 8
CAP_HEIGHT 11
DEFAULT_CHAR 1
RAW_ASCENT 800
RAW_DESCENT 200
NORM_SPACE 3
RELATIVE_WEIGHT 40
RELATIVE_SETWIDTH 50
SUPERSCRIPT_X 0
SUPERSCRIPT_Y 5
SUPERSCRIPT_SIZE 9
SUBSCRIPT_X 0
SUBSCRIPT_Y 1
SUBSCRIPT_SIZE 9
AVG_LOWERCASE_WIDTH 74
AVG_UPPERCASE_WIDTH 99
ENDPROPERTIES
CHARS 1148
STARTCHAR NULL.dup1
ENCODING 0
SWIDTH 600 0
DWIDTH 10 0
BBX 1 1 0 0
BITMAP
00
ENDCHAR
STARTCHAR nonmarkingreturn
ENCODING 13
SWIDTH 600 0
DWIDTH 10 0
BBX 1 1 0 0
BITMAP
00
ENDCHAR
STARTCHAR space
ENCODING 32
SWIDTH 217 0
DWIDTH 3 0
BBX 1 1 0 0
BITMAP
00
ENDCHAR
STARTCHAR exclam
ENCODING 33
SWIDTH 257 0
DWIDTH 4 0
BBX 6 12 0 0
BITMAP
001791
005FE0
008F90
00AF50
00CF10
00FC00
02F700
04F300
037000
2B8000
7FF000
2EA000
ENDCHAR
STARTCHAR quotedbl
ENCODING 34
SWIDTH 353 0
DWIDTH 6 0
BBX 6 4 1 8
BITMAP
0AE3F7
0E87E1
4F1B90
991F20
ENDCHAR
STARTCHAR numbersign
ENCODING 35
SWIDTH 659 0
DWIDTH 11 0
BBX 9 11 1 1
BITMAP
0001000000
000F30B600
003F00E300
006C02F100
3EFFEFFE50
00C5099000
01F20C6000
DFFEEFEA00
07B04E0000
0A707B0000
0C40970000
ENDCHAR
STARTCHAR dollar
ENCODING 36
SWIDTH 548 0
DWIDTH 9 0
BBX 9 16 0 -2
BITMAP
000000C000
0000039000
0006CDD900
007F6A3F70
00CF6C5E40
00AFE90000
002EFC0000
0005FFA000
0000DFF400
3DD4BDFA00
AF6678FB00
BE0848F700
6F6C6EC100
06DFD81000
0049000000
0075000000
ENDCHAR
STARTCHAR percent
ENCODING 37
SWIDTH 796 0
DWIDTH 13 0
BBX 13 12 0 0
BITMAP
006DE4000D3000
05F4AC007A0000
0DA09D01E20000
2F70BC09800000
3F50E82E100000
1F67E1A719EC10
08EB34D0AD1E70
00000C53F50E80
00005C06F21F70
0000D308F04F30
0007A006F1BA00
001E2001CEA100
ENDCHAR
STARTCHAR ampersand
ENCODING 38
SWIDTH 682 0
DWIDTH 11 0
BBX 11 12 0 0
BITMAP
0003BED50000
002ED16F1000
009F606F3000
00AF408A0000
008F90000000
003EF6000550
06FF419CEF70
4FF808FFEA10
AFF207575000
BFF1001B1000
7FF702B40000
08DFD9200000
ENDCHAR
STARTCHAR quotesingle
ENCODING 39
SWIDTH 196 0
DWIDTH 3 0
BBX 3 4 1 8
BITMAP
0AD0
1F60
6D00
5400
ENDCHAR
STARTCHAR parenleft
ENCODING 40
SWIDTH 437 0
DWIDTH 7 0
BBX 7 17 2 -4
BITMAP
00000010
00002B40
0003D400
002E6000
00CC0000
06F50000
0DE00000
2FA00000
6F700000
8F500000
9F400000
7F400000
5F400000
1F700000
0AA00000
02E10000
00530000
ENDCHAR
STARTCHAR parenright
ENCODING 41
SWIDTH 413 0
DWIDTH 7 0
BBX 6 17 -1 -4
BITMAP
000100
000C20
0007C0
0002F4
0000E9
0000DD
0000CE
0000DF
0000ED
0002FB
0006F7
000BF2
002F90
00AD10
05E300
5D3000
810000
ENDCHAR
STARTCHAR asterisk
ENCODING 42
SWIDTH 515 0
DWIDTH 8 0
BBX 6 6 1 6
BITMAP
016C00
7C9BBB
29EFA4
6DEEF6
378B68
009900
ENDCHAR
STARTCHAR plus
ENCODING 43
SWIDTH 442 0
DWIDTH 7 0
BBX 7 6 0 2
BITMAP
000D7000
002F3000
9FFFFF50
23AC3310
00C80000
00730000
ENDCHAR
STARTCHAR comma
ENCODING 44
SWIDTH 216 0
DWIDTH 3 0
BBX 3 5 0 -3
BITMAP
4E70
8FA0
1D50
2900
2000
ENDCHAR
STARTCHAR hyphen
ENCODING 45
SWIDTH 290 0
DWIDTH 5 0
BBX 4 1 0 4
BITMAP
8EE9
ENDCHAR
STARTCHAR period
ENCODING 46
SWIDTH 263 0
DWIDTH 4 0
BBX 3 3 0 0
BITMAP
2B70
7FF0
3EA0
ENDCHAR
STARTCHAR slash
ENCODING 47
SWIDTH 311 0
DWIDTH 5 0
BBX 5 16 0 -4
BITMAP
000890
000B60
000E30
003E00
006B00
009800
00C500
01F200
04E000
07B000
0A7000
0D4000
1F1000
5D0000
8A0000
B70000
ENDCHAR
STARTCHAR zero
ENCODING 48
SWIDTH 546 0
DWIDTH 9 0
BBX 9 12 0 0
BITMAP
0004CEE700
006FC1AF50
03FF206FA0
0AFA005FC0
1FF5006FC0
5FF1007FB0
8FE000AF80
9FC000DF40
9FB003FD00
7FC009F600
2FF24FA000
05DFD70000
ENDCHAR
STARTCHAR one
ENCODING 49
SWIDTH 317 0
DWIDTH 5 0
BBX 6 12 0 0
BITMAP
0126C1
0EFFC0
00AF90
00DF60
01FF30
04FF00
08FC00
0BF900
0EF600
2FF200
5FE000
8FB000
ENDCHAR
STARTCHAR two
ENCODING 50
SWIDTH 492 0
DWIDTH 8 0
BBX 9 12 -1 0
BITMAP
0007DEC500
008D13FF30
00DB00DF70
00BF30EF70
001404FE10
00001DF400
0001CD3000
001CB10000
01C9000000
09E6632810
1FFFFFFF10
2A67BED600
ENDCHAR
STARTCHAR three
ENCODING 51
SWIDTH 514 0
DWIDTH 8 0
BBX 8 12 0 0
BITMAP
003BEEA2
01EA05FB
04F802FE
01B907FA
00005FC1
0004EF50
00005FF5
4DD10DFB
CF400BFB
DE000DF6
AF308FA0
19EEC600
ENDCHAR
STARTCHAR four
ENCODING 52
SWIDTH 476 0
DWIDTH 8 0
BBX 8 12 0 0
BITMAP
0008E400
0009F900
000BF600
002FD1C0
009F45D0
03F60AA0
1C701E73
9EEEDFF8
977AFFA1
0001FC00
0007F800
000CF500
ENDCHAR
STARTCHAR five
ENCODING 53
SWIDTH 517 0
DWIDTH 8 0
BBX 8 12 0 0
BITMAP
00120025
009FFFFE
00DBADD6
01F40000
04F10000
07FCED70
06304FF5
03500BF9
5FC20AFA
BF200DF6
9F519FB0
1AEEC700
ENDCHAR
STARTCHAR six
ENCODING 54
SWIDTH 500 0
DWIDTH 8 0
BBX 9 12 0 0
BITMAP
0004BED600
006FB17F10
04FE108F10
0CF8004400
3FF2000000
7FE7DEA100
AFE40AF700
BFB005FA00
BF9006F900
9FA00AF400
4FE24F9000
05CED60000
ENDCHAR
STARTCHAR seven
ENCODING 55
SWIDTH 464 0
DWIDTH 7 0
BBX 8 12 1 0
BITMAP
6EE82152
FFFFFFD0
71147F40
0001D900
000BE100
009F5000
05FC0000
1DF50000
7FE00000
BFA00000
BFA00000
4EB00000
ENDCHAR
STARTCHAR eight
ENCODING 56
SWIDTH 499 0
DWIDTH 8 0
BBX 8 12 0 0
BITMAP
002AEEB2
01DF41DC
05FD00BF
05FF22FA
01DFCCA1
004FFE20
06E9EFD1
7F905FF8
EF300CFB
EF200BF8
9F804FD1
07DFD810
ENDCHAR
STARTCHAR nine
ENCODING 57
SWIDTH 489 0
DWIDTH 8 0
BBX 8 12 0 0
BITMAP
004BEE80
06F70BF5
2FC007FA
7F9007FC
8F700AFD
4FB14EFB
08EE8BF9
00000EF5
14004FE1
AD00BF70
BC29FA00
3CFD7000
ENDCHAR
STARTCHAR colon
ENCODING 58
SWIDTH 267 0
DWIDTH 4 0
BBX 4 7 0 1
BITMAP
02B7
08FE
03E9
0000
1B90
5FF2
1DC0
ENDCHAR
STARTCHAR semicolon
ENCODING 59
SWIDTH 276 0
DWIDTH 4 0
BBX 4 9 0 -2
BITMAP
02B7
07FF
03EA
0000
0550
3FF1
1DE0
0760
1800
ENDCHAR
STARTCHAR less
ENCODING 60
SWIDTH 358 0
DWIDTH 6 0
BBX 6 6 0 1
BITMAP
000298
029FA2
8FA300
6EC400
018FA0
000260
ENDCHAR
STARTCHAR equal
ENCODING 61
SWIDTH 515 0
DWIDTH 8 0
BBX 8 5 0 2
BITMAP
08FFFFF6
09DDDDD3
00000000
2DDDDD90
6FFFFF80
ENDCHAR
STARTCHAR greater
ENCODING 62
SWIDTH 362 0
DWIDTH 6 0
BBX 6 7 0 1
BITMAP
010000
0D7000
06DD50
000AF7
04CE71
9E7100
610000
ENDCHAR
STARTCHAR question
ENCODING 63
SWIDTH 441 0
DWIDTH 7 0
BBX 7 12 0 0
BITMAP
02AEEB20
0DA08FB0
2F805FD0
0BB0AF60
0006F700
004E4000
00D50000
03C00000
00100000
0AA00000
3FF40000
1CC10000
ENDCHAR
STARTCHAR at
ENCODING 64
SWIDTH 688 0
DWIDTH 11 0
BBX 12 11 -1 -1
BITMAP
000039DED810
0007F9302BC0
007F59EB93F4
03F78F3D81F6
09E1E91F42F4
0E84F45F17E0
1F65F4AE3E60
2F51DC5DD600
0E8000013000
08E5115D6000
006CEDB60000
ENDCHAR
STARTCHAR A
ENCODING 65
SWIDTH 668 0
DWIDTH 11 0
BBX 11 14 0 -2
BITMAP
00000001AED0
0000002DDFC0
000001D6AF90
00000BA0DF60
00006F21FF30
19DEFE87FE00
BE39F22BFB00
7A2FA00BF800
009F500EF500
01EE003FF100
05FA006FD000
08F700AFA000
09F500000000
04D500000000
ENDCHAR
STARTCHAR B
ENCODING 66
SWIDTH 641 0
DWIDTH 10 0
BBX 10 12 0 0
BITMAP
0017CEEB40
04E9442BF2
2E75FE04F6
9E08FB07F3
CB0CF85F70
6A0FFFFFA1
003FF22DF7
006FD009FA
00AFA009F9
00DF700BF5
01FF514FC0
04FF4DEA10
ENDCHAR
STARTCHAR C
ENCODING 67
SWIDTH 497 0
DWIDTH 8 0
BBX 9 12 0 0
BITMAP
0004CEE900
006FE40D60
03FF700D80
0AFE103C30
1FF9000000
5FF5000000
8FF2000000
AFF0000000
AFF0000000
9FF1000220
4FF8005900
05CEDB5000
ENDCHAR
STARTCHAR D
ENCODING 68
SWIDTH 663 0
DWIDTH 11 0
BBX 11 12 0 0
BITMAP
0018CEEC5000
05E8332BF600
4F66FD02FE00
BC09FA00EF30
D90DF700EF40
791FF400FF30
004FF102FF20
008FC005FD00
00BF900AF800
00EF602FE100
03FF41BF5000
06FEBED60000
ENDCHAR
STARTCHAR E
ENCODING 69
SWIDTH 459 0
DWIDTH 7 0
BBX 8 12 0 0
BITMAP
0003CEC3
003FC17C
00AF408C
00DF3094
00AF7000
005FE400
09FE3000
5FF60000
BFF10000
DFE00004
9FF40381
1AEEC710
ENDCHAR
STARTCHAR F
ENCODING 70
SWIDTH 459 0
DWIDTH 7 0
BBX 10 12 0 0
BITMAP
006BEFFFF8
0BA8FE9CA1
7E08FB0000
BB0CF80000
CA0FF50000
593FFFF700
006FE33100
009FB00000
00DF700000
01FF400000
04FF100000
07FC000000
ENDCHAR
STARTCHAR G
ENCODING 71
SWIDTH 578 0
DWIDTH 9 0
BBX 10 15 0 -3
BITMAP
0005BEEB30
00AFD409D0
09FE2009F1
2FF7000B90
7FF2000000
AFD0002750
AFC0007F80
8FD000DF40
2FF519FF10
04CEC8FC00
000007F900
02CD5BF500
0CA13FE000
0CA08F6000
03BED60000
ENDCHAR
STARTCHAR H
ENCODING 72
SWIDTH 665 0
DWIDTH 11 0
BBX 11 12 0 0
BITMAP
0017CE505FF0
04EAFF208FC0
2E75FE00BF90
AE08FB00EF50
CB0CF802FF20
590FFFFFFE00
003FF43AFB00
006FD00BF800
00AFA00EF500
00DF703FF100
01FF406FD000
04FF10AFA000
ENDCHAR
STARTCHAR I
ENCODING 73
SWIDTH 375 0
DWIDTH 6 0
BBX 7 12 0 0
BITMAP
0018DF40
05D9FF10
4F37FD00
BB0AF900
D90DF600
462FF300
005FE000
008FC000
00BF8000
00EF5000
03FF2000
06FE0000
ENDCHAR
STARTCHAR J
ENCODING 74
SWIDTH 536 0
DWIDTH 9 0
BBX 10 15 0 -3
BITMAP
0000029DF2
00006DAFE0
0005F38FB0
000DA0CF70
000E81FF40
000664FF10
000007FD00
00000BF900
00000EF600
00003FF300
00006FE000
2CE8AFB000
AC12DF6000
9C16FC0000
2BED910000
ENDCHAR
STARTCHAR K
ENCODING 75
SWIDTH 601 0
DWIDTH 10 0
BBX 11 12 0 0
BITMAP
0028DF407F30
05D9FF13F500
4F37FC1D7000
CB0AF9A90000
D90DFCB00000
362FFDDB2000
005FE08FA000
008FB07FA000
00BF80BF7000
00EF50EF3000
03FF23FF0000
06FE02EF2000
ENDCHAR
STARTCHAR L
ENCODING 76
SWIDTH 379 0
DWIDTH 6 0
BBX 11 16 0 -4
BITMAP
0028DF400000
06D8FF100000
5F27FC000000
CB0BF9000000
C90EF6000000
352FF2000000
005FE0000000
009FB0000000
00CF80000000
00FF40000000
03FF10000000
07FF60000000
0028FC300000
00003DFA4330
000001BFFF60
00000008EB10
ENDCHAR
STARTCHAR M
ENCODING 77
SWIDTH 787 0
DWIDTH 13 0
BBX 12 12 1 0
BITMAP
003AEF600AFC
06D5FF501FFA
5F27FF407FF8
BB0CFF40DFF6
C93FFF34FFF3
258BFF3ACFF1
00D6FF4F8FE0
04E2FF9B7FC0
0A92FFE5AFA0
1E43FFE0CF80
6D03FF80EF60
B804FF21FF40
ENDCHAR
STARTCHAR N
ENCODING 78
SWIDTH 668 0
DWIDTH 11 0
BBX 12 12 0 0
BITMAP
006CEE4002F6
0AD7FF8006F2
7F26FFB009E0
CB0AFFE00CB0
DA0DCFF30F80
5B1F7DF63F40
005F49F96F10
008F16FD9D00
00BC02FFDA00
00E800EFF600
03F500AFF300
06F1007FE000
ENDCHAR
STARTCHAR O
ENCODING 79
SWIDTH 665 0
DWIDTH 11 0
BBX 11 12 0 0
BITMAP
0005ADEEA200
02CC5644FC00
1DA2DE20BF40
8E1BF700AF60
BC4FF100AF70
48AFB000CF50
00EF6001FF20
02FF3006FD00
03FF200CF600
03FF205FC100
00EF96EE2000
003CFE920000
ENDCHAR
STARTCHAR P
ENCODING 80
SWIDTH 573 0
DWIDTH 9 0
BBX 10 12 0 0
BITMAP
0018DEEA20
05E7332CE1
4F46FD06F6
BB0AFA05F7
D90DF708F3
571FF32EB0
004FF4DB10
008FD73000
00BF900000
00EF500000
03FF200000
06FE000000
ENDCHAR
STARTCHAR Q
ENCODING 81
SWIDTH 665 0
DWIDTH 11 0
BBX 11 14 0 -2
BITMAP
0005ADEEA200
02CB5644FC00
1E92DE20BF40
8E1BF700AF60
AC4FE100BF70
37AFA000DF60
00EF6001FF30
02FF3007FE00
03FF200DF800
03FFABAFE100
00EF78FF4000
003CEEFB0000
0000009FE600
000000056100
ENDCHAR
STARTCHAR R
ENCODING 82
SWIDTH 601 0
DWIDTH 10 0
BBX 10 12 0 0
BITMAP
0028DEEB30
05E8441BE1
4F46FD06F5
CC0AF909F2
D90DF66F60
461FFFFE40
005FF09FA0
008FC07FA0
00BF80BF70
00EF50EF30
03FF23FF00
06FE02EF20
ENDCHAR
STARTCHAR S
ENCODING 83
SWIDTH 570 0
DWIDTH 9 0
BBX 9 12 0 0
BITMAP
0003BEEA10
003FE31DA0
008FB00CC0
007FE12B50
001EFC1000
0004FFA000
00106FF800
09FD1AFF10
4FB104FF30
6F6004FE10
2FC33DF700
04CEEB5000
ENDCHAR
STARTCHAR T
ENCODING 84
SWIDTH 481 0
DWIDTH 8 0
BBX 12 12 0 0
BITMAP
005BDFD94145
0AB35FFFFFF4
6E108FF9BC80
CA00BFC00000
D900EF800000
9902FF500000
0205FF100000
0008FD000000
000CF9000000
000EF6000000
003FF2000000
006FE0000000
ENDCHAR
STARTCHAR U
ENCODING 85
SWIDTH 716 0
DWIDTH 11 0
BBX 13 12 0 0
BITMAP
0039DEA003FF10
08D4CF7006FD00
8E11FF3009FA00
E805FE000CF700
E709FA001FF300
470CF6004FF100
001FF2007FC000
005FD000BF9000
007FA001FF4000
007FA008FC0000
003FF89FE30000
0005CEEA200000
ENDCHAR
STARTCHAR V
ENCODING 86
SWIDTH 615 0
DWIDTH 10 0
BBX 11 12 0 0
BITMAP
0018DF5005C0
05D6FF600A60
4F30FF601E10
BB00FF605A00
D900EF60A500
4600EF71D000
0000EF758000
0000DF7A3000
0000DF8C0000
0000DFD70000
0000CFF10000
0000CFB00000
ENDCHAR
STARTCHAR W
ENCODING 87
SWIDTH 962 0
DWIDTH 15 0
BBX 17 12 0 0
BITMAP
0018DF5005FD000C50
05D6FF600AFE002E00
4F30FF601EFE007900
BB00FF605FFE00C300
D900EF60ABFE02D000
4600EF71D6FF077000
0000EF7596FF0C2000
0000DF7A35FF2B0000
0000DF8C05FF850000
0000DFD704FFC10000
0000CFF104FF900000
0000CFB004FF400000
ENDCHAR
STARTCHAR X
ENCODING 88
SWIDTH 620 0
DWIDTH 10 0
BBX 10 12 0 0
BITMAP
0018DF706B
05D5EFA1D3
4F30BFD790
BB008FFD10
D9005FF700
46002FF700
00000EFA00
00005FFD00
0000DAFF20
000794FF50
001D11FF80
009600CFB0
ENDCHAR
STARTCHAR Y
ENCODING 89
SWIDTH 620 0
DWIDTH 10 0
BBX 11 12 0 0
BITMAP
0018DF7002E0
05D5EFB00780
4F30AFE00D10
BB006FF35900
D9002FF6B300
46000EFCB000
00000AFF4000
000009FE0000
00000CFB0000
00001FF80000
00003FF50000
00007FF20000
ENDCHAR
STARTCHAR Z
ENCODING 90
SWIDTH 542 0
DWIDTH 9 0
BBX 9 12 0 0
BITMAP
02CFEEFF90
08F108FF20
04901EF900
00008FF200
0001EF9000
0008FF2000
001EF90000
008FF20000
01EF900000
08FF205800
2FF900BE00
9FFFEFD400
ENDCHAR
STARTCHAR bracketleft
ENCODING 91
SWIDTH 400 0
DWIDTH 6 0
BBX 7 16 0 -4
BITMAP
000DFE80
001F9000
004F6000
007F2000
00AE0000
00EB0000
02F80000
05F50000
08F20000
0BD00000
0EA00000
2F700000
6F400000
9F100000
CD000000
FFE60000
ENDCHAR
STARTCHAR backslash
ENCODING 92
SWIDTH 362 0
DWIDTH 6 0
BBX 6 16 0 -4
BITMAP
3E0000
0F2000
0C5000
099000
06C000
02F000
00E300
00B600
008900
005D00
002F10
000D40
000A70
0007A0
0004D0
0001F2
ENDCHAR
STARTCHAR bracketright
ENCODING 93
SWIDTH 400 0
DWIDTH 6 0
BBX 7 16 -1 -4
BITMAP
000AEFB0
00002F80
00005F50
00008F10
0000BD00
0000EA00
0003F700
0006F400
0009F100
000CD000
001F9000
004F6000
007F3000
00AF0000
00DC0000
CEF90000
ENDCHAR
STARTCHAR asciicircum
ENCODING 94
SWIDTH 421 0
DWIDTH 7 0
BBX 5 3 1 9
BITMAP
006A00
08EE10
881650
ENDCHAR
STARTCHAR underscore
ENCODING 95
SWIDTH 444 0
DWIDTH 7 0
BBX 7 1 0 0
BITMAP
4EEEEE50
ENDCHAR
STARTCHAR grave
ENCODING 96
SWIDTH 201 0
DWIDTH 3 0
BBX 3 3 0 9
BITMAP
6F20
1E40
0970
ENDCHAR
STARTCHAR a
ENCODING 97
SWIDTH 526 0
DWIDTH 8 0
BBX 10 8 -1 0
BITMAP
0019EDCF90
01CF71FF50
07FC02FF20
0DF705FE00
1FF409FB00
3FF30DF809
1FFAADFC96
06EE54ED70
ENDCHAR
STARTCHAR b
ENCODING 98
SWIDTH 444 0
DWIDTH 7 0
BBX 8 11 -1 0
BITMAP
004DE000
008FB000
00CF8000
00FFDEB1
03FF26F5
07FD02F7
0AFA03F6
0DF705F3
1FF40AC0
0FF53E40
06EEB300
ENDCHAR
STARTCHAR c
ENCODING 99
SWIDTH 384 0
DWIDTH 6 0
BBX 8 8 -1 0
BITMAP
0019DE60
00CF76D0
07FD0570
0DF80000
1FF40000
3FF30014
1FF50390
05DEC600
ENDCHAR
STARTCHAR d
ENCODING 100
SWIDTH 525 0
DWIDTH 8 0
BBX 10 11 -1 0
BITMAP
0000001CE4
0000004FF1
0000008FC0
0019EDCF90
01CF81FF60
07FD02FF30
0DF805FF00
1FF408FC00
3FF30BF904
1FF53FF827
06ED97EE80
ENDCHAR
STARTCHAR e
ENCODING 101
SWIDTH 384 0
DWIDTH 6 0
BBX 8 8 -1 0
BITMAP
0019DE60
00CF76D0
07FC09A0
0DF77E30
1FFEA300
3FF30014
1FF50490
05DEC600
ENDCHAR
STARTCHAR f
ENCODING 102
SWIDTH 267 0
DWIDTH 4 0
BBX 11 16 -4 -4
BITMAP
0000005DE800
000003FE2A20
000008FA0100
00000CF70000
00001FFF7000
00003FF20000
00007FE00000
0000AFB00000
0000DF700000
0001FF400000
0004FF100000
0008FC000000
04CFF9000000
2E4CF5000000
4A3FE1000000
0AEC40000000
ENDCHAR
STARTCHAR g
ENCODING 103
SWIDTH 507 0
DWIDTH 8 0
BBX 10 12 -1 -4
BITMAP
0019EDCF90
01CF81FF60
07FD02FF20
0DF805FE00
1FF408FB00
3FF30BF804
1FF53FF565
06EEBFFA80
0004BFE200
0088AFA000
00D1EF5000
007ED70000
ENDCHAR
STARTCHAR h
ENCODING 104
SWIDTH 505 0
DWIDTH 8 0
BBX 10 11 -1 0
BITMAP
004DE00000
008FB00000
00CF700000
00FFBEE500
03FF47FC00
06FC07FC00
0AF90AFA00
0DF60DF700
1FF31FF305
4FF01FF373
8FC008ED50
ENDCHAR
STARTCHAR i
ENCODING 105
SWIDTH 267 0
DWIDTH 4 0
BBX 6 11 -1 0
BITMAP
004E80
008FE0
003C60
01FF40
03FF10
07FD00
0AFA00
0DF600
1FF319
1FFAC4
09EC50
ENDCHAR
STARTCHAR j
ENCODING 106
SWIDTH 240 0
DWIDTH 4 0
BBX 9 15 -4 -4
BITMAP
000005E700
00000AFC00
000004C500
00000FF500
00003FF100
00006FD000
0000AFA000
0000DF7000
0001FF4340
0004FF1910
0007FE8300
019EFA0000
0D8EF60000
3B3FE10000
0AEC400000
ENDCHAR
STARTCHAR k
ENCODING 107
SWIDTH 518 0
DWIDTH 8 0
BBX 10 12 -1 0
BITMAP
0000100000
005EE00000
009FB00000
00CF800000
00FF409B20
03FF3B7000
06FFEEA100
0AFE9EF800
0DF70BF900
1FF30EF608
4FF10EFBA5
8FC006EE60
ENDCHAR
STARTCHAR l
ENCODING 108
SWIDTH 267 0
DWIDTH 4 0
BBX 6 12 -1 0
BITMAP
000020
005FE0
009FB0
00CF70
01FF40
03FF10
07FD00
0AFA00
0DF600
1FF31A
1FFAB3
09EC40
ENDCHAR
STARTCHAR m
ENCODING 109
SWIDTH 752 0
DWIDTH 12 0
BBX 14 8 -1 0
BITMAP
00FFBEE88DE400
03FF48FF48FB00
07FC08FC08FB00
0AF90BF80BF900
0DF60EF50EF600
1FF32FF21FF215
4FF05FE01FF273
8FC08FB008ED50
ENDCHAR
STARTCHAR n
ENCODING 110
SWIDTH 505 0
DWIDTH 8 0
BBX 10 8 -1 0
BITMAP
00FFBEE500
03FF47FC00
07FC07FC00
0AF90AFA00
0DF60DF700
1FF31FF305
4FF01FF373
8FC008ED50
ENDCHAR
STARTCHAR o
ENCODING 111
SWIDTH 439 0
DWIDTH 7 0
BBX 10 8 -1 0
BITMAP
0019DE7000
00CF83F102
07FD07F787
0DF805F500
2FF406E000
3FF30A9000
1FF44E2000
05DEB30000
ENDCHAR
STARTCHAR p
ENCODING 112
SWIDTH 468 0
DWIDTH 7 0
BBX 10 13 -2 -4
BITMAP
0006830000
000FFBDE60
003FF44FE0
006FC02FF1
00AF904FF0
00DF607FC0
01FF30DF70
04FF7BFD10
08FDDEB200
0BF8000000
0EF5000000
2FF2000000
4A60000000
ENDCHAR
STARTCHAR q
ENCODING 113
SWIDTH 486 0
DWIDTH 8 0
BBX 9 12 -1 -4
BITMAP
0019EDDF80
01CF81FF50
07FD02FF20
0DF805FE00
1FF408FA00
3FF30BF700
1FF54FF400
06ED9FF100
00007FD000
0000AF9000
0000DF6000
0001B71000
ENDCHAR
STARTCHAR r
ENCODING 114
SWIDTH 376 0
DWIDTH 6 0
BBX 8 8 -1 0
BITMAP
00FF9DD1
03FF7AE2
07FC0010
0AF90000
0DF60000
1FF30000
4FF00000
8FC00000
ENDCHAR
STARTCHAR s
ENCODING 115
SWIDTH 382 0
DWIDTH 6 0
BBX 8 9 -1 0
BITMAP
00036500
000EFB00
005EFC00
00A9FD00
0387FE00
0B45FF00
6E55FF64
680AFD30
0AED9100
ENDCHAR
STARTCHAR t
ENCODING 116
SWIDTH 267 0
DWIDTH 4 0
BBX 6 11 -1 0
BITMAP
001460
009FB0
00CF80
07FFF4
03FF20
06FE00
09FA00
0DF700
1FF418
1FFAB4
09EC50
ENDCHAR
STARTCHAR u
ENCODING 117
SWIDTH 505 0
DWIDTH 8 0
BBX 10 8 -1 0
BITMAP
01FF41FF40
03FF14FF10
07FD07FC00
0AFA0BF900
0DF60EF600
1FF43FF327
1FFABFFAC2
09EC39EC30
ENDCHAR
STARTCHAR v
ENCODING 118
SWIDTH 414 0
DWIDTH 7 0
BBX 8 8 -1 0
BITMAP
01FF46E2
03FF16E5
07FD00A4
0AFA00D1
0DF604C0
1FF31C50
1FFACA00
08EE8000
ENDCHAR
STARTCHAR w
ENCODING 119
SWIDTH 661 0
DWIDTH 11 0
BBX 12 8 -1 0
BITMAP
01FF41FF47E2
03FF14FF16E5
07FD07FC00A3
0AFA0BF900E1
0DF60EF605B0
1FF43FF31D40
1FFACFFAD900
09EC39EE8000
ENDCHAR
STARTCHAR x
ENCODING 120
SWIDTH 522 0
DWIDTH 8 0
BBX 9 9 0 0
BITMAP
0000009800
009EC1CE00
072CF62C00
1709F9C300
7207FF6000
9006FC0000
404DFE0050
03C2EF3460
2C205ED600
ENDCHAR
STARTCHAR y
ENCODING 121
SWIDTH 486 0
DWIDTH 8 0
BBX 10 12 -1 -4
BITMAP
01FF41FF40
03FF14FF10
07FD07FC00
0AFA0BF900
0DF60EF600
1FF44FF254
1FFADFE2A0
09ECBFEA10
002AFF8000
01C3EF4000
04B8FE0000
01BEC30000
ENDCHAR
STARTCHAR z
ENCODING 122
SWIDTH 428 0
DWIDTH 7 0
BBX 7 8 0 0
BITMAP
06EEFF80
1F64FE10
051CF600
006FD000
01EF5000
08FB0300
2FF34F20
BFFFE800
ENDCHAR
STARTCHAR braceleft
ENCODING 123
SWIDTH 352 0
DWIDTH 6 0
BBX 7 16 0 -4
BITMAP
0002BF50
000BE200
002F9000
004F7000
006F5000
007F3000
008F2000
01CC0000
3FE10000
03F60000
04F50000
09F10000
0DD00000
2FA00000
3FB00000
08E70000
ENDCHAR
STARTCHAR bar
ENCODING 124
SWIDTH 532 0
DWIDTH 9 0
BBX 2 16 3 -4
BITMAP
8F
8F
8F
8F
8F
8F
8F
8F
8F
8F
8F
8F
8F
8F
8F
8F
ENDCHAR
STARTCHAR braceright
ENCODING 125
SWIDTH 352 0
DWIDTH 6 0
BBX 6 16 -1 -4
BITMAP
003EB1
0007F8
0004F8
0006F6
0009F2
000CD0
000F90
001F90
000AF8
008F30
00CD00
00EC00
00FB00
03F800
09F300
ED7000
ENDCHAR
STARTCHAR asciitilde
ENCODING 126
SWIDTH 431 0
DWIDTH 7 0
BBX 7 2 1 9
BITMAP
15752110
79CFD600
ENDCHAR
STARTCHAR uni00A0
ENCODING 160
SWIDTH 217 0
DWIDTH 3 0
BBX 1 1 0 0
BITMAP
00
ENDCHAR
STARTCHAR exclamdown
ENCODING 161
SWIDTH 219 0
DWIDTH 4 0
BBX 5 12 -1 -4
BITMAP
007E50
00CFA0
005C40
002200
00D900
02F600
07F400
0BF200
1FE000
4FC000
9FA000
DD6000
ENDCHAR
STARTCHAR cent
ENCODING 162
SWIDTH 384 0
DWIDTH 6 0
BBX 7 12 0 -1
BITMAP
0000A200
0001D000
008FFE40
0AFA8CA0
5F984B50
AF4B1000
DF1C0000
CF490000
7FC63400
08FEB200
00C00000
02800000
ENDCHAR
STARTCHAR sterling
ENCODING 163
SWIDTH 455 0
DWIDTH 7 0
BBX 9 12 0 0
BITMAP
00007DEA00
0009F76F30
002FF16A00
006FC00000
009F800000
5EFFFE8000
01FF200000
04FE000000
07FA000000
0BE3000500
2FFFEDEC00
ADDDEFD400
ENDCHAR
STARTCHAR currency
ENCODING 164
SWIDTH 500 0
DWIDTH 8 0
BBX 6 7 1 2
BITMAP
200003
9ADEA9
3C11B4
680068
3C21C4
9ADDA9
200002
ENDCHAR
STARTCHAR yen
ENCODING 165
SWIDTH 558 0
DWIDTH 9 0
BBX 9 12 1 0
BITMAP
2FF7001E10
0EFB007800
0AFE00D200
06FF35A000
02FF7B3000
00EFCB0000
00AFF50000
2CEFFCC100
00CFB00000
8EFFFE9000
03FF500000
06FF200000
ENDCHAR
STARTCHAR brokenbar
ENCODING 166
SWIDTH 532 0
DWIDTH 9 0
BBX 2 16 3 -4
BITMAP
8F
8F
8F
8F
8F
8F
8F
00
00
8F
8F
8F
8F
8F
8F
8F
ENDCHAR
STARTCHAR section
ENCODING 167
SWIDTH 542 0
DWIDTH 9 0
BBX 9 13 0 -1
BITMAP
00019EEB10
000AF61C50
000FF01D30
004FF40100
04FBFE4000
09F48FF500
07FE36FD00
009FE3BF10
0009FD9C00
6F71EFC300
CB00CF2000
BC02EB0000
2ACC810000
ENDCHAR
STARTCHAR dieresis
ENCODING 168
SWIDTH 392 0
DWIDTH 6 0
BBX 5 2 1 9
BITMAP
C81C70
D91E80
ENDCHAR
STARTCHAR copyright
ENCODING 169
SWIDTH 587 0
DWIDTH 9 0
BBX 9 8 0 1
BITMAP
004BED7000
04CBEEAA00
0C6A148940
2985000380
295B145370
0C17EC2940
04C4028A00
004BED7000
ENDCHAR
STARTCHAR ordfeminine
ENCODING 170
SWIDTH 345 0
DWIDTH 6 0
BBX 6 5 0 7
BITMAP
04DDF1
0D87C0
3F1A90
4F2E70
2DAAA0
ENDCHAR
STARTCHAR guillemotleft
ENCODING 171
SWIDTH 589 0
DWIDTH 9 0
BBX 9 6 0 1
BITMAP
0001630460
017B64B810
5C62B81000
4C72AA3000
006D43B900
0001100200
ENDCHAR
STARTCHAR logicalnot
ENCODING 172
SWIDTH 444 0
DWIDTH 7 0
BBX 7 4 0 1
BITMAP
8EEEFF40
0000CF10
0001FC00
00017400
ENDCHAR
STARTCHAR uni00AD
ENCODING 173
SWIDTH 290 0
DWIDTH 5 0
BBX 4 1 0 4
BITMAP
8EE9
ENDCHAR
STARTCHAR registered
ENCODING 174
SWIDTH 553 0
DWIDTH 9 0
BBX 9 8 0 1
BITMAP
006DEC5000
08CFEDB600
2B38093B10
653CA90730
65381A0730
2B27082B00
08A203B600
006CEC4000
ENDCHAR
STARTCHAR macron
ENCODING 175
SWIDTH 446 0
DWIDTH 7 0
BBX 6 1 1 9
BITMAP
BEEEE5
ENDCHAR
STARTCHAR degree
ENCODING 176
SWIDTH 314 0
DWIDTH 5 0
BBX 5 6 0 6
BITMAP
029910
0C5860
3E0870
6C0A40
5C1C00
199200
ENDCHAR
STARTCHAR plusminus
ENCODING 177
SWIDTH 479 0
DWIDTH 8 0
BBX 7 8 0 2
BITMAP
00018100
0005E100
0DFFFFF0
033D8330
000F4000
003F1000
00000000
7EEEEE10
ENDCHAR
STARTCHAR uni00B2
ENCODING 178
SWIDTH 328 0
DWIDTH 5 0
BBX 6 7 0 5
BITMAP
01CE80
0878F1
0568D0
002D30
01C300
0C3010
2FEE90
ENDCHAR
STARTCHAR uni00B3
ENCODING 179
SWIDTH 336 0
DWIDTH 5 0
BBX 6 7 0 5
BITMAP
01BEA0
05C3F2
0176C0
002D50
1D47F1
2E09D0
06A910
ENDCHAR
STARTCHAR acute
ENCODING 180
SWIDTH 316 0
DWIDTH 5 0
BBX 3 3 2 9
BITMAP
0DA0
5D10
C300
ENDCHAR
STARTCHAR uni00B5
ENCODING 181
SWIDTH 505 0
DWIDTH 8 0
BBX 11 11 -2 -3
BITMAP
000FF41FF400
003FF14FF100
007FD07FC000
00AFA0AF9000
00DF70EF6000
01FF43FF3270
04FFABFF9B20
08FFC39EC300
0BF900000000
0EF600000000
174000000000
ENDCHAR
STARTCHAR paragraph
ENCODING 182
SWIDTH 542 0
DWIDTH 9 0
BBX 8 13 1 -1
BITMAP
02AEEB30
1DFFFAD0
8FFFF6F1
CFFFC8F0
CFFF9CC0
8FFF6F90
1BFFEF60
009E6F20
00BB9E00
00E8CB00
02F6F800
06F6F400
09E7F100
ENDCHAR
STARTCHAR periodcentered
ENCODING 183
SWIDTH 434 0
DWIDTH 7 0
BBX 3 3 2 3
BITMAP
9E80
FFE0
9E80
ENDCHAR
STARTCHAR cedilla
ENCODING 184
SWIDTH 227 0
DWIDTH 4 0
BBX 4 4 0 -4
BITMAP
0830
0DA5
33DB
6DC3
ENDCHAR
STARTCHAR uni00B9
ENCODING 185
SWIDTH 229 0
DWIDTH 4 0
BBX 4 7 0 5
BITMAP
0154
2EF4
04F1
08C0
0B90
0E60
2E20
ENDCHAR
STARTCHAR ordmasculine
ENCODING 186
SWIDTH 329 0
DWIDTH 5 0
BBX 5 5 0 7
BITMAP
04DC00
1E7970
3F1920
4E1B00
1CD300
ENDCHAR
STARTCHAR guillemotright
ENCODING 187
SWIDTH 586 0
DWIDTH 9 0
BBX 9 6 0 1
BITMAP
0730270000
03C817C400
0007D22B90
005BA38C60
6C72BA4000
2001200000
ENDCHAR
STARTCHAR onequarter
ENCODING 188
SWIDTH 749 0
DWIDTH 12 0
BBX 12 12 0 0
BITMAP
01540000D400
2EF40006B000
04F1001E3000
08C000890000
0B9002E10000
0E600A70A779
2E203D10A9C8
0000B600D5F6
0005C003A3F3
000D4008BCF6
006B000009C0
01E300000D80
ENDCHAR
STARTCHAR onehalf
ENCODING 189
SWIDTH 745 0
DWIDTH 12 0
BBX 12 12 0 0
BITMAP
01540000D400
2EF40006B000
04F1001E3000
08C000890000
0B9002E10000
0E600A704ED4
2E203D10D2CB
0000B60082D8
0005C00006C1
000D40004B10
006B0002C101
01E30007FEE5
ENDCHAR
STARTCHAR threequarters
ENCODING 190
SWIDTH 836 0
DWIDTH 13 0
BBX 14 12 0 0
BITMAP
01BEA00007A000
05C3F2001E2000
0176C000980000
002D5002E10000
1D47F10B700000
2E09D04D04C3B2
06A910C504F7E0
000005C007A9B0
00000D300C2C90
00007A003CBFC0
0001E200003F20
00098000007E00
ENDCHAR
STARTCHAR questiondown
ENCODING 191
SWIDTH 439 0
DWIDTH 7 0
BBX 7 12 -1 -4
BITMAP
00004E80
00008FE0
00003C60
00000100
00001E00
00009900
0008D100
01BE2000
0BF43D80
2FF00CD0
1FF31E80
05DFD800
ENDCHAR
STARTCHAR Agrave
ENCODING 192
SWIDTH 668 0
DWIDTH 11 0
BBX 11 18 0 -2
BITMAP
00000001F800
00000000BA00
000000007D00
000000000000
00000001AED0
0000002DDFC0
000001D6AF90
00000BA0DF60
00006F21FF30
19DEFE87FE00
BE39F22BFB00
7A2FA00BF800
009F500EF500
01EE003FF100
05FA006FD000
08F700AFA000
09F500000000
04D500000000
ENDCHAR
STARTCHAR Aacute
ENCODING 193
SWIDTH 668 0
DWIDTH 11 0
BBX 13 18 0 -2
BITMAP
00000000004710
0000000001D800
0000000008B000
00000000000000
00000001AED000
0000002DDFC000
000001D6AF9000
00000BA0DF6000
00006F21FF3000
19DEFE87FE0000
BE39F22BFB0000
7A2FA00BF80000
009F500EF50000
01EE003FF10000
05FA006FD00000
08F700AFA00000
09F50000000000
04D50000000000
ENDCHAR
STARTCHAR Acircumflex
ENCODING 194
SWIDTH 668 0
DWIDTH 11 0
BBX 13 18 0 -2
BITMAP
00000000003300
0000000007FA00
00000001972A10
00000000000000
00000001AED000
0000002DDFC000
000001D6AF9000
00000BA0DF6000
00006F21FF3000
19DEFE87FE0000
BE39F22BFB0000
7A2FA00BF80000
009F500EF50000
01EE003FF10000
05FA006FD00000
08F700AFA00000
09F50000000000
04D50000000000
ENDCHAR
STARTCHAR Atilde
ENCODING 195
SWIDTH 668 0
DWIDTH 11 0
BBX 13 17 0 -2
BITMAP
00000002674120
000000279DEB40
00000000000000
00000001AED000
0000002DDFC000
000001D6AF9000
00000BA0DF6000
00006F21FF3000
19DEFE87FE0000
BE39F22BFB0000
7A2FA00BF80000
009F500EF50000
01EE003FF10000
05FA006FD00000
08F700AFA00000
09F50000000000
04D50000000000
ENDCHAR
STARTCHAR Adieresis
ENCODING 196
SWIDTH 668 0
DWIDTH 11 0
BBX 12 17 0 -2
BITMAP
00000007C19C
00000008E1AD
000000000000
00000001AED0
0000002DDFC0
000001D6AF90
00000BA0DF60
00006F21FF30
19DEFE87FE00
BE39F22BFB00
7A2FA00BF800
009F500EF500
01EE003FF100
05FA006FD000
08F700AFA000
09F500000000
04D500000000
ENDCHAR
STARTCHAR Aring
ENCODING 197
SWIDTH 668 0
DWIDTH 11 0
BBX 11 17 0 -2
BITMAP
000000002DA0
0000000074A0
000000004E80
00000001AED0
0000002DDFC0
000001D6AF90
00000BA0DF60
00006F21FF30
19DEFE87FE00
BE39F22BFB00
7A2FA00BF800
009F500EF500
01EE003FF100
05FA006FD000
08F700AFA000
09F500000000
04D500000000
ENDCHAR
STARTCHAR AE
ENCODING 198
SWIDTH 764 0
DWIDTH 12 0
BBX 15 14 0 -2
BITMAP
00000002AEC51440
0000002CBFECEB00
000001D3BF900000
00000B70EF500000
00006D02FF200000
3ADEFEBAFFFF5000
CE09F10AFB330000
232FA00CF7000000
009F401FF4000000
01EE003FF1000000
05FA007FFDDD5000
08F700AFFFFF4000
09F5000000000000
04D5000000000000
ENDCHAR
STARTCHAR Ccedilla
ENCODING 199
SWIDTH 497 0
DWIDTH 8 0
BBX 9 15 0 -3
BITMAP
0004CEE900
006FE40D60
03FF600E80
0AFD002810
1FF7000000
5FF4000000
8FF1000000
AFF0000000
AFF1000120
9FF8005B10
4FFFFFD200
06DFB60000
000A840000
0011AB0000
006A920000
ENDCHAR
STARTCHAR Egrave
ENCODING 200
SWIDTH 459 0
DWIDTH 7 0
BBX 8 16 0 0
BITMAP
0000CC00
00008E00
00003F10
00000000
0003CEC3
003FC17C
00AF408C
00DF3094
00AF7000
005FE400
09FE3000
5FF60000
BFF10000
DFE00004
9FF40381
1AEEC710
ENDCHAR
STARTCHAR Eacute
ENCODING 201
SWIDTH 459 0
DWIDTH 7 0
BBX 9 16 0 0
BITMAP
0000008E20
000001E700
000007C000
0000000000
0003CEC300
003FC17C00
00AF408C00
00DF309400
00AF700000
005FE40000
09FE300000
5FF6000000
BFF1000000
DFE0000400
9FF4038100
1AEEC71000
ENDCHAR
STARTCHAR Ecircumflex
ENCODING 202
SWIDTH 459 0
DWIDTH 7 0
BBX 8 16 0 0
BITMAP
000002C2
00003DE7
0004A31A
00000000
0003CEC3
003FC17C
00AF408C
00DF3094
00AF7000
005FE400
09FE3000
5FF60000
BFF10000
DFE00004
9FF40381
1AEEC710
ENDCHAR
STARTCHAR Edieresis
ENCODING 203
SWIDTH 459 0
DWIDTH 7 0
BBX 9 15 0 0
BITMAP
0001D82E60
0001C72D60
0000000000
0003CEC300
003FC17C00
00AF408C00
00DF309400
00AF700000
005FE40000
09FE300000
5FF6000000
BFF1000000
DFE0000400
9FF4038100
1AEEC71000
ENDCHAR
STARTCHAR Igrave
ENCODING 204
SWIDTH 375 0
DWIDTH 6 0
BBX 7 16 0 0
BITMAP
0006F300
0001F500
0000C800
00000000
0018DF40
05D9FF10
4F37FD00
BB0AF900
D90DF600
462FF300
005FE000
008FC000
00BF8000
00EF5000
03FF2000
06FE0000
ENDCHAR
STARTCHAR Iacute
ENCODING 205
SWIDTH 375 0
DWIDTH 6 0
BBX 8 16 0 0
BITMAP
00000075
000007E2
00001E40
00000000
0018DF40
05D9FF10
4F37FD00
BB0AF900
D90DF600
462FF300
005FE000
008FC000
00BF8000
00EF5000
03FF2000
06FE0000
ENDCHAR
STARTCHAR Icircumflex
ENCODING 206
SWIDTH 375 0
DWIDTH 6 0
BBX 8 16 0 0
BITMAP
00000240
00005EC0
00088283
00000000
0018DF40
05D9FF10
4F37FD00
BB0AF900
D90DF600
462FF300
005FE000
008FC000
00BF8000
00EF5000
03FF2000
06FE0000
ENDCHAR
STARTCHAR Idieresis
ENCODING 207
SWIDTH 375 0
DWIDTH 6 0
BBX 8 15 0 0
BITMAP
000BA0C8
000CB1D9
00000000
0018DF40
05D9FF10
4F37FD00
BB0AF900
D90DF600
462FF300
005FE000
008FC000
00BF8000
00EF5000
03FF2000
06FE0000
ENDCHAR
STARTCHAR Eth
ENCODING 208
SWIDTH 663 0
DWIDTH 11 0
BBX 11 12 0 0
BITMAP
0028DEEC6000
07E74419F800
6F37FD01FF10
CB0AF900EF40
B90EF500EF40
13BFFE50FF30
006FD002FF10
009FA005FD00
00CF800AF800
00FF502FE100
03FF41BF6000
06FEBED60000
ENDCHAR
STARTCHAR Ntilde
ENCODING 209
SWIDTH 686 0
DWIDTH 11 0
BBX 12 15 0 0
BITMAP
000003CFD972
00000559DB40
000000000000
006CEE4002F6
0AD7FF8006F2
7F26FFB009E0
CB0AFFE00CB0
DA0DCFF30F80
5B1F7DF63F40
005F49F96F10
008F16FD9D00
00BC02FFDA00
00E800EFF600
03F500AFF300
06F1007FE000
ENDCHAR
STARTCHAR Ograve
ENCODING 210
SWIDTH 665 0
DWIDTH 11 0
BBX 11 16 0 0
BITMAP
00001E900000
00000BB00000
000006D00000
000000000000
0005ADEEA200
02CC5644FC00
1DA2DE20BF40
8E1BF700AF60
BC4FF100AF70
48AFB000CF50
00EF6001FF20
02FF3006FD00
03FF200CF600
03FF205FC100
00EF96EE2000
003CFE920000
ENDCHAR
STARTCHAR Oacute
ENCODING 211
SWIDTH 665 0
DWIDTH 11 0
BBX 11 16 0 0
BITMAP
00000006F300
0000000D8000
0000006D0000
000000000000
0005ADEEA200
02CC5644FC00
1DA2DE20BF40
8E1BF700AF60
BC4FF100AF70
48AFB000CF50
00EF6001FF20
02FF3006FD00
03FF200CF600
03FF205FC100
00EF96EE2000
003CFE920000
ENDCHAR
STARTCHAR Ocircumflex
ENCODING 212
SWIDTH 665 0
DWIDTH 11 0
BBX 11 16 0 0
BITMAP
0000001B4000
000002CE8000
00003A41A000
000000000000
0005ADEEA200
02CC5644FC00
1DA2DE20BF40
8E1BF700AF60
BC4FF100AF70
48AFB000CF50
00EF6001FF20
02FF3006FD00
03FF200CF600
03FF205FC100
00EF96EE2000
003CFE920000
ENDCHAR
STARTCHAR Otilde
ENCODING 213
SWIDTH 665 0
DWIDTH 11 0
BBX 11 15 0 0
BITMAP
000002774120
000038AEEB20
000000000000
0005ADEEA200
02CC5644FC00
1DA2DE20BF40
8E1BF700AF60
BC4FF100AF70
48AFB000CF50
00EF6001FF20
02FF3006FD00
03FF200CF600
03FF205FC100
00EF96EE2000
003CFE920000
ENDCHAR
STARTCHAR Odieresis
ENCODING 214
SWIDTH 665 0
DWIDTH 11 0
BBX 11 15 0 0
BITMAP
00003D54D300
00003E55E400
000000000000
0005ADEEA200
02CC5644FC00
1DA2DE20BF40
8E1BF700AF60
BC4FF100AF70
48AFB000CF50
00EF6001FF20
02FF3006FD00
03FF200CF600
03FF205FC100
00EF96EE2000
003CFE920000
ENDCHAR
STARTCHAR multiply
ENCODING 215
SWIDTH 414 0
DWIDTH 7 0
BBX 6 5 0 3
BITMAP
1B2096
0BEAE4
01EF60
09ECE3
1D40B6
ENDCHAR
STARTCHAR Oslash
ENCODING 216
SWIDTH 658 0
DWIDTH 11 0
BBX 11 13 0 -1
BITMAP
0000001C0000
0017BEEE7000
05E9CEB9F800
4F59F8B2FE00
AC3FE1D0EF10
7AAFA2A1FF10
00EF5574FE00
03FF2948FA00
05FF0C1EF400
04FF0C7FA000
01EF8DFC1000
005DFD810000
0000A3000000
ENDCHAR
STARTCHAR Ugrave
ENCODING 217
SWIDTH 716 0
DWIDTH 11 0
BBX 12 16 0 0
BITMAP
0000005F3000
0000001F6000
0000000B8000
000000000000
0028CE9004FF
07D4EF5007FC
7E12FF100BF8
E906FC000EF5
F70AF8002FF2
540EF4006FE0
002FF1009FA0
006FC000DF60
008F9003FF20
008FA00AFA00
006FE9AFD200
0008DFD92000
ENDCHAR
STARTCHAR Uacute
ENCODING 218
SWIDTH 716 0
DWIDTH 11 0
BBX 12 16 0 0
BITMAP
00000000AD10
00000002F500
00000009A000
000000000000
0028CE9004FF
07D4EF5007FC
7E12FF100BF8
E906FC000EF5
F70AF8002FF2
540EF4006FE0
002FF1009FA0
006FC000DF60
008F9003FF20
008FA00AFA00
006FE9AFD200
0008DFD92000
ENDCHAR
STARTCHAR Ucircumflex
ENCODING 219
SWIDTH 716 0
DWIDTH 11 0
BBX 12 16 0 0
BITMAP
000000007900
00000008EE00
000000971740
000000000000
0028CE9004FF
07D4EF5007FC
7E12FF100BF8
E906FC000EF5
F70AF8002FF2
540EF4006FE0
002FF1009FA0
006FC000DF60
008F9003FF20
008FA00AFA00
006FE9AFD200
0008DFD92000
ENDCHAR
STARTCHAR Udieresis
ENCODING 220
SWIDTH 716 0
DWIDTH 11 0
BBX 12 15 0 0
BITMAP
000000BC0DA0
000000AB0C90
000000000000
0028CE9004FF
07D4EF5007FC
7E12FF100BF8
E906FC000EF5
F70AF8002FF2
540EF4006FE0
002FF1009FA0
006FC000DF60
008F9003FF20
008FA00AFA00
006FE9AFD200
0008DFD92000
ENDCHAR
STARTCHAR Yacute
ENCODING 221
SWIDTH 620 0
DWIDTH 10 0
BBX 11 16 0 0
BITMAP
000000000660
000000004F40
00000000C700
000000000000
0018DF7002E0
05D5EFB00780
4F30AFE00D10
BB006FF35900
D9002FF6B300
46000EFCB000
00000AFF4000
000009FE0000
00000CFB0000
00001FF80000
00003FF50000
00007FF20000
ENDCHAR
STARTCHAR Thorn
ENCODING 222
SWIDTH 583 0
DWIDTH 9 0
BBX 10 12 0 0
BITMAP
00008A3000
0004FF1000
004BFFEB30
0A6BFB1CE2
8D0EF705F6
D93FF306F6
996FE00DF1
009FA2BF60
00CFFDA300
00FF500000
03FF200000
06FE000000
ENDCHAR
STARTCHAR germandbls
ENCODING 223
SWIDTH 480 0
DWIDTH 8 0
BBX 9 15 -2 -4
BITMAP
00002BED40
0001DE2CA0
0007FA0C80
000DF61F20
002FF37800
005FE0DA00
008FC04F70
00BF800FD0
00EF500FE0
03FF306FA0
06FD4EE910
0AFA000000
0DF7000000
1FF4000000
3A60000000
ENDCHAR
STARTCHAR agrave
ENCODING 224
SWIDTH 526 0
DWIDTH 8 0
BBX 10 12 -1 0
BITMAP
00006F3000
00001F6000
00000B8000
0000000000
0019EDCF90
01CF71FF50
07FC02FF20
0DF705FE00
1FF409FB00
3FF30DF809
1FFAADFC96
06EE54ED70
ENDCHAR
STARTCHAR aacute
ENCODING 225
SWIDTH 526 0
DWIDTH 8 0
BBX 10 12 -1 0
BITMAP
000000DB00
000005F200
00000C7000
0000010000
0019EDCF90
01CF71FF50
07FC02FF20
0DF705FE00
1FF409FB00
3FF30DF809
1FFAADFC96
06EE54ED70
ENDCHAR
STARTCHAR acircumflex
ENCODING 226
SWIDTH 526 0
DWIDTH 8 0
BBX 10 12 -1 0
BITMAP
000000A600
00001BEA00
0001A61B10
0001000000
0019EDCF90
01CF71FF50
07FC02FF20
0DF705FE00
1FF409FB00
3FF30DF809
1FFAADFC96
06EE54ED70
ENDCHAR
STARTCHAR atilde
ENCODING 227
SWIDTH 526 0
DWIDTH 8 0
BBX 10 11 -1 0
BITMAP
0003CFD972
000559DB40
0000000000
0019EDCF90
01CF71FF50
07FC02FF20
0DF705FE00
1FF409FB00
3FF30DF809
1FFAADFC96
06EE54ED70
ENDCHAR
STARTCHAR adieresis
ENCODING 228
SWIDTH 526 0
DWIDTH 8 0
BBX 10 11 -1 0
BITMAP
0001D92E80
0000C81D70
0000000000
0019EDCF90
01CF71FF50
07FC02FF20
0DF705FE00
1FF409FB00
3FF30DF809
1FFAADFC96
06EE54ED70
ENDCHAR
STARTCHAR aring
ENCODING 229
SWIDTH 526 0
DWIDTH 8 0
BBX 10 11 -1 0
BITMAP
00001CD200
00002DC100
0000000000
0019EDCF90
01CF71FF50
07FC02FF20
0DF705FE00
1FF409FB00
3FF30DF809
1FFAADFC96
06EE54ED70
ENDCHAR
STARTCHAR ae
ENCODING 230
SWIDTH 650 0
DWIDTH 10 0
BBX 12 8 -1 0
BITMAP
002AEEB8DEA0
005309FFA3F1
000008FF25E0
029DEFFB4E60
0CFA1EFEC500
1FF32FF70004
1FF48FF90282
07EE86DFD810
ENDCHAR
STARTCHAR ccedilla
ENCODING 231
SWIDTH 384 0
DWIDTH 6 0
BBX 8 12 -1 -4
BITMAP
0019DE60
00CF76C0
07FD0570
0DF80000
1FF40000
3FF30024
1FF604A1
05DFF910
00065000
000AEA00
00118B00
005A9200
ENDCHAR
STARTCHAR egrave
ENCODING 232
SWIDTH 384 0
DWIDTH 6 0
BBX 8 12 -1 0
BITMAP
0005F400
0001E700
0000A900
00000000
0019DE60
00CF76D0
07FC09A0
0DF77E30
1FFEA300
3FF30014
1FF50490
05DEC600
ENDCHAR
STARTCHAR eacute
ENCODING 233
SWIDTH 384 0
DWIDTH 6 0
BBX 8 12 -1 0
BITMAP
000003F6
00000AC0
00002F30
00001200
0019DE60
00CF76D0
07FC09A0
0DF77E30
1FFEA300
3FF30014
1FF50490
05DEC600
ENDCHAR
STARTCHAR ecircumflex
ENCODING 234
SWIDTH 384 0
DWIDTH 6 0
BBX 8 12 -1 0
BITMAP
00000780
00008ED0
00098193
00010001
0019DE60
00CF76D0
07FC09A0
0DF77E30
1FFEA300
3FF30014
1FF50490
05DEC600
ENDCHAR
STARTCHAR edieresis
ENCODING 235
SWIDTH 384 0
DWIDTH 6 0
BBX 8 11 -1 0
BITMAP
000DA1E8
000C91D7
00000000
0019DE60
00CF76D0
07FC09A0
0DF77E30
1FFEA300
3FF30014
1FF50490
05DEC600
ENDCHAR
STARTCHAR igrave
ENCODING 236
SWIDTH 267 0
DWIDTH 4 0
BBX 6 12 -1 0
BITMAP
00EA00
009C00
005E00
000000
01FF40
03FF10
07FD00
0AFA00
0DF600
1FF319
1FFAC4
09EC50
ENDCHAR
STARTCHAR iacute
ENCODING 237
SWIDTH 267 0
DWIDTH 4 0
BBX 6 12 -1 0
BITMAP
0001E9
0007D1
001E50
000000
01FF40
03FF10
07FD00
0AFA00
0DF600
1FF319
1FFAC4
09EC50
ENDCHAR
STARTCHAR icircumflex
ENCODING 238
SWIDTH 267 0
DWIDTH 4 0
BBX 6 12 -1 0
BITMAP
0003C0
005EE3
069238
000000
01FF40
03FF10
07FD00
0AFA00
0DF600
1FF319
1FFAC4
09EC50
ENDCHAR
STARTCHAR idieresis
ENCODING 239
SWIDTH 267 0
DWIDTH 4 0
BBX 6 11 -1 0
BITMAP
08E1CB
07C1BA
000000
01FF40
03FF10
07FD00
0AFA00
0DF600
1FF319
1FFAC4
09EC50
ENDCHAR
STARTCHAR eth
ENCODING 240
SWIDTH 526 0
DWIDTH 8 0
BBX 10 12 -1 0
BITMAP
000004B201
000004FDD7
00009CDF40
000000AF70
0019EDDF70
01CF81FF60
07FD02FF30
0DF805FF10
1FF408FC00
3FF30BF904
1FF53FF827
06ED97EE80
ENDCHAR
STARTCHAR ntilde
ENCODING 241
SWIDTH 505 0
DWIDTH 8 0
BBX 10 11 -1 0
BITMAP
0008EEB850
00346BC800
0000000000
00FFBEE500
03FF47FC00
07FC07FC00
0AF90AF900
0DF60DF500
1FF31FF228
4FF01FF9B2
8FC008ED40
ENDCHAR
STARTCHAR ograve
ENCODING 242
SWIDTH 433 0
DWIDTH 7 0
BBX 10 12 -1 0
BITMAP
0000E90000
0000AC0000
00005E0000
0000000000
0019EE5000
01DF65E002
08FC09F686
0EF607F400
3FF307D000
4FF10C8000
2FF35D1000
06DEA20000
ENDCHAR
STARTCHAR oacute
ENCODING 243
SWIDTH 439 0
DWIDTH 7 0
BBX 10 12 -1 0
BITMAP
000003F600
00000AC000
00002F3000
0000120000
0019DE7000
00CF83F102
07FD07F787
0DF805F500
2FF406E000
3FF30A9000
1FF44E2000
05DEB30000
ENDCHAR
STARTCHAR ocircumflex
ENCODING 244
SWIDTH 433 0
DWIDTH 7 0
BBX 10 12 -1 0
BITMAP
0000096000
0000AEB000
001A71B100
0011001000
0019EE5000
01DF65E002
08FC09F686
0EF607F400
3FF307D000
4FF10C8000
2FF35D1000
06DEA20000
ENDCHAR
STARTCHAR otilde
ENCODING 245
SWIDTH 433 0
DWIDTH 7 0
BBX 10 11 -1 0
BITMAP
005DFC7700
0167CEB200
0000000000
0019EE5000
01DF65E002
08FC09F686
0EF607F400
3FF307D000
4FF10C8000
2FF35D1000
06DEA20000
ENDCHAR
STARTCHAR odieresis
ENCODING 246
SWIDTH 433 0
DWIDTH 7 0
BBX 10 11 -1 0
BITMAP
002E64E500
002D63D400
0000000000
0019EE5000
01DF65E002
08FC09F686
0EF607F400
3FF307D000
4FF10C8000
2FF35D1000
06DEA20000
ENDCHAR
STARTCHAR divide
ENCODING 247
SWIDTH 415 0
DWIDTH 7 0
BBX 7 8 0 1
BITMAP
001CD200
001EF300
00011000
3EEEEE50
00000000
008B1000
01FF6000
00BD2000
ENDCHAR
STARTCHAR oslash
ENCODING 248
SWIDTH 428 0
DWIDTH 7 0
BBX 9 9 -1 -1
BITMAP
0018DE7A30
00BF83F500
07FD05F300
0DF83DF200
2FF6C8E000
3FFD3B8000
1FF76D1000
0CEEA20000
9400000000
ENDCHAR
STARTCHAR ugrave
ENCODING 249
SWIDTH 505 0
DWIDTH 8 0
BBX 10 12 -1 0
BITMAP
0000DB0000
00009D0000
00004E1000
0000000000
01FF41FF40
03FF14FF10
07FD07FC00
0AFA0BF900
0DF60EF600
1FF43FF327
1FFABFFAC2
09EC39EC30
ENDCHAR
STARTCHAR uacute
ENCODING 250
SWIDTH 505 0
DWIDTH 8 0
BBX 10 12 -1 0
BITMAP
000001EA00
000007E100
00000D6000
0000000000
01FF41FF40
03FF14FF10
07FD07FC00
0AFA0BF900
0DF60EF600
1FF43FF327
1FFABFFAC2
09EC39EC30
ENDCHAR
STARTCHAR ucircumflex
ENCODING 251
SWIDTH 505 0
DWIDTH 8 0
BBX 10 12 -1 0
BITMAP
000003C000
00005EE300
0006923800
0000000000
01FF41FF40
03FF14FF10
07FD07FC00
0AFA0BF900
0DF60EF600
1FF43FF327
1FFABFFAC2
09EC39EC30
ENDCHAR
STARTCHAR udieresis
ENCODING 252
SWIDTH 505 0
DWIDTH 8 0
BBX 10 11 -1 0
BITMAP
0009D1BC00
0008C0AB00
0000000000
01FF41FF40
03FF14FF10
07FD07FC00
0AFA0BF900
0DF60EF600
1FF43FF327
1FFABFFAC2
09EC39EC30
ENDCHAR
STARTCHAR yacute
ENCODING 253
SWIDTH 505 0
DWIDTH 8 0
BBX 10 16 -1 -4
BITMAP
000001E900
000007E100
00000E5000
0000000000
01FF41FF40
03FF14FF10
07FD07FC00
0AFA0BF900
0DF60EF600
1FF44FF254
1FFADFE2A0
09ECBFEA10
002AFF8000
01C3EF4000
04B8FE0000
01BEC30000
ENDCHAR
STARTCHAR thorn
ENCODING 254
SWIDTH 473 0
DWIDTH 8 0
BBX 10 16 -2 -4
BITMAP
0001AC2000
0005FE0000
0008FA0000
000CF70000
000FFBDE60
003FF44FE0
006FC02FF1
00AF903FF0
00DF606FD0
01FF30CF70
04FF17FD10
08FDDEA100
0BF9000000
0EF5000000
2FF2000000
4A60000000
ENDCHAR
STARTCHAR ydieresis
ENCODING 255
SWIDTH 505 0
DWIDTH 8 0
BBX 10 15 -1 -4
BITMAP
000CA1D900
000BA1C800
0000000000
01FF41FF40
03FF14FF10
07FD07FC00
0AFA0BF900
0DF60EF600
1FF44FF254
1FFADFE2A0
09ECBFEA10
002AFF8000
01C3EF4000
04B8FE0000
01BEC30000
ENDCHAR
STARTCHAR Amacron
ENCODING 256
SWIDTH 668 0
DWIDTH 11 0
BBX 13 16 0 -2
BITMAP
0000000BEEEE60
00000000000000
00000001AED000
0000002DDFC000
000001D6AF9000
00000BA0DF6000
00006F21FF3000
19DEFE87FE0000
BE39F22BFB0000
7A2FA00BF80000
009F500EF50000
01EE003FF10000
05FA006FD00000
08F700AFA00000
09F50000000000
04D50000000000
ENDCHAR
STARTCHAR amacron
ENCODING 257
SWIDTH 526 0
DWIDTH 8 0
BBX 10 11 -1 0
BITMAP
0004EEEEC0
0000000000
0000000000
0019EDCF90
01CF71FF50
07FC02FF20
0DF705FE00
1FF409FB00
3FF30DF809
1FFAADFC96
06EE54ED70
ENDCHAR
STARTCHAR Abreve
ENCODING 258
SWIDTH 668 0
DWIDTH 11 0
BBX 14 17 0 -2
BITMAP
00000008E108E1
00000001ADC920
00000000000000
00000001AED000
0000002DDFC000
000001D6AF9000
00000BA0DF6000
00006F21FF3000
19DEFE87FE0000
BE39F22BFB0000
7A2FA00BF80000
009F500EF50000
01EE003FF10000
05FA006FD00000
08F700AFA00000
09F50000000000
04D50000000000
ENDCHAR
STARTCHAR abreve
ENCODING 259
SWIDTH 526 0
DWIDTH 8 0
BBX 10 12 -1 0
BITMAP
0008D004F2
0004F41C90
00008DD700
0000000000
0019EDCF90
01CF71FF50
07FC02FF20
0DF705FE00
1FF409FB00
3FF30DF809
1FFAADFC96
06EE54ED70
ENDCHAR
STARTCHAR Aogonek
ENCODING 260
SWIDTH 668 0
DWIDTH 11 0
BBX 11 15 0 -3
BITMAP
00000001AED0
0000002DDFC0
000001D6AF90
00000BA0DF60
00006F21FF30
19DEFE87FE00
BE39F22BFB00
7A2FA00BF800
009F400EF500
01FE003FF100
05FA006FD000
09F600AFA000
09F500870000
019402F43000
000001CD4000
ENDCHAR
STARTCHAR aogonek
ENCODING 261
SWIDTH 526 0
DWIDTH 8 0
BBX 10 11 -1 -3
BITMAP
0019EDCF90
01CF81FF60
07FD02FF30
0DF805FF00
1FF408FC00
3FF30BF905
1FF53FF927
06EE87EF90
000000C500
000005F130
000002DC30
ENDCHAR
STARTCHAR Cacute
ENCODING 262
SWIDTH 497 0
DWIDTH 8 0
BBX 9 16 0 0
BITMAP
0000006F30
000000D800
000006D100
0000000000
0004CEE900
006FE40D60
03FF700D80
0AFE103C30
1FF9000000
5FF5000000
8FF2000000
AFF0000000
AFF0000000
9FF1000220
4FF8005900
05CEDB5000
ENDCHAR
STARTCHAR cacute
ENCODING 263
SWIDTH 384 0
DWIDTH 6 0
BBX 8 12 -1 0
BITMAP
000000DB
000005F2
00000C80
00000200
0019DE60
00CF76D0
07FD0570
0DF80000
1FF40000
3FF30014
1FF50390
05DEC600
ENDCHAR
STARTCHAR Ccircumflex
ENCODING 264
SWIDTH 497 0
DWIDTH 8 0
BBX 9 16 0 0
BITMAP
000002C200
00003DE700
0004A31A00
0000000000
0004CEE900
006FE40D60
03FF700D80
0AFE103C30
1FF9000000
5FF5000000
8FF2000000
AFF0000000
AFF0000000
9FF1000220
4FF8005900
05CEDB5000
ENDCHAR
STARTCHAR ccircumflex
ENCODING 265
SWIDTH 384 0
DWIDTH 6 0
BBX 8 12 -1 0
BITMAP
00000790
00008ED0
00089193
00010001
0019DE60
00CF76D0
07FD0570
0DF80000
1FF40000
3FF30014
1FF50390
05DEC600
ENDCHAR
STARTCHAR Cdotaccent
ENCODING 266
SWIDTH 497 0
DWIDTH 8 0
BBX 9 16 0 0
BITMAP
0000001100
000001EF40
000000CE30
0000000000
0004CEE900
006FE40D60
03FF700D80
0AFE103C30
1FF9000000
5FF5000000
8FF2000000
AFF0000000
AFF0000000
9FF1000220
4FF8005900
05CEDB5000
ENDCHAR
STARTCHAR cdotaccent
ENCODING 267
SWIDTH 384 0
DWIDTH 6 0
BBX 8 12 -1 0
BITMAP
00003E90
00007FF0
00002B70
00000000
0019DE60
00CF76D0
07FD0570
0DF80000
1FF40000
3FF30014
1FF50390
05DEC600
ENDCHAR
STARTCHAR Ccaron
ENCODING 268
SWIDTH 497 0
DWIDTH 8 0
BBX 10 16 0 0
BITMAP
0000380691
00000DDA00
0000088000
0000000000
0004CEE900
006FE40D60
03FF700D80
0AFE103C30
1FF9000000
5FF5000000
8FF2000000
AFF0000000
AFF0000000
9FF1000220
4FF8005900
05CEDB5000
ENDCHAR
STARTCHAR ccaron
ENCODING 269
SWIDTH 384 0
DWIDTH 6 0
BBX 9 12 -1 0
BITMAP
0000912A50
00006DE400
00002E3000
0000010000
0019DE7000
00CF76C000
07FC045000
0DF7000000
1FF4000000
3FF3004400
1FF9599000
05DEC50000
ENDCHAR
STARTCHAR Dcaron
ENCODING 270
SWIDTH 663 0
DWIDTH 11 0
BBX 11 16 0 0
BITMAP
00001A05A100
00000BDB1000
000006900000
000000000000
0018CEEC5000
05E8332BF600
4F66FD02FE00
BC09FA00EF30
D90DF700EF40
791FF400FF30
004FF102FF20
008FC005FD00
00BF900AF800
00EF602FE100
03FF41BF5000
06FEBED60000
ENDCHAR
STARTCHAR dcaron
ENCODING 271
SWIDTH 525 0
DWIDTH 8 0
BBX 12 12 -1 0
BITMAP
0000000000CB
0000001CE4BC
0000004FF194
0000008FD020
0019EDCF9000
01CF81FF6000
07FD02FF3000
0DF805FF0000
1FF408FC0000
3FF30BF90400
1FF53FF82700
06ED97EE8000
ENDCHAR
STARTCHAR Dcroat
ENCODING 272
SWIDTH 663 0
DWIDTH 11 0
BBX 11 12 0 0
BITMAP
0028DEEC6000
07E74419F800
6F37FD01FF10
CB0AF900EF40
B90EF500EF40
13BFFE50FF30
006FD002FF10
009FA005FD00
00CF800AF800
00FF502FE100
03FF41BF6000
06FEBED60000
ENDCHAR
STARTCHAR dcroat
ENCODING 273
SWIDTH 525 0
DWIDTH 8 0
BBX 11 12 -1 0
BITMAP
000000024200
0000002FF200
00000BFFFE30
0000008FC000
0019EDCF9000
01CF81FF6000
07FD02FF3000
0DF805FE0000
1FF408FC0000
3FF30BF90400
1FF53FF82700
06ED97EE8000
ENDCHAR
STARTCHAR Emacron
ENCODING 274
SWIDTH 459 0
DWIDTH 7 0
BBX 9 15 0 0
BITMAP
0004EEEEC0
0000000000
0000000000
0003CEC300
003FC17C00
00AF408C00
00DF309400
00AF700000
005FE40000
09FE300000
5FF6000000
BFF1000000
DFE0000400
9FF4038100
1AEEC71000
ENDCHAR
STARTCHAR emacron
ENCODING 275
SWIDTH 384 0
DWIDTH 6 0
BBX 8 11 -1 0
BITMAP
008EEEE8
00000000
00000000
0019DE60
00CF76D0
07FC09A0
0DF77E30
1FFEA300
3FF30014
1FF50490
05DEC600
ENDCHAR
STARTCHAR Ebreve
ENCODING 276
SWIDTH 459 0
DWIDTH 7 0
BBX 10 16 0 0
BITMAP
0003700182
0004F408D1
00007DD910
0000000000
0003CEC300
003FC17C00
00AF408C00
00DF309400
00AF700000
005FE40000
09FE300000
5FF6000000
BFF1000000
DFE0000400
9FF4038100
1AEEC71000
ENDCHAR
STARTCHAR ebreve
ENCODING 277
SWIDTH 384 0
DWIDTH 6 0
BBX 8 12 -1 0
BITMAP
00CA008D
008E13E5
001ADC50
00000000
0019DE60
00CF76D0
07FC09A0
0DF77E30
1FFEA300
3FF30014
1FF50490
05DEC600
ENDCHAR
STARTCHAR Edotaccent
ENCODING 278
SWIDTH 459 0
DWIDTH 7 0
BBX 8 16 0 0
BITMAP
00000020
00000AF8
000008E6
00000000
0003CEC3
003FC17C
00AF408C
00DF3094
00AF7000
005FE400
09FE3000
5FF60000
BFF10000
DFE00004
9FF40381
1AEEC710
ENDCHAR
STARTCHAR edotaccent
ENCODING 279
SWIDTH 384 0
DWIDTH 6 0
BBX 8 12 -1 0
BITMAP
00004E80
00008FE0
00003C60
00000000
0019DE60
00CF76D0
07FC09A0
0DF77E30
1FFEA300
3FF30014
1FF50490
05DEC600
ENDCHAR
STARTCHAR Eogonek
ENCODING 280
SWIDTH 459 0
DWIDTH 7 0
BBX 8 15 0 -3
BITMAP
003BEEB2
02EF508C
07FB007E
06FC0097
01EF6000
007FF500
1CFD2000
8FF40000
CFF00000
BFF40016
6FFE77B2
06DFEC10
0001C100
0006E120
0003DB20
ENDCHAR
STARTCHAR eogonek
ENCODING 281
SWIDTH 384 0
DWIDTH 6 0
BBX 8 11 -1 -3
BITMAP
0019DE60
00CF76D0
07FC09A0
0DF77E30
1FFEA300
3FF30024
1FF847A0
05DFF800
00087000
001F5300
000BD500
ENDCHAR
STARTCHAR Ecaron
ENCODING 282
SWIDTH 459 0
DWIDTH 7 0
BBX 10 16 0 0
BITMAP
00001A05A1
00000BDB10
0000069000
0000000000
0003CEC300
003FC17C00
00AF408C00
00DF309400
00AF700000
005FE40000
09FE300000
5FF6000000
BFF1000000
DFE0000400
9FF4038100
1AEEC71000
ENDCHAR
STARTCHAR ecaron
ENCODING 283
SWIDTH 384 0
DWIDTH 6 0
BBX 9 12 -1 0
BITMAP
0000A13A40
00007DE300
00002E3000
0000010000
0019DE7000
00CF76D000
07FD09A000
0DF76E2000
1FFC920000
3FF3002400
1FF6048000
05DEC60000
ENDCHAR
STARTCHAR Gcircumflex
ENCODING 284
SWIDTH 578 0
DWIDTH 9 0
BBX 9 19 0 -3
BITMAP
0000003C00
000004EE30
00005A3470
0000100010
0005BEEC50
00AFD409F0
09FE200CC0
2FF7000000
7FF2000100
AFD0005F90
AFC0009F60
8FD001EF30
2FF51AFE00
04CEC8FB00
000007F800
02CD5BF400
0CA13FD000
0CA08F5000
03BED60000
ENDCHAR
STARTCHAR gcircumflex
ENCODING 285
SWIDTH 507 0
DWIDTH 8 0
BBX 10 16 -1 -4
BITMAP
000000A600
00001BEA00
0001A61B10
0001000000
0019EDCF90
01CF81FF60
07FD02FF20
0DF805FE00
1FF408FB00
3FF30BF804
1FF53FF565
06EEBFFA80
0004BFE200
0088AFA000
00D1EF5000
007ED70000
ENDCHAR
STARTCHAR Gbreve
ENCODING 286
SWIDTH 578 0
DWIDTH 9 0
BBX 11 18 0 -3
BITMAP
00006F207E20
000019DCA300
000000000000
0005BEEB3000
00AFD409D000
09FE2009F100
2FF7000B9000
7FF200000000
AFD000275000
AFC0007F8000
8FD000DF4000
2FF519FF1000
04CEC8FC0000
000007F90000
02CD5BF50000
0CA13FE00000
0CA08F600000
03BED6000000
ENDCHAR
STARTCHAR gbreve
ENCODING 287
SWIDTH 507 0
DWIDTH 8 0
BBX 10 16 -1 -4
BITMAP
0008D004F2
0004F41C90
00008DD700
0000000000
0019EDCF90
01CF81FF60
07FD02FF20
0DF805FE00
1FF408FB00
3FF30BF804
1FF53FF565
06EEBFFA80
0004BFE200
0088AFA000
00D1EF5000
007ED70000
ENDCHAR
STARTCHAR Gdotaccent
ENCODING 288
SWIDTH 578 0
DWIDTH 9 0
BBX 10 19 0 -3
BITMAP
0000002000
000006FB00
000005EA00
0000000000
0005BEEB30
00AFD409D0
09FE2009F1
2FF7000B90
7FF2000000
AFD0002750
AFC0007F80
8FD000DF40
2FF519FF10
04CEC8FC00
000007F900
02CD5BF500
0CA13FE000
0CA08F6000
03BED60000
ENDCHAR
STARTCHAR gdotaccent
ENCODING 289
SWIDTH 507 0
DWIDTH 8 0
BBX 10 16 -1 -4
BITMAP
000007E500
00000CFA00
000005C400
0000000000
0019EDCF90
01CF81FF60
07FD02FF20
0DF805FE00
1FF408FB00
3FF30BF804
1FF53FF565
06EEBFFA80
0004BFE200
0088AFA000
00D1EF5000
007ED70000
ENDCHAR
STARTCHAR Gcommaaccent
ENCODING 290
SWIDTH 578 0
DWIDTH 9 0
BBX 9 16 0 -4
BITMAP
0004BEE700
005FE34F40
04FF504F60
0CFC005910
4FF6000000
9FF2000000
CFD0007F70
DFC000AF40
CFC000EF10
AFD006FC00
4FF43EF900
07EEACF600
0000000000
0009B00000
0006C00000
0006200000
ENDCHAR
STARTCHAR gcommaaccent
ENCODING 291
SWIDTH 507 0
DWIDTH 8 0
BBX 10 16 -1 -4
BITMAP
0000017000
0000099000
000009C000
0000000000
0019EDCF90
01CF81FF60
07FD02FF20
0DF805FE00
1FF408FB00
3FF30BF804
1FF53FF565
06EEBFFA80
0004BFE200
0088AFA000
00D1EF5000
007ED70000
ENDCHAR
STARTCHAR Hcircumflex
ENCODING 292
SWIDTH 665 0
DWIDTH 11 0
BBX 11 16 0 0
BITMAP
000000004200
00000008F800
000002962A00
000000000000
0017CE505FF0
04EAFF208FC0
2E75FE00BF90
AE08FB00EF50
CB0CF802FF20
590FFFFFFE00
003FF43AFB00
006FD00BF800
00AFA00EF500
00DF703FF100
01FF406FD000
04FF10AFA000
ENDCHAR
STARTCHAR hcircumflex
ENCODING 293
SWIDTH 505 0
DWIDTH 8 0
BBX 10 15 -1 0
BITMAP
0000050000
0001BE0000
002C8A4000
0051014000
004CD00000
008FB00000
00CF700000
00EFBEE500
03FF47FC00
06FC07FC00
0AF90AFA00
0DF60DF700
1FF31FF305
4FF01FF373
8FC008ED50
ENDCHAR
STARTCHAR Hbar
ENCODING 294
SWIDTH 665 0
DWIDTH 11 0
BBX 12 12 0 0
BITMAP
0017CE505FF0
04D9FF208FC0
3F55FE00BF90
AD3EFECCFFD9
BB0CF802FF30
380FFFEFFE00
003FF109FB00
006FD00CF800
00AFA00FF500
00DF703FF100
01FF307FD000
04FF00AFA000
ENDCHAR
STARTCHAR hbar
ENCODING 295
SWIDTH 505 0
DWIDTH 8 0
BBX 10 12 -1 0
BITMAP
0003500000
006FD00000
0AFFFE3000
00CF700000
01FFBEE500
04FF47FC00
07FC07FC00
0AF90AFA00
0DF60DF700
1FF31FF305
4FF01FF373
8FC008ED50
ENDCHAR
STARTCHAR Itilde
ENCODING 296
SWIDTH 375 0
DWIDTH 6 0
BBX 9 15 0 0
BITMAP
0004763110
0058BEE910
0000000000
0018DF4000
05D9FF1000
4F37FD0000
BB0AF90000
D90DF60000
462FF30000
005FE00000
008FC00000
00BF800000
00EF500000
03FF200000
06FE000000
ENDCHAR
STARTCHAR itilde
ENCODING 297
SWIDTH 267 0
DWIDTH 4 0
BBX 6 11 -1 0
BITMAP
02DE95
045BA1
000000
01FF40
03FF10
07FD00
0AFA00
0DF600
1FF319
1FFAC4
09EC50
ENDCHAR
STARTCHAR Imacron
ENCODING 298
SWIDTH 375 0
DWIDTH 6 0
BBX 8 14 0 0
BITMAP
006EEEEA
00000000
0018DF40
05D9FF10
4F37FD00
BB0AF900
D90DF600
462FF300
005FE000
008FC000
00BF8000
00EF5000
03FF2000
06FE0000
ENDCHAR
STARTCHAR imacron
ENCODING 299
SWIDTH 267 0
DWIDTH 4 0
BBX 6 11 -1 0
BITMAP
08EEE9
000000
000000
01FF40
03FF10
07FD00
0AFA00
0DF600
1FF319
1FFAC4
09EC50
ENDCHAR
STARTCHAR Ibreve
ENCODING 300
SWIDTH 375 0
DWIDTH 6 0
BBX 9 15 0 0
BITMAP
002F603E50
0007DDB500
0000000000
0018DF4000
05D9FF1000
4F37FD0000
BB0AF90000
D90DF60000
462FF30000
005FE00000
008FC00000
00BF800000
00EF500000
03FF200000
06FE000000
ENDCHAR
STARTCHAR ibreve
ENCODING 301
SWIDTH 267 0
DWIDTH 4 0
BBX 7 12 -1 0
BITMAP
06B00E30
03E17C00
008DA100
00000000
01FF4000
03FF1000
07FD0000
0AFA0000
0DF60000
1FF31900
1FFAC400
09EC5000
ENDCHAR
STARTCHAR Iogonek
ENCODING 302
SWIDTH 375 0
DWIDTH 6 0
BBX 7 19 0 -3
BITMAP
002F7000
000CA000
0007C000
00000000
0018DF40
05D9FF10
4F37FD00
BB0AF900
D90DF600
462FF300
005FE000
008FC000
00BF8000
00EF5000
03FF2000
06FE0000
07800000
0F713000
09EB1000
ENDCHAR
STARTCHAR iogonek
ENCODING 303
SWIDTH 267 0
DWIDTH 4 0
BBX 6 14 -1 -3
BITMAP
004E80
008FE0
003C60
00FF40
03FF10
07FD00
0AFA00
0DF600
1FF319
1FFAC4
0AFC50
3C0000
AC1400
4DD500
ENDCHAR
STARTCHAR Idotaccent
ENCODING 304
SWIDTH 375 0
DWIDTH 6 0
BBX 7 16 0 0
BITMAP
00000100
00006FC0
00004EA0
00000000
0018DF40
05D9FF10
4F37FD00
BB0AF900
D90DF600
462FF300
005FE000
008FC000
00BF8000
00EF5000
03FF2000
06FE0000
ENDCHAR
STARTCHAR dotlessi
ENCODING 305
SWIDTH 267 0
DWIDTH 4 0
BBX 6 8 -1 0
BITMAP
01FF40
03FF10
07FD00
0AFA00
0DF600
1FF319
1FFAC4
09EC50
ENDCHAR
STARTCHAR IJ
ENCODING 306
SWIDTH 663 0
DWIDTH 11 0
BBX 11 15 0 -3
BITMAP
0018DF406B90
05D9FF10DF70
4F37FD01FF30
BB0AF905FF00
D90DF608FC00
462FF30BF900
005FE00EF500
008FC03FF200
00BF807FE000
00EF50AFB000
03FF20DF8000
06FFB2FF4000
01F626FD0000
01F51CF50000
006DEC600000
ENDCHAR
STARTCHAR ij
ENCODING 307
SWIDTH 507 0
DWIDTH 8 0
BBX 10 15 -1 -4
BITMAP
004E802DA0
008FE06FF1
003C601B80
01FF40BF90
03FF10EF50
07FD02FF20
0AFA06FE00
0DF609FB00
1FF30CF718
1FFA3FF493
09EB4FFB40
0007DFD000
0096AFA000
00D5FF4000
007ED60000
ENDCHAR
STARTCHAR Jcircumflex
ENCODING 308
SWIDTH 536 0
DWIDTH 9 0
BBX 11 19 0 -3
BITMAP
000000009700
0000001BEB00
000001A60A10
000000000000
0000029DF200
00006DAFE000
0005F38FB000
000DA0CF7000
000E81FF4000
000664FF1000
000007FD0000
00000BF90000
00000EF60000
00003FF30000
00006FE00000
2CE8AFB00000
AC12DF600000
9C16FC000000
2BED91000000
ENDCHAR
STARTCHAR jcircumflex
ENCODING 309
SWIDTH 240 0
DWIDTH 4 0
BBX 9 16 -4 -4
BITMAP
0000005A00
000007EE10
0000881650
0000000000
00000FF500
00003FF100
00006FD000
0000AFA000
0000DF7000
0001FF4340
0004FF1910
0007FE8300
019EFA0000
0D8EF60000
3B3FE10000
0AEC400000
ENDCHAR
STARTCHAR Kcommaaccent
ENCODING 310
SWIDTH 601 0
DWIDTH 10 0
BBX 11 16 0 -4
BITMAP
0028DF407F30
05D9FF13F500
4F37FC1D7000
CB0AF9A90000
D90DFCB00000
362FFDDB2000
005FE08FA000
008FB07FA000
00BF80BF7000
00EF50EF3000
03FF23FF0000
06FE02EF2000
000053000000
0000DA000000
000084000000
000020000000
ENDCHAR
STARTCHAR kcommaaccent
ENCODING 311
SWIDTH 518 0
DWIDTH 8 0
BBX 10 16 -1 -4
BITMAP
0000100000
005EE00000
009FB00000
00CF800000
00FF409B20
03FF3B7000
06FFEEA100
0AFE9EF800
0DF70BF900
1FF30EF608
4FF10EFBA5
8FC006EE60
0000000000
0009B00000
0006B00000
0006200000
ENDCHAR
STARTCHAR kgreenlandic
ENCODING 312
SWIDTH 518 0
DWIDTH 8 0
BBX 10 8 -1 0
BITMAP
00FF409B20
03FF3B7000
07FFEEA100
0AFE9EF800
0DF70BF900
1FF30EF608
4FF10EFBA5
8FC006EE60
ENDCHAR
STARTCHAR Lacute
ENCODING 313
SWIDTH 379 0
DWIDTH 6 0
BBX 11 20 0 -4
BITMAP
000000660000
000002F60000
00000AB00000
000007200000
0028DF400000
06D8FF100000
5F27FC000000
CB0BF9000000
C90EF6000000
352FF2000000
005FE0000000
009FB0000000
00CF80000000
00FF40000000
03FF10000000
07FF60000000
0028FC300000
00003DFA4330
000001BFFF60
00000008EB10
ENDCHAR
STARTCHAR lacute
ENCODING 314
SWIDTH 267 0
DWIDTH 4 0
BBX 7 15 -1 0
BITMAP
00004F50
0000BB00
0003E200
00002000
005FE000
009FB000
00CF7000
01FF4000
03FF1000
07FD0000
0AFA0000
0DF60000
1FF31A00
1FFAB300
09EC4000
ENDCHAR
STARTCHAR Lcommaaccent
ENCODING 315
SWIDTH 379 0
DWIDTH 6 0
BBX 11 16 0 -4
BITMAP
0028DF400000
06D8FF100000
5F27FC000000
CB0BF9000000
C90EF6000000
352FF2000000
005FE0000000
009FB0000000
00CF80000000
00FF40000000
03FF10000000
07FF60000000
0028FC300000
09D03DFA4330
06C001BFFF60
06300008EB10
ENDCHAR
STARTCHAR lcommaaccent
ENCODING 316
SWIDTH 267 0
DWIDTH 4 0
BBX 6 16 -1 -4
BITMAP
000020
005FE0
009FB0
00CF70
01FF40
03FF10
07FD00
0AFA00
0DF600
1FF31A
1FFAB3
09EC40
000000
0C8000
099000
071000
ENDCHAR
STARTCHAR Lcaron
ENCODING 317
SWIDTH 379 0
DWIDTH 6 0
BBX 11 20 0 -4
BITMAP
000032016000
00002C7D3000
00000CD20000
000004100000
0028DF400000
06D8FF100000
5F27FC000000
CB0BF9000000
C90EF6000000
352FF2000000
005FE0000000
009FB0000000
00CF80000000
00FF40000000
03FF10000000
07FF60000000
0028FC300000
00003DFA4330
000001BFFF60
00000008EB10
ENDCHAR
STARTCHAR lcaron
ENCODING 318
SWIDTH 267 0
DWIDTH 4 0
BBX 8 12 -1 0
BITMAP
000005E4
004BD3F5
008FB2B0
00BF8210
00EF5000
03FF1000
06FD0000
0AFA0000
0DF60000
1FF31900
1FFAC400
09EC5000
ENDCHAR
STARTCHAR Ldot
ENCODING 319
SWIDTH 605 0
DWIDTH 10 0
BBX 11 16 0 -4
BITMAP
0018CF400000
04DAFF100000
3E57FC000000
AC0AF9000000
DA0DF6000000
992FF3000000
015FE0000000
008FB03E8000
00CF808FE000
00FF502C6000
03FF20000000
07FF30000000
0028FB200000
00003DF94330
000001BFFF60
00000008EB10
ENDCHAR
STARTCHAR ldot
ENCODING 320
SWIDTH 353 0
DWIDTH 6 0
BBX 7 11 -1 0
BITMAP
0039B000
008FC000
00BF9000
00EF6000
03FF3100
06FE5F50
0AFB4E50
0DF80000
1FF50000
1FF40000
09EC2000
ENDCHAR
STARTCHAR Lslash
ENCODING 321
SWIDTH 392 0
DWIDTH 6 0
BBX 11 16 0 -4
BITMAP
0028DF400000
06D8FF100000
5F27FC000000
CB0AF9740000
C90EFE700000
352FF3000000
02CFE0000000
03AFB0000000
00CF80000000
00FF40000000
03FF10000000
07FF60000000
0028FC300000
00003DF94330
000001BFFF60
00000008EB10
ENDCHAR
STARTCHAR lslash
ENCODING 322
SWIDTH 286 0
DWIDTH 5 0
BBX 7 12 -1 0
BITMAP
00002000
005FE000
009FB000
00CF8310
01FFCB10
03FF5000
1BFD0000
6DFA0000
0DF60000
1FF31A00
1FFAB300
08EC4000
ENDCHAR
STARTCHAR Nacute
ENCODING 323
SWIDTH 702 0
DWIDTH 11 0
BBX 12 16 0 0
BITMAP
000000000670
000000003F50
00000000C800
000000000000
006CEE4002F6
0AD7FF8006F2
7F26FFB009E0
CB0AFFE00CB0
DA0DCFF30F80
5B1F7DF63F40
005F49F96F10
008F16FD9D00
00BC02FFDA00
00E800EFF600
03F500AFF300
06F1007FE000
ENDCHAR
STARTCHAR nacute
ENCODING 324
SWIDTH 505 0
DWIDTH 8 0
BBX 10 12 -1 0
BITMAP
0000008E10
000001E600
000008B000
0000000000
00FFBEE500
03FF47FC00
07FC07FC00
0AF90AF900
0DF60DF500
1FF31FF228
4FF01FF9B2
8FC008ED40
ENDCHAR
STARTCHAR Ncommaaccent
ENCODING 325
SWIDTH 668 0
DWIDTH 11 0
BBX 12 16 0 -4
BITMAP
006CEE4002F6
0AD7FF8006F2
7F26FFB009E0
CB0AFFE00CB0
DA0DCFF30F80
5B1F7DF63F40
005F49F96F10
008F16FD9D00
00BC02FFDA00
00E800EFF600
03F500AFF300
06F1007FE000
000000000000
0000D7000000
0000A7000000
000070000000
ENDCHAR
STARTCHAR ncommaaccent
ENCODING 326
SWIDTH 505 0
DWIDTH 8 0
BBX 10 12 -1 -4
BITMAP
00FFBEE500
03FF47FC00
07FC07FC00
0AF90AFA00
0DF60DF700
1FF31FF305
4FF01FF373
8FC008ED50
0000000000
002E400000
000D400000
0017000000
ENDCHAR
STARTCHAR Ncaron
ENCODING 327
SWIDTH 668 0
DWIDTH 11 0
BBX 12 16 0 0
BITMAP
000000050043
000000089C60
00000003D300
000000000000
006CEE4002F6
0AD7FF8006F2
7F26FFB009E0
CB0AFFE00CB0
DA0DCFF30F80
5B1F7DF63F40
005F49F96F10
008F16FD9D00
00BC02FFDA00
00E800EFF600
03F500AFF300
06F1007FE000
ENDCHAR
STARTCHAR ncaron
ENCODING 328
SWIDTH 505 0
DWIDTH 8 0
BBX 10 12 -1 0
BITMAP
0001A05A20
0000ADC100
00005A1000
0000000000
00FFBEE500
03FF47FC00
07FC07FC00
0AF90AFA00
0DF60DF700
1FF31FF305
4FF01FF373
8FC008ED50
ENDCHAR
STARTCHAR napostrophe
ENCODING 329
SWIDTH 505 0
DWIDTH 8 0
BBX 10 12 -1 0
BITMAP
04E5000000
02E6000000
01B1000000
0110000000
00FFBEE500
03FF47FC00
07FC07FC00
0AF90AFA00
0DF60DF700
1FF31FF305
4FF01FF373
8FC008ED50
ENDCHAR
STARTCHAR Eng
ENCODING 330
SWIDTH 723 0
DWIDTH 12 0
BBX 13 16 0 -4
BITMAP
0017CFE1005F40
01DCAFF4008F10
0BD1AFF800CC00
1F80DFFB00F900
2F61FCFE03F500
0885F5FF26F200
0008E0CF6AE000
000CB08F9DB000
000F804FDF7000
004F401FFF4000
007F100BFF1000
00BD0007FC0000
0000A507F80000
0002F40AF20000
0001E43F800000
00005CC7000000
ENDCHAR
STARTCHAR eng
ENCODING 331
SWIDTH 505 0
DWIDTH 8 0
BBX 8 12 -1 -4
BITMAP
01FF9DE5
04FFABFA
07FD07FA
0AFA0AF8
0DF60CF6
1FF31FF3
5FF04FE0
8FC07FB0
0018EF80
0091EF40
0365FD00
00AEC300
ENDCHAR
STARTCHAR Omacron
ENCODING 332
SWIDTH 665 0
DWIDTH 11 0
BBX 11 15 0 0
BITMAP
00008EEEE800
000000000000
000000000000
0005ADEEA200
02CC5644FC00
1DA2DE20BF40
8E1BF700AF60
BC4FF100AF70
48AFB000CF50
00EF6001FF20
02FF3006FD00
03FF200CF600
03FF205FC100
00EF96EE2000
003CFE920000
ENDCHAR
STARTCHAR omacron
ENCODING 333
SWIDTH 433 0
DWIDTH 7 0
BBX 10 11 -1 0
BITMAP
005EEEEB00
0000000000
0000000000
0019EE5000
01DF65E002
08FC09F686
0EF607F400
3FF307D000
4FF10C8000
2FF35D1000
06DEA20000
ENDCHAR
STARTCHAR Obreve
ENCODING 334
SWIDTH 665 0
DWIDTH 11 0
BBX 11 15 0 0
BITMAP
00001F802D70
000005CDB500
000000000000
0005ADEEA200
02CC5644FC00
1DA2DE20BF40
8E1BF700AF60
BC4FF100AF70
48AFB000CF50
00EF6001FF20
02FF3006FD00
03FF200CF600
03FF205FC100
00EF96EE2000
003CFE920000
ENDCHAR
STARTCHAR obreve
ENCODING 335
SWIDTH 433 0
DWIDTH 7 0
BBX 10 12 -1 0
BITMAP
004F300F60
001E808D10
0005CD9100
0000000000
0019EE5000
01DF65E002
08FC09F686
0EF607F400
3FF307D000
4FF10C8000
2FF35D1000
06DEA20000
ENDCHAR
STARTCHAR Ohungarumlaut
ENCODING 336
SWIDTH 665 0
DWIDTH 11 0
BBX 12 16 0 0
BITMAP
0000000CA4F4
0000005D1B80
000000C33C00
000000000000
0005ADEEA200
02CC5644FC00
1DA2DE20BF40
8E1BF700AF60
BC4FF100AF70
48AFB000CF50
00EF6001FF20
02FF3006FD00
03FF200CF600
03FF205FC100
00EF96EE2000
003CFE920000
ENDCHAR
STARTCHAR ohungarumlaut
ENCODING 337
SWIDTH 433 0
DWIDTH 7 0
BBX 10 12 -1 0
BITMAP
00008E2E90
0001E46C10
000770C200
0000000000
0019EE5000
01DF65E002
08FC09F686
0EF607F400
3FF307D000
4FF10C8000
2FF35D1000
06DEA20000
ENDCHAR
STARTCHAR OE
ENCODING 338
SWIDTH 846 0
DWIDTH 14 0
BBX 15 12 0 0
BITMAP
0005ADEEDEFFFF70
03DB6854FE8ACA10
2E82EE10BF400000
9E1CF700AF700000
AB5FE100AF700000
14AFB000CFFF6000
00EF7001FF331000
02FF4004FB000000
04FF200AF6000000
03FF203FD0000000
00EF52DFDAAA2000
003CFFFFFFFF0000
ENDCHAR
STARTCHAR oe
ENCODING 339
SWIDTH 663 0
DWIDTH 11 0
BBX 13 8 -1 0
BITMAP
002AEE54CEC200
01DF45EEF38700
08FA0AFFA09500
0DF50AFF449000
0FF205FF640000
1FF109FD000730
0EF32EFF539600
05DEB49EEB4000
ENDCHAR
STARTCHAR Racute
ENCODING 340
SWIDTH 601 0
DWIDTH 10 0
BBX 10 16 0 0
BITMAP
0000000DB0
0000006E20
000000D600
0000000000
0028DEEB30
05E8441BE1
4F46FD06F5
CC0AF909F2
D90DF66F60
461FFFFE40
005FF09FA0
008FC07FA0
00BF80BF70
00EF50EF30
03FF23FF00
06FE02EF20
ENDCHAR
STARTCHAR racute
ENCODING 341
SWIDTH 376 0
DWIDTH 6 0
BBX 8 12 -1 0
BITMAP
000008E2
00001E70
00007C00
00000000
00FF9DD1
03FF7AE2
07FC0010
0AF90000
0DF60000
1FF30000
4FF00000
8FC00000
ENDCHAR
STARTCHAR Rcommaaccent
ENCODING 342
SWIDTH 601 0
DWIDTH 10 0
BBX 10 16 0 -4
BITMAP
0028DEEB30
05E8441BE1
4F46FD06F5
CC0AF909F2
D90DF66F60
461FFFFE40
005FF09FA0
008FC07FA0
00BF80BF70
00EF50EF30
03FF23FF00
06FE02EF20
0001610000
0003F50000
0000B10000
0001100000
ENDCHAR
STARTCHAR rcommaaccent
ENCODING 343
SWIDTH 376 0
DWIDTH 6 0
BBX 8 12 -1 -4
BITMAP
00FF9DD1
03FF7AE2
07FC0010
0AF90000
0DF60000
1FF30000
4FF00000
8FC00000
00000000
02E40000
01D40000
01700000
ENDCHAR
STARTCHAR Rcaron
ENCODING 344
SWIDTH 601 0
DWIDTH 10 0
BBX 10 16 0 0
BITMAP
0000056188
000001EE70
000000A600
0000000000
0028DEEB30
05E8441BE1
4F46FD06F5
CC0AF909F2
D90DF66F60
461FFFFE40
005FF09FA0
008FC07FA0
00BF80BF70
00EF50EF30
03FF23FF00
06FE02EF20
ENDCHAR
STARTCHAR rcaron
ENCODING 345
SWIDTH 376 0
DWIDTH 6 0
BBX 8 12 -1 0
BITMAP
000A14A3
0008DD20
0003C100
00000000
00FF9DD1
03FF7AE2
07FC0010
0AF90000
0DF60000
1FF30000
4FF00000
8FC00000
ENDCHAR
STARTCHAR Sacute
ENCODING 346
SWIDTH 570 0
DWIDTH 9 0
BBX 9 16 0 0
BITMAP
0000001E80
0000008D00
000001E400
0000000000
0003BEEA10
003FE31DA0
008FB00CC0
007FE12B50
001EFC1000
0004FFA000
00106FF800
09FD1AFF10
4FB104FF30
6F6004FE10
2FC33DF700
04CEEB5000
ENDCHAR
STARTCHAR sacute
ENCODING 347
SWIDTH 382 0
DWIDTH 6 0
BBX 8 12 -1 0
BITMAP
000006F4
00000D90
00005E10
00014400
000DFB00
004FFB00
00AAFC00
02A7FD00
0A45FF00
6F55FF44
6809FE60
1AEE9100
ENDCHAR
STARTCHAR Scircumflex
ENCODING 348
SWIDTH 570 0
DWIDTH 9 0
BBX 9 16 0 0
BITMAP
0000004C00
000005EE30
0000692370
0000000000
0003BEEA10
003FE31DA0
008FB00CC0
007FE12B50
001EFC1000
0004FFA000
00106FF800
09FD1AFF10
4FB104FF30
6F6004FE10
2FC33DF700
04CEEB5000
ENDCHAR
STARTCHAR scircumflex
ENCODING 349
SWIDTH 382 0
DWIDTH 6 0
BBX 8 12 -1 0
BITMAP
00003D00
0003EE40
004A3390
00113310
000DFB00
004FFB00
00AAFC00
02A7FD00
0A45FF00
6F55FF44
6809FE60
1AEE9100
ENDCHAR
STARTCHAR Scedilla
ENCODING 350
SWIDTH 570 0
DWIDTH 9 0
BBX 9 16 0 -4
BITMAP
0003BEEA10
003EE31DA0
008FB00CC0
007FE12B50
002EFB0000
0005FFA000
00007FF700
08FC1BFE10
4FC204FF30
6F6004FF10
2FA11BF700
05CEFC6000
0009410000
000BED0000
0030AD0000
004DD30000
ENDCHAR
STARTCHAR scedilla
ENCODING 351
SWIDTH 382 0
DWIDTH 6 0
BBX 8 12 -1 -4
BITMAP
000AEA00
003FFB00
008BFC00
01B7FD00
0956FE00
5F65FF13
6B18FE60
1ADEA200
00A00000
04EE4000
032F7000
09EA1000
ENDCHAR
STARTCHAR Scaron
ENCODING 352
SWIDTH 570 0
DWIDTH 9 0
BBX 10 16 0 0
BITMAP
0000047179
000000EE80
000000A600
0000000000
0003BEEA10
003FE31DA0
008FB00CC0
007FE12B50
001EFC1000
0004FFA000
00106FF800
09FD1AFF10
4FB104FF30
6F6004FE10
2FC33DF700
04CEEB5000
ENDCHAR
STARTCHAR scaron
ENCODING 353
SWIDTH 369 0
DWIDTH 6 0
BBX 8 12 -1 0
BITMAP
00092295
0005EE40
0001D300
00024400
000EFB00
004EFC00
00A9FD00
0297FE00
0A45FF00
6D45FF74
6A4CFD40
0AED9100
ENDCHAR
STARTCHAR uni0162
ENCODING 354
SWIDTH 481 0
DWIDTH 8 0
BBX 12 16 0 -4
BITMAP
005BDFD94145
0AB35FFFFFF4
6E108FF9BC80
CA00BFC00000
D900EF800000
9902FF500000
0205FF100000
0008FD000000
000CF9000000
000EF6000000
003FF2000000
006FE0000000
000A10000000
002DF8000000
0030DA000000
007EB2000000
ENDCHAR
STARTCHAR uni0163
ENCODING 355
SWIDTH 267 0
DWIDTH 4 0
BBX 6 15 -1 -4
BITMAP
001460
009FB0
00CF80
07FFF4
03FF20
06FE00
09FA00
0DF700
1FF418
1FFAB4
09FC50
065000
0AED00
218F10
3DD500
ENDCHAR
STARTCHAR Tcaron
ENCODING 356
SWIDTH 481 0
DWIDTH 8 0
BBX 12 16 0 0
BITMAP
000005004300
000008AC7000
000002D30000
000000000000
005BDFD94145
0AB35FFFFFF4
6E108FF9BC80
CA00BFC00000
D900EF800000
9902FF500000
0205FF100000
0008FD000000
000CF9000000
000EF6000000
003FF2000000
006FE0000000
ENDCHAR
STARTCHAR tcaron
ENCODING 357
SWIDTH 267 0
DWIDTH 4 0
BBX 8 12 -1 0
BITMAP
000003E6
001351E7
009FB1B1
00CF8010
07FFF400
03FF2000
06FE0000
09FA0000
0DF70000
1FF41800
1FFAB400
09EC5000
ENDCHAR
STARTCHAR Tbar
ENCODING 358
SWIDTH 481 0
DWIDTH 8 0
BBX 12 12 0 0
BITMAP
006BDFD94145
0BB25FFFFFF4
7E108FE29C80
CA00BFA00000
D900EF700000
7901FF400000
0004FF100000
09EFFFEE6000
000AF9000000
000EF6000000
002FF2000000
006FE0000000
ENDCHAR
STARTCHAR tbar
ENCODING 359
SWIDTH 267 0
DWIDTH 4 0
BBX 6 11 -1 0
BITMAP
001460
009FB0
00CF80
07FFF4
02FF20
3FFFE2
08FB00
0CF800
0FF406
1FF8A5
09EC50
ENDCHAR
STARTCHAR Utilde
ENCODING 360
SWIDTH 716 0
DWIDTH 11 0
BBX 12 15 0 0
BITMAP
000000277412
0000028AEEB2
000000000000
0028CE9004FF
07D4EF5007FC
7E12FF100BF8
E906FC000EF5
F70AF8002FF2
540EF4006FE0
002FF1009FA0
006FC000DF60
008F9003FF20
008FA00AFA00
006FE9AFD200
0008DFD92000
ENDCHAR
STARTCHAR utilde
ENCODING 361
SWIDTH 505 0
DWIDTH 8 0
BBX 10 11 -1 0
BITMAP
0008EEB850
00346BC800
0000000000
01FF41FF40
03FF14FF10
07FD07FC00
0AFA0BF900
0DF60EF600
1FF43FF327
1FFABFFAC2
09EC39EC30
ENDCHAR
STARTCHAR Umacron
ENCODING 362
SWIDTH 716 0
DWIDTH 11 0
BBX 12 15 0 0
BITMAP
000000EEEEE2
000000000000
000000000000
0028CE9004FF
07D4EF5007FC
7E12FF100BF8
E906FC000EF5
F70AF8002FF2
540EF4006FE0
002FF1009FA0
006FC000DF60
008F9003FF20
008FA00AFA00
006FE9AFD200
0008DFD92000
ENDCHAR
STARTCHAR umacron
ENCODING 363
SWIDTH 505 0
DWIDTH 8 0
BBX 10 11 -1 0
BITMAP
001EEEEE10
0000000000
0000000000
01FF41FF40
03FF14FF10
07FD07FC00
0AFA0BF900
0DF60EF600
1FF43FF327
1FFABFFAC2
09EC39EC30
ENDCHAR
STARTCHAR Ubreve
ENCODING 364
SWIDTH 716 0
DWIDTH 11 0
BBX 12 15 0 0
BITMAP
000000E902D9
0000004CDB70
000000000000
0028CE9004FF
07D4EF5007FC
7E12FF100BF8
E906FC000EF5
F70AF8002FF2
540EF4006FE0
002FF1009FA0
006FC000DF60
008F9003FF20
008FA00AFA00
006FE9AFD200
0008DFD92000
ENDCHAR
STARTCHAR ubreve
ENCODING 365
SWIDTH 505 0
DWIDTH 8 0
BBX 10 12 -1 0
BITMAP
001F500C80
000DA06E20
0003CDA200
0000000000
01FF41FF40
03FF14FF10
07FD07FC00
0AFA0BF900
0DF60EF600
1FF43FF327
1FFABFFAC2
09EC39EC30
ENDCHAR
STARTCHAR Uring
ENCODING 366
SWIDTH 716 0
DWIDTH 11 0
BBX 12 16 0 0
BITMAP
00000005E600
0000000A2A00
00000007E500
000000000000
0028CE9004FF
07D4EF5007FC
7E12FF100BF8
E906FC000EF5
F70AF8002FF2
540EF4006FE0
002FF1009FA0
006FC000DF60
008F9003FF20
008FA00AFA00
006FE9AFD200
0008DFD92000
ENDCHAR
STARTCHAR uring
ENCODING 367
SWIDTH 505 0
DWIDTH 8 0
BBX 10 11 -1 0
BITMAP
00007E8000
00008E6000
0000000000
01FF41FF40
03FF14FF10
07FD07FC00
0AFA0BF900
0DF60EF600
1FF43FF327
1FFABFFAC2
09EC39EC30
ENDCHAR
STARTCHAR Uhungarumlaut
ENCODING 368
SWIDTH 716 0
DWIDTH 11 0
BBX 13 16 0 0
BITMAP
00000001E77E20
00000008B1E500
0000001D179000
00000000000000
0028CE9004FF00
07D4EF5007FC00
7E12FF100BF800
E906FC000EF500
F70AF8002FF200
540EF4006FE000
002FF1009FA000
006FC000DF6000
008F9003FF2000
008FA00AFA0000
006FE9AFD20000
0008DFD9200000
ENDCHAR
STARTCHAR uhungarumlaut
ENCODING 369
SWIDTH 505 0
DWIDTH 8 0
BBX 10 12 -1 0
BITMAP
00007E2DA0
0000E55D10
000690B300
0000000000
01FF41FF40
03FF14FF10
07FD07FC00
0AFA0BF900
0DF60EF600
1FF43FF327
1FFABFFAC2
09EC39EC30
ENDCHAR
STARTCHAR Uogonek
ENCODING 370
SWIDTH 716 0
DWIDTH 11 0
BBX 13 19 -1 -3
BITMAP
00000005F30000
00000001F60000
00000000B80000
00000000000000
00028CE9004FF0
006D5EF6007FC0
06F22FF200AF90
0D906FD000DF50
1F70AF9001FF20
0960EF5005FE00
0002FF1008FA00
0005FD000CF600
0008FA001FF200
0009F9006FA000
0006FC02DE2000
0001AEFEA20000
00000870000000
00001F71300000
000009EA100000
ENDCHAR
STARTCHAR uogonek
ENCODING 371
SWIDTH 505 0
DWIDTH 8 0
BBX 10 12 -1 -4
BITMAP
01FF41FF40
03FF14FF10
07FD07FC00
0AFA0BF900
0DF60EF600
1FF43FF327
1FFABFFAB1
09EC38FB20
0000087000
00000F6130
00000BFC20
0000001000
ENDCHAR
STARTCHAR Wcircumflex
ENCODING 372
SWIDTH 962 0
DWIDTH 15 0
BBX 17 16 0 0
BITMAP
000000000003300000
00000000007FA00000
000000001972A10000
000000000000000000
0018DF5005FD000C50
05D6FF600AFE002E00
4F30FF601EFE007900
BB00FF605FFE00C300
D900EF60ABFE02D000
4600EF71D6FF077000
0000EF7596FF0C2000
0000DF7A35FF2B0000
0000DF8C05FF850000
0000DFD704FFC10000
0000CFF104FF900000
0000CFB004FF400000
ENDCHAR
STARTCHAR wcircumflex
ENCODING 373
SWIDTH 661 0
DWIDTH 11 0
BBX 12 12 -1 0
BITMAP
0000000A5000
000000BF9000
00001A82B000
000022002000
01FF41FF47E2
03FF14FF16E5
07FD07FC00A3
0AFA0BF900E1
0DF60EF605B0
1FF43FF31D40
1FFACFFAD900
09EC39EE8000
ENDCHAR
STARTCHAR Ycircumflex
ENCODING 374
SWIDTH 620 0
DWIDTH 10 0
BBX 11 16 0 0
BITMAP
000000003200
00000007F900
000001972B10
000000000000
0018DF7002E0
05D5EFB00780
4F30AFE00D10
BB006FF35900
D9002FF6B300
46000EFCB000
00000AFF4000
000009FE0000
00000CFB0000
00001FF80000
00003FF50000
00007FF20000
ENDCHAR
STARTCHAR ycircumflex
ENCODING 375
SWIDTH 505 0
DWIDTH 8 0
BBX 10 16 -1 -4
BITMAP
000004C000
00005EE200
0007924700
0000000000
01FF41FF40
03FF14FF10
07FD07FC00
0AFA0BF900
0DF60EF600
1FF44FF254
1FFADFE2A0
09ECBFEA10
002AFF8000
01C3EF4000
04B8FE0000
01BEC30000
ENDCHAR
STARTCHAR Ydieresis
ENCODING 376
SWIDTH 620 0
DWIDTH 10 0
BBX 11 15 0 0
BITMAP
000000AB0B90
000000BC0DA0
000000000000
0018DF7002E0
05D5EFB00780
4F30AFE00D10
BB006FF35900
D9002FF6B300
46000EFCB000
00000AFF4000
000009FE0000
00000CFB0000
00001FF80000
00003FF50000
00007FF20000
ENDCHAR
STARTCHAR Zacute
ENCODING 377
SWIDTH 542 0
DWIDTH 9 0
BBX 9 16 0 0
BITMAP
0000000760
0000005F30
000000D600
0000000000
02CFEEFF90
08F108FF20
04901EF900
00008FF200
0001EF9000
0008FF2000
001EF90000
008FF20000
01EF900000
08FF205800
2FF900BE00
9FFFEFD400
ENDCHAR
STARTCHAR zacute
ENCODING 378
SWIDTH 428 0
DWIDTH 7 0
BBX 7 12 0 0
BITMAP
00001E80
00008D10
0001E400
00000000
06EEFF80
1F64FE10
051CF600
006FD000
01EF5000
08FB0300
2FF34F20
BFFFE800
ENDCHAR
STARTCHAR Zdotaccent
ENCODING 379
SWIDTH 530 0
DWIDTH 8 0
BBX 9 15 0 0
BITMAP
00001C7000
00001E8000
0000000000
02CFEEFF90
08F108FF20
04901EF900
00008FF200
0001EF9000
0008FF2000
001EF90000
008FF20000
01EF900000
08FF205800
2FF900BE00
9FFFEFD400
ENDCHAR
STARTCHAR zdotaccent
ENCODING 380
SWIDTH 428 0
DWIDTH 7 0
BBX 7 11 0 0
BITMAP
0005E400
0004D300
00000000
06EEFF80
1F64FE10
051CF600
006FD000
01EF5000
08FB0300
2FF34F20
BFFFE800
ENDCHAR
STARTCHAR Zcaron
ENCODING 381
SWIDTH 542 0
DWIDTH 9 0
BBX 10 16 0 0
BITMAP
0000040052
00000B9C40
000006B100
0000000000
02CFEEFF90
08F108FF20
04901EF900
00008FF200
0001EF9000
0008FF2000
001EF90000
008FF20000
01EF900000
08FF205800
2FF900BE00
9FFFEFD400
ENDCHAR
STARTCHAR zcaron
ENCODING 382
SWIDTH 428 0
DWIDTH 7 0
BBX 8 12 0 0
BITMAP
000A14A3
0008DD20
0003C100
00000000
06EEFF80
1F64FE10
051CF600
006FD000
01EF5000
08FB0300
2FF34F20
BFFFE800
ENDCHAR
STARTCHAR longs
ENCODING 383
SWIDTH 267 0
DWIDTH 4 0
BBX 11 16 -4 -4
BITMAP
0000005DE800
000003FE1A20
000008F90100
00000CF60000
0000CFF30000
00003FF00000
00006FC00000
00009F900000
0000CF600000
0001FF300000
0004FE000000
0007FC000000
03AEF8000000
2D4CF5000000
4A3FE1000000
0AEC30000000
ENDCHAR
STARTCHAR uni018F
ENCODING 399
SWIDTH 544 0
DWIDTH 9 0
BBX 9 12 0 0
BITMAP
006CFEA200
05FEEFFD00
058006FF50
000000FF80
000000FF90
0006BEFF70
02CE56FF40
1DF309FE00
7F900EF700
AF506FC000
7F63ED2000
1AEE910000
ENDCHAR
STARTCHAR florin
ENCODING 402
SWIDTH 267 0
DWIDTH 4 0
BBX 11 16 -4 -4
BITMAP
00000005DE80
0000005FA7F0
000000DF4770
000005FE0000
0000BFFFE700
00000DF60000
00002FF20000
00007FD00000
0000BF800000
0001FF400000
0005FE000000
0009FA000000
000DF5000000
773FD0000000
F7AF50000000
9ED500000000
ENDCHAR
STARTCHAR Ohorn
ENCODING 416
SWIDTH 665 0
DWIDTH 11 0
BBX 12 14 0 0
BITMAP
0000000000D7
0000000000E7
0005ADED84E1
02CC5644FF30
1DA2DE20BF30
8E1BF700AF60
BC4FF100AF70
48AFB000CF60
00EF6001FF30
02FF3006FE00
03FF200CF700
03FF205FD100
00EF96EE2000
003CFE920000
ENDCHAR
STARTCHAR ohorn
ENCODING 417
SWIDTH 439 0
DWIDTH 7 0
BBX 9 10 -1 0
BITMAP
00000008B0
00000009A0
0018DE9E20
01CF83F400
08FD01F300
0EF803F200
2FF406E000
2FF30B9000
1EF46D1000
05DEA20000
ENDCHAR
STARTCHAR Uhorn
ENCODING 431
SWIDTH 716 0
DWIDTH 11 0
BBX 14 15 0 0
BITMAP
0000000000007C
0000000000009C
000000000001D5
0028CE9004FF60
07D4EF5007FC00
7E12FF100BF800
E906FC000EF500
F70AF8002FF200
540EF4006FE000
002FF1009FA000
006FC000DF6000
008F9003FF2000
008FA00AFA0000
006FE9AFD20000
0008DFD9200000
ENDCHAR
STARTCHAR uhorn
ENCODING 432
SWIDTH 505 0
DWIDTH 8 0
BBX 10 11 -1 0
BITMAP
0000000044
00000000AA
00000001D5
01FF41FF80
03FF14FF10
07FD07FC00
0AFA0BF900
0DF60EF600
1FF43FF327
1FFABFFAC2
09EC39EC30
ENDCHAR
STARTCHAR uni01B7
ENCODING 439
SWIDTH 555 0
DWIDTH 9 0
BBX 9 12 0 0
BITMAP
01BFEEFFC0
05F404FE20
02922EF500
0000CF8000
0008FD0000
000AEFC200
00001EFB00
000009FF00
172009FF00
9F200DFA00
9F208FD200
1AEED81000
ENDCHAR
STARTCHAR uni01CD
ENCODING 461
SWIDTH 668 0
DWIDTH 11 0
BBX 14 18 0 -2
BITMAP
00000000050043
00000000099C60
0000000003C200
00000000000000
00000001AED000
0000002DDFC000
000001D6AF9000
00000BA0DF6000
00006F21FF3000
19DEFE87FE0000
BE39F22BFB0000
7A2FA00BF80000
009F500EF50000
01EE003FF10000
05FA006FD00000
08F700AFA00000
09F50000000000
04D50000000000
ENDCHAR
STARTCHAR uni01CE
ENCODING 462
SWIDTH 526 0
DWIDTH 8 0
BBX 10 12 -1 0
BITMAP
00001905A1
00000CDB10
000007A000
0000000000
0019EDCF90
01CF71FF50
07FC02FF20
0DF705FE00
1FF409FB00
3FF30DF809
1FFAADFC96
06EE54ED70
ENDCHAR
STARTCHAR uni01CF
ENCODING 463
SWIDTH 375 0
DWIDTH 6 0
BBX 9 16 0 0
BITMAP
0000400340
00006BB800
00001D4000
0000000000
0018DF4000
05D9FF1000
4F37FD0000
BB0AF90000
D90DF60000
462FF30000
005FE00000
008FC00000
00BF800000
00EF500000
03FF200000
06FE000000
ENDCHAR
STARTCHAR uni01D0
ENCODING 464
SWIDTH 267 0
DWIDTH 4 0
BBX 7 12 -1 0
BITMAP
00922950
005EE400
001D3000
00000000
01FF4000
03FF1000
07FD0000
0AFA0000
0DF60000
1FF31900
1FFAC400
09EC5000
ENDCHAR
STARTCHAR uni01D1
ENCODING 465
SWIDTH 665 0
DWIDTH 11 0
BBX 11 16 0 0
BITMAP
000000561780
0000001EE800
0000000A6000
000000000000
0005ADEEA200
02CC5644FC00
1DA2DE20BF40
8E1BF700AF60
BC4FF100AF70
48AFB000CF50
00EF6001FF20
02FF3006FD00
03FF200CF600
03FF205FC100
00EF96EE2000
003CFE920000
ENDCHAR
STARTCHAR uni01D2
ENCODING 466
SWIDTH 433 0
DWIDTH 7 0
BBX 10 12 -1 0
BITMAP
0000A04A20
0000ADC100
00006C1000
0000000000
0019EE6000
01DF65E003
08FB09F8A5
0EF606F300
3FF208D000
4FF11D8000
2FF9BD1000
06DEA20000
ENDCHAR
STARTCHAR uni01D3
ENCODING 467
SWIDTH 716 0
DWIDTH 11 0
BBX 12 16 0 0
BITMAP
000000074187
00000002EE60
00000000C400
000000000000
0028CE9004FF
07D4EF5007FC
7E12FF100BF8
E906FC000EF5
F70AF8002FF2
540EF4006FE0
002FF1009FA0
006FC000DF60
008F9003FF20
008FA00AFA00
006FE9AFD200
0008DFD92000
ENDCHAR
STARTCHAR uni01D4
ENCODING 468
SWIDTH 505 0
DWIDTH 8 0
BBX 10 12 -1 0
BITMAP
0000922A50
00005EE400
00001D3000
0000000000
01FF41FF40
03FF14FF10
07FD07FC00
0AFA0BF900
0DF60EF600
1FF43FF327
1FFABFFAC2
09EC39EC30
ENDCHAR
STARTCHAR uni01D5
ENCODING 469
SWIDTH 716 0
DWIDTH 11 0
BBX 12 16 0 0
BITMAP
0000009EEEE7
000000000000
000000BC06E3
000000AA05D2
0028CE9004FF
07D4EF5007FC
7E12FF100BF8
E906FC000EF5
F70AF8002FF2
540EF4006FE0
002FF1009FA0
006FC000DF60
008F9003FF20
008FA00AFA00
006FE9AFD200
0008DFD92000
ENDCHAR
STARTCHAR uni01D6
ENCODING 470
SWIDTH 505 0
DWIDTH 8 0
BBX 10 13 -1 0
BITMAP
0007EEEE90
0000000000
0009D1BC00
0008C0AB00
0000000000
01FF41FF40
03FF14FF10
07FD07FC00
0AFA0BF900
0DF60EF600
1FF43FF327
1FFABFFAC2
09EC39EC30
ENDCHAR
STARTCHAR uni01D7
ENCODING 471
SWIDTH 716 0
DWIDTH 11 0
BBX 13 16 0 0
BITMAP
000000006F3000
000008E2D99D10
000007C6E18C00
00000001100000
0028CE9004FF00
07D4EF5007FC00
7E12FF100BF800
E906FC000EF500
F70AF8002FF200
540EF4006FE000
002FF1009FA000
006FC000DF6000
008F9003FF2000
008FA00AFA0000
006FE9AFD20000
0008DFD9200000
ENDCHAR
STARTCHAR uni01D8
ENCODING 472
SWIDTH 505 0
DWIDTH 8 0
BBX 10 15 -1 0
BITMAP
000000AD10
000002F500
000009A000
0000000000
0009D1BC00
0008C0AB00
0000000000
01FF41FF40
03FF14FF10
07FD07FC00
0AFA0BF900
0DF60EF600
1FF43FF327
1FFABFFAC2
09EC39EC30
ENDCHAR
STARTCHAR uni01D9
ENCODING 473
SWIDTH 716 0
DWIDTH 11 0
BBX 13 16 0 0
BITMAP
00000008148000
000008E8EAAD10
000005A2806900
00000000000000
0028CE9004FF00
07D4EF5007FC00
7E12FF100BF800
E906FC000EF500
F70AF8002FF200
540EF4006FE000
002FF1009FA000
006FC000DF6000
008F9003FF2000
008FA00AFA0000
006FE9AFD20000
0008DFD9200000
ENDCHAR
STARTCHAR uni01DA
ENCODING 474
SWIDTH 505 0
DWIDTH 8 0
BBX 10 15 -1 0
BITMAP
0000320160
00002C7C30
00000CD200
0000041000
0009D1BC00
0008C0AB00
0000000000
01FF41FF40
03FF14FF10
07FD07FC00
0AFA0BF900
0DF60EF600
1FF43FF327
1FFABFFAC2
09EC39EC30
ENDCHAR
STARTCHAR uni01DB
ENCODING 475
SWIDTH 716 0
DWIDTH 11 0
BBX 13 16 0 0
BITMAP
00000005F40000
000008E2F69D10
000007C1B88C00
00000000000000
0028CE9004FF00
07D4EF5007FC00
7E12FF100BF800
E906FC000EF500
F70AF8002FF200
540EF4006FE000
002FF1009FA000
006FC000DF6000
008F9003FF2000
008FA00AFA0000
006FE9AFD20000
0008DFD9200000
ENDCHAR
STARTCHAR uni01DC
ENCODING 476
SWIDTH 505 0
DWIDTH 8 0
BBX 10 15 -1 0
BITMAP
0000CC0000
00007E0000
00003F2000
0000000000
0009D1BC00
0008C0AB00
0000000000
01FF41FF40
03FF14FF10
07FD07FC00
0AFA0BF900
0DF60EF600
1FF43FF327
1FFABFFAC2
09EC39EC30
ENDCHAR
STARTCHAR uni01E4
ENCODING 484
SWIDTH 601 0
DWIDTH 10 0
BBX 10 15 0 -3
BITMAP
0005BEEC30
00AFD409E0
09FE200AF1
2FF7000850
7FF2000000
AFD0003C80
AFC03CEFD4
8FD001EF30
2FF51AFF00
04CEC8FC00
000007F800
02CD5BF400
0CA13FE000
0CA08F6000
03BED60000
ENDCHAR
STARTCHAR uni01E5
ENCODING 485
SWIDTH 507 0
DWIDTH 8 0
BBX 10 12 -1 -4
BITMAP
0019EDCF90
01CF81FF60
07FD02FF20
0DF805FE00
1FF408FB00
3FF30BF804
1FF53FF564
06EEBFF950
0017BFD000
07EDEFE800
00E2FF3000
007ED60000
ENDCHAR
STARTCHAR Gcaron
ENCODING 486
SWIDTH 578 0
DWIDTH 9 0
BBX 11 19 0 -3
BITMAP
000003806910
000000DD9000
000000880000
000000000000
0005BEEB3000
00AFD409D000
09FE2009F100
2FF7000B9000
7FF200000000
AFD000275000
AFC0007F8000
8FD000DF4000
2FF519FF1000
04CEC8FC0000
000007F90000
02CD5BF50000
0CA13FE00000
0CA08F600000
03BED6000000
ENDCHAR
STARTCHAR gcaron
ENCODING 487
SWIDTH 507 0
DWIDTH 8 0
BBX 10 16 -1 -4
BITMAP
00001905A1
00000CDB10
000007A000
0000000000
0019EDCF90
01CF81FF60
07FD02FF20
0DF805FE00
1FF408FB00
3FF30BF804
1FF53FF565
06EEBFFA80
0004BFE200
0088AFA000
00D1EF5000
007ED70000
ENDCHAR
STARTCHAR uni01E8
ENCODING 488
SWIDTH 601 0
DWIDTH 10 0
BBX 12 16 0 0
BITMAP
0000002906A1
0000000CDA00
000000078000
000000000000
0028DF407F30
05D9FF13F500
4F37FC1D7000
CB0AF9A90000
D90DFCB00000
362FFDDB2000
005FE08FA000
008FB07FA000
00BF80BF7000
00EF50EF3000
03FF23FF0000
06FE02EF2000
ENDCHAR
STARTCHAR uni01E9
ENCODING 489
SWIDTH 518 0
DWIDTH 8 0
BBX 10 15 -1 0
BITMAP
0000092295
000005EE30
000001D200
0000100000
005EE00000
009FB00000
00CF800000
00FF409B20
03FF3B7000
06FFEEA100
0AFE9EF800
0DF70BF900
1FF30EF608
4FF10EFBA5
8FC006EE60
ENDCHAR
STARTCHAR uni01EA
ENCODING 490
SWIDTH 665 0
DWIDTH 11 0
BBX 11 19 0 -3
BITMAP
00003F600000
00000D900000
000008B00000
000000000000
0005ADEEA200
02CC5644FC00
1DA2DE20BF40
8E1BF700AF60
BC4FF100AF70
48AFB000CF50
00EF6001FF20
02FF3006FD00
03FF200CF600
03FF205FC100
00EF96EE2000
004CFE920000
000B40000000
003F42200000
001BE9000000
ENDCHAR
STARTCHAR uni01EB
ENCODING 491
SWIDTH 433 0
DWIDTH 7 0
BBX 10 11 -1 -3
BITMAP
0019EE5000
01DF65E002
08FC09F686
0EF607F400
3FF307D000
4FF10C8000
2FF35D1000
07EEA20000
05A0000000
0CA1400000
06EC300000
ENDCHAR
STARTCHAR uni01EE
ENCODING 494
SWIDTH 525 0
DWIDTH 8 0
BBX 9 16 0 0
BITMAP
0000471790
00000EE800
0000097000
0000000000
01BFEEFFC0
05F404FE20
02922EF500
0000CF8000
0008FD0000
000AEFC200
00001EFB00
000009FF00
172009FF00
9F200DFA00
9F208FD200
1AEED81000
ENDCHAR
STARTCHAR uni01EF
ENCODING 495
SWIDTH 600 0
DWIDTH 10 0
BBX 8 16 0 -4
BITMAP
000A14A3
0008DD20
0003B100
00000000
1BFFFF30
7F09F900
253FE100
00CF7000
05FD0000
06FD1016
00BF7074
008FB870
03BFD300
7ABFA000
D1EF4000
8ED60000
ENDCHAR
STARTCHAR uni01F4
ENCODING 500
SWIDTH 578 0
DWIDTH 9 0
BBX 9 19 0 -3
BITMAP
0000000CC0
0000004F30
000000B900
0000002000
0005BEEC50
00AFD409F0
09FE200CC0
2FF7000000
7FF2000100
AFD0005F90
AFC0009F60
8FD001EF30
2FF51AFE00
04CEC8FB00
000007F800
02CD5BF400
0CA13FD000
0CA08F5000
03BED60000
ENDCHAR
STARTCHAR uni01F5
ENCODING 501
SWIDTH 507 0
DWIDTH 8 0
BBX 10 16 -1 -4
BITMAP
000000DB00
000005F200
00000C7000
0000010000
0019EDCF90
01CF81FF60
07FD02FF20
0DF805FE00
1FF408FB00
3FF30BF804
1FF53FF565
06EEBFFA80
0004BFE200
0088AFA000
00D1EF5000
007ED70000
ENDCHAR
STARTCHAR Aringacute
ENCODING 506
SWIDTH 668 0
DWIDTH 11 0
BBX 13 18 0 -2
BITMAP
00000000001830
00000000008C00
000000000AF300
000000002C9400
000000002EE100
00000008DFE000
000000A6AFA000
000009A0DF7000
00005F21FF3000
19DEFE87FF0000
BE39F22BFC0000
7A2FA00BF80000
009F500EF50000
01EE003FF20000
05FA006FD00000
08F700AFA00000
09F50000000000
04D50000000000
ENDCHAR
STARTCHAR aringacute
ENCODING 507
SWIDTH 526 0
DWIDTH 8 0
BBX 10 13 -1 0
BITMAP
0000009C00
000005E200
0000287300
00001DC100
0000000000
0019EDCF90
01CF71FF50
07FC02FF20
0DF705FE00
1FF409FB00
3FF30DF809
1FFAADFC96
06EE54ED70
ENDCHAR
STARTCHAR AEacute
ENCODING 508
SWIDTH 764 0
DWIDTH 12 0
BBX 15 18 0 -2
BITMAP
0000000000047100
00000000001E6000
0000000000870000
0000000000000000
00000002AEC51440
0000002CBFECEB00
000001D3BF900000
00000B70EF500000
00006D02FF200000
3ADEFEBAFFFF5000
CE09F10AFB330000
232FA00CF7000000
009F401FF4000000
01EE003FF1000000
05FA007FFDDD5000
08F700AFFFFF4000
09F5000000000000
04D5000000000000
ENDCHAR
STARTCHAR aeacute
ENCODING 509
SWIDTH 650 0
DWIDTH 10 0
BBX 12 12 -1 0
BITMAP
000000009E10
00000001F600
00000008B000
000000011000
002AEEB8DEA0
005309FFA3F1
000008FF25E0
029DEFFB4E60
0CFA1EFEC500
1FF32FF70004
1FF48FF90282
07EE86DFD810
ENDCHAR
STARTCHAR Oslashacute
ENCODING 510
SWIDTH 658 0
DWIDTH 11 0
BBX 11 17 0 -1
BITMAP
00000000CC00
00000004F300
0000000C8000
000000000000
0000001C0000
0017BEEE7000
05E9CEB9F800
4F59F8B2FE00
AC3FE1D0EF10
7AAFA2A1FF10
00EF5574FE00
03FF2948FA00
05FF0C1EF400
04FF0C7FA000
01EF8DFC1000
005DFD810000
0000A3000000
ENDCHAR
STARTCHAR oslashacute
ENCODING 511
SWIDTH 428 0
DWIDTH 7 0
BBX 9 13 -1 -1
BITMAP
000001EA00
000006E100
00000D6000
0000010000
0018DE7A30
00BF83F500
07FD05F300
0DF83DF200
2FF6C8E000
3FFD3B8000
1FF76D1000
0CEEA20000
9400000000
ENDCHAR
STARTCHAR uni0200
ENCODING 512
SWIDTH 668 0
DWIDTH 11 0
BBX 12 18 0 -2
BITMAP
000001E86F20
0000004E1A90
0000000881C2
000000000000
00000001AED0
0000002DDFC0
000001D6AF90
00000BA0DF60
00006F21FF30
19DEFE87FE00
BE39F22BFB00
7A2FA00BF800
009F500EF500
01EE003FF100
05FA006FD000
08F700AFA000
09F500000000
04D500000000
ENDCHAR
STARTCHAR uni0201
ENCODING 513
SWIDTH 526 0
DWIDTH 8 0
BBX 10 12 -1 0
BITMAP
007F2CA000
000A92E200
0001C15900
0000000000
0019EDCF90
01CF71FF50
07FC02FF20
0DF705FE00
1FF409FB00
3FF30DF809
1FFAADFC96
06EE54ED70
ENDCHAR
STARTCHAR uni0202
ENCODING 514
SWIDTH 668 0
DWIDTH 11 0
BBX 13 17 0 -2
BITMAP
000000007DEC40
00000009C20AC0
00000001000010
00000001AED000
0000002DDFC000
000001D6AF9000
00000BA0DF6000
00006F21FF3000
19DEFE87FE0000
BE39F22BFB0000
7A2FA00BF80000
009F500EF50000
01EE003FF10000
05FA006FD00000
08F700AFA00000
09F50000000000
04D50000000000
ENDCHAR
STARTCHAR uni0203
ENCODING 515
SWIDTH 526 0
DWIDTH 8 0
BBX 10 11 -1 0
BITMAP
00019EEC20
000CB11DA0
0002100110
0019EDCF90
01CF71FF50
07FC02FF20
0DF705FE00
1FF409FB00
3FF30DF809
1FFAADFC96
06EE54ED70
ENDCHAR
STARTCHAR uni0204
ENCODING 516
SWIDTH 459 0
DWIDTH 7 0
BBX 8 16 0 0
BITMAP
01D95F30
003E29B0
000690C3
00000000
0003CEC3
003FC17C
00AF408C
00DF3094
00AF7000
005FE400
09FE3000
5FF60000
BFF10000
DFE00004
9FF40381
1AEEC710
ENDCHAR
STARTCHAR uni0205
ENCODING 517
SWIDTH 384 0
DWIDTH 6 0
BBX 8 12 -1 0
BITMAP
07F2DA00
00B82E20
001C1590
00000000
0019DE60
00CF76D0
07FC09A0
0DF77E30
1FFEA300
3FF30034
1FF958A0
05DEC600
ENDCHAR
STARTCHAR uni0206
ENCODING 518
SWIDTH 459 0
DWIDTH 7 0
BBX 9 15 0 0
BITMAP
00007DED50
0008D209E0
0001100010
0003CEC300
003FC17C00
00AF408C00
00DF309400
00AF700000
005FE40000
09FE300000
5FF6000000
BFF1000000
DFE0000400
9FF4038100
1AEEC71000
ENDCHAR
STARTCHAR uni0207
ENCODING 519
SWIDTH 384 0
DWIDTH 6 0
BBX 8 11 -1 0
BITMAP
002AEEA1
01E912E7
00200021
0019DE60
00CF76D0
07FC09A0
0DF77E30
1FFEA300
3FF30014
1FF50490
05DEC600
ENDCHAR
STARTCHAR uni0208
ENCODING 520
SWIDTH 375 0
DWIDTH 6 0
BBX 7 16 0 0
BITMAP
09D2E800
01C64E10
002C0870
00000000
0018CF40
04ECFF10
3F66FD00
BD09F900
D90DF600
791FF300
004FE000
008FC000
00BF8000
00EF5000
03FF2000
06FE0000
ENDCHAR
STARTCHAR uni0209
ENCODING 521
SWIDTH 267 0
DWIDTH 4 0
BBX 7 12 -2 0
BITMAP
3F59E000
07C1C600
00A52C00
00000000
001FF400
003FF100
007FD000
00AFA000
00DF6000
01FF3190
01FFAC40
009EC500
ENDCHAR
STARTCHAR uni020A
ENCODING 522
SWIDTH 375 0
DWIDTH 6 0
BBX 8 15 0 0
BITMAP
0007DEC4
009C20AD
00100001
0018DF40
05D9FF10
4F37FD00
BB0AF900
D90DF600
462FF300
005FE000
008FC000
00BF8000
00EF5000
03FF2000
06FE0000
ENDCHAR
STARTCHAR uni020B
ENCODING 523
SWIDTH 267 0
DWIDTH 4 0
BBX 6 11 -1 0
BITMAP
02BED3
0D609B
010001
01FF40
03FF10
07FD00
0AFA00
0DF600
1FF319
1FFAC4
09EC50
ENDCHAR
STARTCHAR uni020C
ENCODING 524
SWIDTH 665 0
DWIDTH 11 0
BBX 11 16 0 0
BITMAP
0009D2E80000
0001C64E1000
00002D088000
000000000000
0005ADEEA200
02CC5644FC00
1DA2DE20BF40
8E1BF700AF60
BC4FF100AF70
48AFB000CF50
00EF6001FF20
02FF3006FD00
03FF200CF600
03FF205FC100
00EF96EE2000
003CFE920000
ENDCHAR
STARTCHAR uni020D
ENCODING 525
SWIDTH 433 0
DWIDTH 7 0
BBX 10 12 -1 0
BITMAP
08E2D90000
00C73E2000
002C178000
0000000000
0019EE6000
01DF65E003
08FB09F8A5
0EF606F300
3FF208D000
4FF11D8000
2FF9BD1000
06DEA20000
ENDCHAR
STARTCHAR uni020E
ENCODING 526
SWIDTH 665 0
DWIDTH 11 0
BBX 11 15 0 0
BITMAP
000003BEE900
00002F603F50
000001000100
0005ADEEA200
02CC5644FC00
1DA2DE20BF40
8E1BF700AF60
BC4FF100AF70
48AFB000CF50
00EF6001FF20
02FF3006FD00
03FF200CF600
03FF205FC100
00EF96EE2000
003CFE920000
ENDCHAR
STARTCHAR uni020F
ENCODING 527
SWIDTH 433 0
DWIDTH 7 0
BBX 10 11 -1 0
BITMAP
0007DED400
008D20AD00
0021001200
0019EE5000
01DF65E002
08FC09F686
0EF607F400
3FF307D000
4FF10C8000
2FF35D1000
06DEA20000
ENDCHAR
STARTCHAR uni0210
ENCODING 528
SWIDTH 601 0
DWIDTH 10 0
BBX 10 16 0 0
BITMAP
00BB3E5000
002E46D000
0004B0A500
0000000000
0028DEEB30
05E8441BE1
4F46FD06F5
CC0AF909F2
D90DF66F60
461FFFFE40
005FF09FA0
008FC07FA0
00BF80BF70
00EF50EF30
03FF23FF00
06FE02EF20
ENDCHAR
STARTCHAR uni0211
ENCODING 529
SWIDTH 376 0
DWIDTH 6 0
BBX 8 12 -1 0
BITMAP
3F69E100
06D1C700
00A52C00
00000000
00FF9DD1
03FF7AE2
07FC0010
0AF90000
0DF60000
1FF30000
4FF00000
8FC00000
ENDCHAR
STARTCHAR uni0212
ENCODING 530
SWIDTH 601 0
DWIDTH 10 0
BBX 10 15 0 0
BITMAP
00007DED50
0008D209E0
0001000010
0028DEEB30
05E8441BE1
4F46FD06F5
CC0AF909F2
D90DF66F60
461FFFFE40
005FF09FA0
008FC07FA0
00BF80BF70
00EF50EF30
03FF23FF00
06FE02EF20
ENDCHAR
STARTCHAR uni0213
ENCODING 531
SWIDTH 376 0
DWIDTH 6 0
BBX 8 11 -1 0
BITMAP
0019EEB1
00D911E8
00100011
00FF9DD1
03FF7AE2
07FC0010
0AF90000
0DF60000
1FF30000
4FF00000
8FC00000
ENDCHAR
STARTCHAR uni0214
ENCODING 532
SWIDTH 716 0
DWIDTH 11 0
BBX 12 16 0 0
BITMAP
00004F4AD000
000008B1D500
000000B43C00
000000000000
0028CE9004FF
07D4EF5007FC
7E12FF100BF8
E906FC000EF5
F70AF8002FF2
540EF4006FE0
002FF1009FA0
006FC000DF60
008F9003FF20
008FA00AFA00
006FE9AFD200
0008DFD92000
ENDCHAR
STARTCHAR uni0215
ENCODING 533
SWIDTH 505 0
DWIDTH 8 0
BBX 10 12 -1 0
BITMAP
05F4BC0000
008B1D5000
000B33B000
0000000000
01FF41FF40
03FF14FF10
07FD07FC00
0AFA0BF900
0DF60EF600
1FF43FF327
1FFABFFAC2
09EC39EC30
ENDCHAR
STARTCHAR uni0216
ENCODING 534
SWIDTH 716 0
DWIDTH 11 0
BBX 12 15 0 0
BITMAP
0000003BEE80
000003F604F4
000000100010
0028CE9004FF
07D4EF5007FC
7E12FF100BF8
E906FC000EF5
F70AF8002FF2
540EF4006FE0
002FF1009FA0
006FC000DF60
008F9003FF20
008FA00AFA00
006FE9AFD200
0008DFD92000
ENDCHAR
STARTCHAR uni0217
ENCODING 535
SWIDTH 505 0
DWIDTH 8 0
BBX 10 11 -1 0
BITMAP
0005CEE700
005E407F20
0011000100
01FF41FF40
03FF14FF10
07FD07FC00
0AFA0BF900
0DF60EF600
1FF43FF327
1FFABFFAC2
09EC39EC30
ENDCHAR
STARTCHAR Scommaaccent
ENCODING 536
SWIDTH 570 0
DWIDTH 9 0
BBX 9 16 0 -4
BITMAP
0003BEEA10
003FE31DA0
008FB00CC0
007FE12B50
001EFC1000
0004FFA000
00106FF800
09FD1AFF10
4FB104FF30
6F6004FE10
2FC33DF700
04CEEB5000
0016100000
004F400000
001B000000
0011000000
ENDCHAR
STARTCHAR scommaaccent
ENCODING 537
SWIDTH 382 0
DWIDTH 6 0
BBX 8 13 -1 -4
BITMAP
00036500
000EFB00
005EFC00
00A9FD00
0387FE00
0B45FF00
6E55FF64
680AFD30
0AED9100
00000000
01E50000
00C50000
01700000
ENDCHAR
STARTCHAR uni021A
ENCODING 538
SWIDTH 481 0
DWIDTH 8 0
BBX 12 16 0 -4
BITMAP
005BDFD94145
0AB35FFFFFF4
6E108FF9BC80
CA00BFC00000
D900EF800000
9902FF500000
0205FF100000
0008FD000000
000CF9000000
000EF6000000
003FF2000000
006FE0000000
000000000000
004E30000000
001E20000000
002600000000
ENDCHAR
STARTCHAR uni021B
ENCODING 539
SWIDTH 267 0
DWIDTH 4 0
BBX 6 15 -1 -4
BITMAP
001460
009FB0
00CF80
07FFF4
03FF20
06FE00
09FA00
0DF700
1FF418
1FFAB4
09EC50
000000
0C8000
099000
071000
ENDCHAR
STARTCHAR uni021E
ENCODING 542
SWIDTH 665 0
DWIDTH 11 0
BBX 12 16 0 0
BITMAP
0000002906A1
0000000CDA00
000000078000
000000000000
0017CE505FF0
04EAFF208FC0
2E75FE00BF90
AE08FB00EF50
CB0CF802FF20
590FFFFFFE00
003FF43AFB00
006FD00BF800
00AFA00EF500
00DF703FF100
01FF406FD000
04FF10AFA000
ENDCHAR
STARTCHAR uni021F
ENCODING 543
SWIDTH 600 0
DWIDTH 10 0
BBX 10 15 -1 0
BITMAP
0000056188
000001EE70
000000A600
0000000000
004DE00000
008FB00000
00CF700000
00FFBEE500
03FF47FC00
06FC07FC00
0AF90AFA00
0DF60DF700
1FF31FF305
4FF01FF373
8FC008ED50
ENDCHAR
STARTCHAR uni0237
ENCODING 567
SWIDTH 240 0
DWIDTH 4 0
BBX 9 12 -4 -4
BITMAP
00000FF500
00003FF100
00006FD000
0000AFA000
0000DF7000
0001FF4340
0004FF1910
0007FE8300
019EFA0000
0D8EF60000
3B3FE10000
0AEC400000
ENDCHAR
STARTCHAR uni0259
ENCODING 601
SWIDTH 404 0
DWIDTH 6 0
BBX 7 8 0 0
BITMAP
08DEC300
2707FD00
0003FF20
03BEFF10
4F68FD00
C80DF600
E67FA000
8ED70000
ENDCHAR
STARTCHAR uni0292
ENCODING 658
SWIDTH 442 0
DWIDTH 7 0
BBX 8 12 0 -4
BITMAP
1BFFFF30
7F09F900
253FE100
00CF7000
05FD0000
06FD1016
00BF7074
008FB870
03BFD300
7ABFA000
D1EF4000
8ED60000
ENDCHAR
STARTCHAR uni02BB
ENCODING 699
SWIDTH 241 0
DWIDTH 4 0
BBX 3 4 2 8
BITMAP
0600
7800
EE10
CD10
ENDCHAR
STARTCHAR uni02BC
ENCODING 700
SWIDTH 228 0
DWIDTH 4 0
BBX 3 4 2 8
BITMAP
6E30
5F40
3A00
2000
ENDCHAR
STARTCHAR circumflex
ENCODING 710
SWIDTH 293 0
DWIDTH 5 0
BBX 5 3 0 9
BITMAP
004C00
05EE30
692380
ENDCHAR
STARTCHAR caron
ENCODING 711
SWIDTH 294 0
DWIDTH 5 0
BBX 6 3 1 9
BITMAP
471791
0EE900
097000
ENDCHAR
STARTCHAR uni02C9
ENCODING 713
SWIDTH 421 0
DWIDTH 7 0
BBX 6 1 2 9
BITMAP
DEEEE3
ENDCHAR
STARTCHAR uni02CA
ENCODING 714
SWIDTH 256 0
DWIDTH 4 0
BBX 3 3 2 9
BITMAP
0E90
6C10
C200
ENDCHAR
STARTCHAR uni02CB
ENCODING 715
SWIDTH 274 0
DWIDTH 4 0
BBX 3 3 2 9
BITMAP
4F40
0D60
0780
ENDCHAR
STARTCHAR breve
ENCODING 728
SWIDTH 431 0
DWIDTH 7 0
BBX 6 3 1 9
BITMAP
110011
CB13C9
3BDC70
ENDCHAR
STARTCHAR dotaccent
ENCODING 729
SWIDTH 250 0
DWIDTH 4 0
BBX 4 3 0 9
BITMAP
08B1
1FF6
0BD2
ENDCHAR
STARTCHAR ring
ENCODING 730
SWIDTH 156 0
DWIDTH 3 0
BBX 3 3 0 9
BITMAP
8E30
D670
AD30
ENDCHAR
STARTCHAR ogonek
ENCODING 731
SWIDTH 291 0
DWIDTH 5 0
BBX 5 5 0 -4
BITMAP
014000
0C3000
4F2110
1DEA10
001000
ENDCHAR
STARTCHAR tilde
ENCODING 732
SWIDTH 403 0
DWIDTH 6 0
BBX 7 2 0 9
BITMAP
01674120
179DFC40
ENDCHAR
STARTCHAR hungarumlaut
ENCODING 733
SWIDTH 436 0
DWIDTH 7 0
BBX 6 3 1 9
BITMAP
05E3BB
0D64E2
5A0B40
ENDCHAR
STARTCHAR gravecomb
ENCODING 768
SWIDTH 0 0
DWIDTH 0 0
BBX 3 3 -3 9
BITMAP
9D00
3F10
0C30
ENDCHAR
STARTCHAR acutecomb
ENCODING 769
SWIDTH 0 0
DWIDTH 0 0
BBX 3 3 -3 9
BITMAP
0E90
6D10
D200
ENDCHAR
STARTCHAR uni0302
ENCODING 770
SWIDTH 0 0
DWIDTH 0 0
BBX 6 3 -5 9
BITMAP
000970
01BEC0
1A6091
ENDCHAR
STARTCHAR tildecomb
ENCODING 771
SWIDTH 0 0
DWIDTH 0 0
BBX 7 2 -6 9
BITMAP
04763120
48BEE910
ENDCHAR
STARTCHAR uni0304
ENCODING 772
SWIDTH 0 0
DWIDTH 0 0
BBX 6 1 -5 9
BITMAP
9EEEE7
ENDCHAR
STARTCHAR uni0306
ENCODING 774
SWIDTH 0 0
DWIDTH 0 0
BBX 6 3 -5 9
BITMAP
100011
E914E7
4CDB60
ENDCHAR
STARTCHAR uni0307
ENCODING 775
SWIDTH 0 0
DWIDTH 0 0
BBX 3 3 -2 9
BITMAP
6C30
DF90
8E40
ENDCHAR
STARTCHAR uni0308
ENCODING 776
SWIDTH 0 0
DWIDTH 0 0
BBX 6 2 -5 9
BITMAP
2D54D4
3E64E4
ENDCHAR
STARTCHAR hookabovecomb
ENCODING 777
SWIDTH 0 0
DWIDTH 0 0
BBX 4 3 -4 9
BITMAP
5ED4
11A7
0D40
ENDCHAR
STARTCHAR uni030A
ENCODING 778
SWIDTH 0 0
DWIDTH 0 0
BBX 3 3 -2 9
BITMAP
8E30
D670
AD20
ENDCHAR
STARTCHAR uni030B
ENCODING 779
SWIDTH 0 0
DWIDTH 0 0
BBX 6 3 -5 9
BITMAP
09D2D8
2E37C0
971D20
ENDCHAR
STARTCHAR uni030C
ENCODING 780
SWIDTH 0 0
DWIDTH 0 0
BBX 5 3 -4 9
BITMAP
922950
5EE400
1D3000
ENDCHAR
STARTCHAR uni030F
ENCODING 783
SWIDTH 0 0
DWIDTH 0 0
BBX 7 3 -6 9
BITMAP
2E77E100
05E1B800
00971D10
ENDCHAR
STARTCHAR uni0311
ENCODING 785
SWIDTH 0 0
DWIDTH 0 0
BBX 7 3 -6 8
BITMAP
02BED600
3E607F10
36001720
ENDCHAR
STARTCHAR uni031B
ENCODING 795
SWIDTH 0 0
DWIDTH 0 0
BBX 3 4 -2 7
BITMAP
0E50
1F40
8A00
5000
ENDCHAR
STARTCHAR dotbelowcomb
ENCODING 803
SWIDTH 0 0
DWIDTH 0 0
BBX 3 3 -3 -4
BITMAP
6C20
DF80
8E40
ENDCHAR
STARTCHAR uni0324
ENCODING 804
SWIDTH 0 0
DWIDTH 0 0
BBX 5 2 -7 -3
BITMAP
AA0C80
CB1D90
ENDCHAR
STARTCHAR uni0326
ENCODING 806
SWIDTH 0 0
DWIDTH 0 0
BBX 2 3 -4 -4
BITMAP
9B
7B
62
ENDCHAR
STARTCHAR uni0327
ENCODING 807
SWIDTH 0 0
DWIDTH 0 0
BBX 4 4 -6 -4
BITMAP
0640
0CA6
23CD
5DC4
ENDCHAR
STARTCHAR uni0328
ENCODING 808
SWIDTH 0 0
DWIDTH 0 0
BBX 4 5 -6 -4
BITMAP
0320
4B00
AB03
6FD6
0100
ENDCHAR
STARTCHAR uni032E
ENCODING 814
SWIDTH 0 0
DWIDTH 0 0
BBX 5 3 -7 -3
BITMAP
210030
AA28C0
2BC910
ENDCHAR
STARTCHAR uni0331
ENCODING 817
SWIDTH 0 0
DWIDTH 0 0
BBX 6 1 -8 -3
BITMAP
3EEEED
ENDCHAR
STARTCHAR uni0335
ENCODING 821
SWIDTH 0 0
DWIDTH 0 0
BBX 7 1 -7 4
BITMAP
1EEEEE30
ENDCHAR
STARTCHAR uni0394
ENCODING 916
SWIDTH 619 0
DWIDTH 10 0
BBX 10 13 0 -1
BITMAP
0000009C20
000005FF50
00000DBF70
00007E1F90
0001E60DB0
0009C00BE0
003F4009F1
00CA0007F3
05F20005F6
1D800003F8
8E211111FA
CFFFFFFFFB
2333333332
ENDCHAR
STARTCHAR uni03A9
ENCODING 937
SWIDTH 745 0
DWIDTH 12 0
BBX 12 14 0 -1
BITMAP
000000010000
000018EFF910
0003DC659F80
001E900009F0
00AC000005F2
02F5000004F3
06F0000005F1
08D0000008C0
07D000000E60
04F100007C00
00D60003E200
014D204C3100
6FFF60DFFF50
233310333310
ENDCHAR
STARTCHAR uni03BC
ENCODING 956
SWIDTH 505 0
DWIDTH 8 0
BBX 11 11 -2 -3
BITMAP
000AA30AA300
002FF23FF100
006FE06FD000
009FB0AFA000
00CF70DF7000
00FF41FF4160
03FF69FF5830
07FFF7CFF700
0AFB20142000
0DF700000000
1C9200000000
ENDCHAR
STARTCHAR pi
ENCODING 960
SWIDTH 530 0
DWIDTH 8 0
BBX 10 9 -1 0
BITMAP
0111111110
1FFFFFFFF6
13CA33CA31
00E500E500
02F202F200
05E005E000
08B009B000
0C800B8000
0D4007B200
ENDCHAR
STARTCHAR uni0400
ENCODING 1024
SWIDTH 459 0
DWIDTH 7 0
BBX 8 16 0 0
BITMAP
00008E00
00002F20
00000B40
00000000
0003CEC3
003FC17C
00AF408C
00DF3094
00AF7000
005FE400
09FE3000
5FF60000
BFF10000
DFE00004
9FF40381
1AEEC710
ENDCHAR
STARTCHAR uni0401
ENCODING 1025
SWIDTH 459 0
DWIDTH 7 0
BBX 9 15 0 0
BITMAP
0002D63D50
0002E73E50
0000000000
0003CEC300
003FC17C00
00AF408C00
00DF309400
00AF700000
005FE40000
09FE300000
5FF6000000
BFF1000000
DFE0000400
9FF4038100
1AEEC71000
ENDCHAR
STARTCHAR uni0402
ENCODING 1026
SWIDTH 725 0
DWIDTH 12 0
BBX 12 15 0 -3
BITMAP
005BDFFFFFF7
0AB34FF8BCA1
6E107FE00000
BC00AFB00000
BB00DF800000
4801FFCDEA00
0004FF31EF60
0007FD00CF70
000AFA00EF50
000DF702FF20
001FF305FC00
004FF00AF700
0000001EE100
000021AF5000
00007ED50000
ENDCHAR
STARTCHAR uni0403
ENCODING 1027
SWIDTH 400 0
DWIDTH 6 0
BBX 11 16 0 0
BITMAP
00000001E800
00000008C000
0000001D2000
000000000000
005ADFFFFF10
0BC6FF9BC700
7F35FE000000
BE09FB000000
BD0CF8000000
280FF5000000
003FF1000000
006FD0000000
00AFA0000000
00DF70000000
01FF40000000
04FF10000000
ENDCHAR
STARTCHAR uni0404
ENCODING 1028
SWIDTH 497 0
DWIDTH 8 0
BBX 9 12 0 0
BITMAP
0004CEE900
006FE40D60
03FF700D80
0AFE103C30
1FF9000000
5FFFEE5000
8FF2000000
AFF0000000
AFF0000000
9FF1000320
4FF9115800
05CEDB5000
ENDCHAR
STARTCHAR uni0405
ENCODING 1029
SWIDTH 570 0
DWIDTH 9 0
BBX 9 12 0 0
BITMAP
0003BEEA10
003FE31DA0
008FB00CC0
007FE12B50
001EFC1000
0004FFA000
00106FF800
09FD1AFF10
4FB104FF30
6F6004FE10
2FC33DF700
04CEEB5000
ENDCHAR
STARTCHAR uni0406
ENCODING 1030
SWIDTH 374 0
DWIDTH 6 0
BBX 7 12 0 0
BITMAP
0017CE50
04D8FF20
3F56FE00
AD09FB00
BB0CF800
370FF400
003FF100
007FD000
00AFA000
00DF7000
01FF3000
05FF0000
ENDCHAR
STARTCHAR uni0407
ENCODING 1031
SWIDTH 375 0
DWIDTH 6 0
BBX 8 15 0 0
BITMAP
000AB0B9
000BC0DA
00000000
0018DF40
05D9FF10
4F37FD00
BB0AF900
D90DF600
462FF300
005FE000
008FC000
00BF8000
00EF5000
03FF2000
06FE0000
ENDCHAR
STARTCHAR uni0408
ENCODING 1032
SWIDTH 536 0
DWIDTH 9 0
BBX 10 15 0 -3
BITMAP
0000029DF2
00006DAFE0
0005F38FB0
000DA0CF70
000E81FF40
000664FF10
000007FD00
00000BF900
00000EF600
00003FF300
00006FE000
2CE8AFB000
AC12DF6000
9C16FC0000
2BED910000
ENDCHAR
STARTCHAR uni0409
ENCODING 1033
SWIDTH 817 0
DWIDTH 13 0
BBX 14 14 -1 -2
BITMAP
00000019EE2000
000002DAFE0000
00001D48FB0000
0000B90CF80000
0008E10EF50000
002F803FFCED60
00AF206FE03FF3
03FB009FA00CF7
0AF500CF700BF7
1EF101FF400EF3
4FB004FF416FA0
7F8007FD4EE910
5F700000000000
05400000000000
ENDCHAR
STARTCHAR uni040A
ENCODING 1034
SWIDTH 931 0
DWIDTH 15 0
BBX 15 12 0 0
BITMAP
0017CE505FF00000
04D9FF208FC00000
3F55FE00BF900000
AD09FB00EF600000
BB0CF802FF200000
370FFFEFFFCEC400
003FF109FB06FE10
007FD00CF800EF40
00AFA00FF500EF40
00DF703FF101FE10
01FF307FD309F700
04FF00AFA7EE8000
ENDCHAR
STARTCHAR uni040B
ENCODING 1035
SWIDTH 745 0
DWIDTH 12 0
BBX 12 12 0 0
BITMAP
005BDFFFFFF7
0AB34FF8BCA1
6E107FE00000
BC00AFB00000
BB00DF800000
4801FFCDEA00
0004FF31DF50
0007FD00DF70
000AFA00FF50
000DF703FF10
001FF306FE00
004FF004EE10
ENDCHAR
STARTCHAR uni040C
ENCODING 1036
SWIDTH 635 0
DWIDTH 10 0
BBX 11 16 0 0
BITMAP
00000001E800
00000007C000
0000001D2000
000000000000
0018CE519E90
04D8FF2BCEB0
3F46FE7B0100
AD09FBD20000
BB0CFE700000
371FFDDB3000
003FF16FB000
007FD06FB000
00AFA09F8000
00DF60DF5000
01FF32FF1000
05FF01DF4000
ENDCHAR
STARTCHAR uni040D
ENCODING 1037
SWIDTH 705 0
DWIDTH 11 0
BBX 12 16 0 0
BITMAP
0000007F1000
0000001E4000
000000096000
000000000000
0017CE500CFA
04D8FF206FF6
3F56FE01EFF3
AD09FB08FFF0
BB0CF82EBFC0
370FF4AABF90
003FF4E2EF60
007FDB82FF20
00AFED15FE00
00DFF509FB00
01FFC00CF800
05FF300FF500
ENDCHAR
STARTCHAR uni040E
ENCODING 1038
SWIDTH 644 0
DWIDTH 10 0
BBX 12 15 0 0
BITMAP
000000750061
000003FB2790
0000009DC800
0018CE8000C3
04D6CFC004C0
3F508FF10A50
AD004FF42D00
BB001FF78800
37000BFBD200
000007FFA000
000003FF4000
000000EC0000
000130B60000
0009F9D00000
0006EC200000
ENDCHAR
STARTCHAR uni040F
ENCODING 1039
SWIDTH 665 0
DWIDTH 11 0
BBX 11 18 0 -6
BITMAP
0017CE505FF0
04D8FF208FC0
3F56FE00BF90
AD09FB00EF50
BB0CF702FF20
370FF406FE00
003FF109FB00
007FD00CF800
00AFA00FF500
00DF603FF100
01FF538FD000
05FFFFFFA000
000181000000
0008F3000000
0007FD000000
0000DF100000
000088000000
000020000000
ENDCHAR
STARTCHAR uni0410
ENCODING 1040
SWIDTH 668 0
DWIDTH 11 0
BBX 11 14 0 -2
BITMAP
00000001AED0
0000002DDFC0
000001D6AF90
00000BA0DF60
00006F21FF30
19DEFE87FE00
BE39F22BFB00
7A2FA00BF800
009F500EF500
01EE003FF100
05FA006FD000
08F700AFA000
09F500000000
04D500000000
ENDCHAR
STARTCHAR uni0411
ENCODING 1041
SWIDTH 638 0
DWIDTH 10 0
BBX 11 12 0 0
BITMAP
006BEFFFFF10
1CA9FE9BC700
8D09FA000000
CA0DF7000000
D91FF4000000
464FFCED5000
007FD04FF200
00AF900DF600
00DF600CF500
02FF300EF200
05FE317F9000
08FB5EE90000
ENDCHAR
STARTCHAR uni0412
ENCODING 1042
SWIDTH 641 0
DWIDTH 10 0
BBX 10 12 0 0
BITMAP
0017CEEB40
04E9442BF2
2E75FE04F6
9E08FB07F3
CB0CF85F70
6A0FFFFFA1
003FF22DF7
006FD009FA
00AFA009F9
00DF700BF5
01FF514FC0
04FF4DEA10
ENDCHAR
STARTCHAR uni0413
ENCODING 1043
SWIDTH 400 0
DWIDTH 6 0
BBX 11 12 0 0
BITMAP
005ADFFFFF10
0BC6FF9BC700
7F35FE000000
BE09FB000000
BD0CF8000000
280FF5000000
003FF1000000
006FD0000000
00AFA0000000
00DF70000000
01FF40000000
04FF10000000
ENDCHAR
STARTCHAR uni0414
ENCODING 1044
SWIDTH 669 0
DWIDTH 11 0
BBX 12 12 -1 0
BITMAP
00028CEFC600
006E8442AF80
04F55FE01FF1
0BD09FB00DF5
0AB0DF800CF6
0141FF500DF5
0005FF201FF3
0009FE004FE0
08EFFA008F90
4C1EF701EF20
594FF51AF700
0AED69EE7000
ENDCHAR
STARTCHAR uni0415
ENCODING 1045
SWIDTH 459 0
DWIDTH 7 0
BBX 8 12 0 0
BITMAP
0003CEC3
003FC17C
00AF408C
00DF3094
00AF7000
005FE400
09FE3000
5FF60000
BFF10000
DFE00004
9FF40381
1AEEC710
ENDCHAR
STARTCHAR uni0416
ENCODING 1046
SWIDTH 777 0
DWIDTH 12 0
BBX 15 12 -1 0
BITMAP
004EE405B907ED10
006FCC0CF76ECF20
00011F2FF5E40100
00000D6FF8900000
00000D9FCC200000
0019EFEFEFE90000
009FA1EF62FF2000
01FF22FF31FF1000
03FD05FE04FD0000
06FB08FB08FA0000
0AF80BF80BF70000
3FD20EF509F90000
ENDCHAR
STARTCHAR uni0417
ENCODING 1047
SWIDTH 525 0
DWIDTH 8 0
BBX 9 12 -1 0
BITMAP
00029DEB20
001A20BFB0
0052008FD0
000000CFA0
000008FD20
0006FFD300
000008FE20
000001FF80
046001FF80
1F9005FF30
1F902DF800
05CEEB5000
ENDCHAR
STARTCHAR uni0418
ENCODING 1048
SWIDTH 705 0
DWIDTH 11 0
BBX 12 12 0 0
BITMAP
0017CE500CFA
04D8FF206FF6
3F56FE01EFF3
AD09FB08FFF0
BB0CF82EBFC0
370FF4AABF90
003FF4E2EF60
007FDB82FF20
00AFED15FE00
00DFF509FB00
01FFC00CF800
05FF300FF500
ENDCHAR
STARTCHAR uni0419
ENCODING 1049
SWIDTH 705 0
DWIDTH 11 0
BBX 12 15 0 0
BITMAP
000001830060
000006F82960
000001ADC600
0017CE500CFA
04D8FF206FF6
3F56FE01EFF3
AD09FB08FFF0
BB0CF82EBFC0
370FF4AABF90
003FF4E2EF60
007FDB82FF20
00AFED15FE00
00DFF509FB00
01FFC00CF800
05FF300FF500
ENDCHAR
STARTCHAR uni041A
ENCODING 1050
SWIDTH 635 0
DWIDTH 10 0
BBX 11 12 0 0
BITMAP
0018CE519E90
04D8FF2BCEB0
3F46FE7B0100
AD09FBD20000
BB0CFE700000
371FFDDB3000
003FF16FB000
007FD06FB000
00AFA09F8000
00DF60DF5000
01FF32FF1000
05FF01DF4000
ENDCHAR
STARTCHAR uni041B
ENCODING 1051
SWIDTH 549 0
DWIDTH 9 0
BBX 11 14 -1 -2
BITMAP
00000019EE20
000002CAFE00
00001D58FB00
0000AA0CF800
0006F20EF500
001EA03FF200
008F306FE000
01EC009FA000
08F700CF7000
0DF201FF4000
3FD004FF1000
6F9007FD0000
7F7000000000
2C7000000000
ENDCHAR
STARTCHAR uni041C
ENCODING 1052
SWIDTH 787 0
DWIDTH 13 0
BBX 12 12 1 0
BITMAP
003AEF600AFC
06D5FF501FFA
5F27FF407FF8
BB0CFF40DFF6
C93FFF34FFF3
258BFF3ACFF1
00D6FF4F8FE0
04E2FF9B7FC0
0A92FFE5AFA0
1E43FFE0CF80
6D03FF80EF60
B804FF21FF40
ENDCHAR
STARTCHAR uni041D
ENCODING 1053
SWIDTH 665 0
DWIDTH 11 0
BBX 11 12 0 0
BITMAP
0017CE505FF0
04EAFF208FC0
2E75FE00BF90
AE08FB00EF50
CB0CF802FF20
590FFFFFFE00
003FF43AFB00
006FD00BF800
00AFA00EF500
00DF703FF100
01FF406FD000
04FF10AFA000
ENDCHAR
STARTCHAR uni041E
ENCODING 1054
SWIDTH 665 0
DWIDTH 11 0
BBX 11 12 0 0
BITMAP
0005ADEEA200
02CC5644FC00
1DA2DE20BF40
8E1BF700AF60
BC4FF100AF70
48AFB000CF50
00EF6001FF20
02FF3006FD00
03FF200CF600
03FF205FC100
00EF96EE2000
003CFE920000
ENDCHAR
STARTCHAR uni041F
ENCODING 1055
SWIDTH 688 0
DWIDTH 11 0
BBX 13 12 0 0
BITMAP
006BEFFEEDDE80
0BEAFF8AEFFC20
6F36FE00BF9000
BC09FB00EF6000
BB0CF702FF2000
371FF405FE0000
003FF109FB0000
007FD00CF80000
00AFA00FF50000
00DF703FF10000
01FF306FD00000
05FF00AFA00000
ENDCHAR
STARTCHAR uni0420
ENCODING 1056
SWIDTH 573 0
DWIDTH 9 0
BBX 10 12 0 0
BITMAP
0018DEEA20
05E7332CE1
4F46FD06F6
BB0AFA05F7
D90DF708F3
571FF32EB0
004FF4DB10
008FD73000
00BF900000
00EF500000
03FF200000
06FE000000
ENDCHAR
STARTCHAR uni0421
ENCODING 1057
SWIDTH 497 0
DWIDTH 8 0
BBX 9 12 0 0
BITMAP
0004CEE900
006FE40D60
03FF700D80
0AFE103C30
1FF9000000
5FF5000000
8FF2000000
AFF0000000
AFF0000000
9FF1000220
4FF8005900
05CEDB5000
ENDCHAR
STARTCHAR uni0422
ENCODING 1058
SWIDTH 481 0
DWIDTH 8 0
BBX 12 12 0 0
BITMAP
005BDFD94145
0AB35FFFFFF4
6E108FF9BC80
CA00BFC00000
D900EF800000
9902FF500000
0205FF100000
0008FD000000
000CF9000000
000EF6000000
003FF2000000
006FE0000000
ENDCHAR
STARTCHAR uni0423
ENCODING 1059
SWIDTH 644 0
DWIDTH 10 0
BBX 12 12 0 0
BITMAP
0018CE8000C3
04D6CFC004C0
3F508FF10A50
AD004FF42D00
BB001FF78800
37000BFBD200
000007FFA000
000003FF4000
000000EC0000
000130B60000
0009F9D00000
0006EC200000
ENDCHAR
STARTCHAR uni0424
ENCODING 1060
SWIDTH 786 0
DWIDTH 13 0
BBX 13 13 0 0
BITMAP
0028CEED800000
00EC30BF800000
00C700EF500000
000345FFC93000
03B808FD1AF500
2ED00BFA02FE00
8FA00EF601FF10
AF802FF304FE00
8FA06FE00BF800
2FF59FB2AFA000
03BDFFFEB50000
0000EF50000000
0002FF30000000
ENDCHAR
STARTCHAR uni0425
ENCODING 1061
SWIDTH 620 0
DWIDTH 10 0
BBX 10 12 0 0
BITMAP
0018DF706B
05D5EFA1D3
4F30BFD790
BB008FFD10
D9005FF700
46002FF700
00000EFA00
00005FFD00
0000DAFF20
000794FF50
001D11FF80
009600CFB0
ENDCHAR
STARTCHAR uni0426
ENCODING 1062
SWIDTH 692 0
DWIDTH 11 0
BBX 12 15 0 -3
BITMAP
0017CE505FF0
05D8FF208FC0
3F56FE00BF90
AD09FB00EF60
BB0CF702FF20
370FF406FE00
003FF109FB00
007FD00CF800
00AFA00FF500
00DF703FF200
01FF507FD000
04FFFEDFA000
00014AFFB211
0000006FFFF3
00000004CE90
ENDCHAR
STARTCHAR uni0427
ENCODING 1063
SWIDTH 695 0
DWIDTH 11 0
BBX 12 12 0 0
BITMAP
0018CE500CF7
04D8FF201FF4
3F56FE004FF1
AD09FB007FD0
BB0BF800AF90
3709FB13EF60
0002CFDAFF30
00000005FF00
00000008FC00
0000000BF900
0000000EF500
0000002FF200
ENDCHAR
STARTCHAR uni0428
ENCODING 1064
SWIDTH 906 0
DWIDTH 15 0
BBX 15 12 0 0
BITMAP
0017CE50CF807FD0
04D8FF20FF50AFA0
3F56FE03FF10DF60
AD09FB06FD01FF30
BB0CF70AFA05FF00
370FF40DF708FC00
003FF11FF40BF900
007FD04FF10EF600
00AFA07FC02FF200
00DF60BF905FE000
01FF53EF839FB000
05FFFFFFFFFF8000
ENDCHAR
STARTCHAR uni0429
ENCODING 1065
SWIDTH 934 0
DWIDTH 15 0
BBX 16 15 0 -3
BITMAP
0018CE50CF807FD0
04D8FF20FF50AFA0
3F56FE03FF10DF60
AD09FB07FD01FF30
BB0CF70AFA05FF00
370FF40DF708FC00
003FF11FF40BF900
006FD04FF10EF600
00AFA07FC02FF300
00DF60BF905FE000
01FF51EF609FC000
04FFFFFF93CF8000
010126BFFFFF8111
000000027DFFFFF1
00000000004AEE80
ENDCHAR
STARTCHAR uni042A
ENCODING 1066
SWIDTH 714 0
DWIDTH 11 0
BBX 11 12 0 0
BITMAP
0039DFE70000
07811FF50000
4D004FF20000
AB007FE00000
CD00AFA00000
5E20DFDEEA10
0001FF51CF80
0005FF106FC0
0008FD006FC0
000BF9008F80
000EF732EE10
002FF4CEC300
ENDCHAR
STARTCHAR uni042B
ENCODING 1067
SWIDTH 909 0
DWIDTH 15 0
BBX 15 12 0 0
BITMAP
0018CE5000006FE0
04D8FF2000009FA0
3F56FE000000CF70
AD09FB000001FF40
BB0CF8000004FF10
370FFDED8007FD00
003FF22EF60AFA00
007FD009F90DF600
00AFA009F91FF300
00DF700BF55FF000
01FF514FC08FC000
05FF3DEA20BF9000
ENDCHAR
STARTCHAR uni042C
ENCODING 1068
SWIDTH 640 0
DWIDTH 10 0
BBX 10 12 0 0
BITMAP
0018CE5000
04D8FF2000
3F56FE0000
AD09FB0000
BB0CF80000
370FFDED80
003FF22EF6
007FD009F9
00AFA009F9
00DF700BF5
01FF514FC0
05FF3DEA20
ENDCHAR
STARTCHAR uni042D
ENCODING 1069
SWIDTH 544 0
DWIDTH 9 0
BBX 10 12 -1 0
BITMAP
0002AEEB30
003811BFF2
0080004FF6
0000002FF8
0000002FF8
0008EEEFF6
0000006FF3
000000AFD0
054001EF70
2F8008FD10
1F605FE200
05CCE92000
ENDCHAR
STARTCHAR uni042E
ENCODING 1070
SWIDTH 946 0
DWIDTH 15 0
BBX 15 12 0 0
BITMAP
0017CE5019DFC600
04D9FF206553CF50
2E65FE006F905FC0
AD09FB03FE103FE0
CB0CF80BF8003FE0
590FFFFFF3005FD0
003FF48FE0008FA0
007FD0AFB000DF50
00AFA0BF9004FD00
00DF70BFA00CF500
01FF407FE4AF8000
04FF1009EFC50000
ENDCHAR
STARTCHAR uni042F
ENCODING 1071
SWIDTH 630 0
DWIDTH 10 0
BBX 12 12 -1 0
BITMAP
000018CEEC70
0003EB3136EA
000DC00EF58F
002F803FF27C
002F806FE010
000AE4AFA000
002AFFFF7000
00BF91FF4000
02FE14FF1000
05FB07FC0000
08F80AF90000
3ED20EF60000
ENDCHAR
STARTCHAR uni0430
ENCODING 1072
SWIDTH 526 0
DWIDTH 8 0
BBX 10 8 -1 0
BITMAP
0019EDCF90
01CF71FF50
07FC02FF20
0DF705FE00
1FF409FB00
3FF30DF809
1FFAADFC96
06EE54ED70
ENDCHAR
STARTCHAR uni0431
ENCODING 1073
SWIDTH 430 0
DWIDTH 7 0
BBX 10 12 -1 0
BITMAP
000012222B
0005FFFFF8
0004FFFFB1
00004A0000
0019DF6000
01DF63E000
09FD02F200
0EF804F200
2FF407E000
2FF20C9000
0EF44D2000
04DEB20000
ENDCHAR
STARTCHAR uni0432
ENCODING 1074
SWIDTH 449 0
DWIDTH 7 0
BBX 10 12 -1 0
BITMAP
00008EC100
0008F49600
003FB09700
00AF60B500
02FF11E100
07FC078003
0BF98F96A5
0FF67DF500
2FF404F300
2FF306E000
0EF61D6000
04CFC60000
ENDCHAR
STARTCHAR uni0433
ENCODING 1075
SWIDTH 375 0
DWIDTH 6 0
BBX 8 8 -1 0
BITMAP
007DEA10
0751FF60
0903FF50
006EFC00
09FF9100
3FF60043
4FF40560
09EEB400
ENDCHAR
STARTCHAR uni0434
ENCODING 1076
SWIDTH 507 0
DWIDTH 8 0
BBX 10 12 -1 -4
BITMAP
0019EDCF90
01CF81FF60
07FD02FF20
0DF805FE00
1FF408FB00
3FF30BF804
1FF53FF565
06EEBFFA80
0004BFE200
0088AFA000
00D1EF5000
007ED70000
ENDCHAR
STARTCHAR uni0435
ENCODING 1077
SWIDTH 384 0
DWIDTH 6 0
BBX 8 8 -1 0
BITMAP
0019DE60
00CF76D0
07FC09A0
0DF77E30
1FFEA300
3FF30014
1FF50490
05DEC600
ENDCHAR
STARTCHAR uni0436
ENCODING 1078
SWIDTH 882 0
DWIDTH 14 0
BBX 16 8 -1 0
BITMAP
02BEC308F905DE80
0B33FC0BF64F96C0
0100FE0EF2CF2220
0000FFEFFEFC0000
0003FA6FB5FA0000
5C07F59F85F90026
8C1DB0CF53FC1390
2DEB11FF207ED800
ENDCHAR
STARTCHAR uni0437
ENCODING 1079
SWIDTH 498 0
DWIDTH 8 0
BBX 9 12 0 -4
BITMAP
007DEA1000
0860CF8000
19009FC000
6400AFB000
A000EF6000
7008FB0030
02FFC00640
001DF65900
002BFD5000
07ADF90000
1D2FF30000
0AED500000
ENDCHAR
STARTCHAR uni0438
ENCODING 1080
SWIDTH 505 0
DWIDTH 8 0
BBX 10 8 -1 0
BITMAP
01FF41FF40
03FF14FF10
07FD07FC00
0AFA0BF900
0DF60EF600
1FF43FF327
1FFABFFAC2
09EC39EC30
ENDCHAR
STARTCHAR uni0439
ENCODING 1081
SWIDTH 505 0
DWIDTH 8 0
BBX 10 12 -1 0
BITMAP
0006700430
000FE15B00
0007DD9100
0000000000
01FF41FF40
03FF14FF10
07FD07FC00
0AFA0BF900
0DF60EF600
1FF43FF327
1FFABFFAC2
09EC39EC30
ENDCHAR
STARTCHAR uni043A
ENCODING 1082
SWIDTH 501 0
DWIDTH 8 0
BBX 10 8 -1 0
BITMAP
00FF408E70
03FF2A7C60
06FDA80000
0AFFFFE100
0DF92FF300
1FF31FF136
4FF02FF9B1
8FC009ED40
ENDCHAR
STARTCHAR uni043B
ENCODING 1083
SWIDTH 558 0
DWIDTH 9 0
BBX 11 8 -1 0
BITMAP
000009EFF100
0000695FD000
0000C18FA000
0001C0BF7000
000490EF4000
260852FF1140
8F2D13FF1820
3CD700AEC300
ENDCHAR
STARTCHAR uni043C
ENCODING 1084
SWIDTH 827 0
DWIDTH 13 0
BBX 15 8 -1 0
BITMAP
000009E9005FF600
00007DFA00DFF200
0000C6FA05EFE000
0001C4FB0DAFB000
000493FC5AAF7000
5D1852FDD3DF5190
8C1C11FFA0EFBB30
2CD600FF306ED500
ENDCHAR
STARTCHAR uni043D
ENCODING 1085
SWIDTH 507 0
DWIDTH 8 0
BBX 10 8 -1 0
BITMAP
00FF40EF40
03FF12FF10
07FC06FD00
0AFFEFFA00
0DF60CF700
1FF30FF417
4FF01FF373
8FC007ED40
ENDCHAR
STARTCHAR uni043E
ENCODING 1086
SWIDTH 439 0
DWIDTH 7 0
BBX 10 8 -1 0
BITMAP
0019DE7000
00CF83F102
07FD07F787
0DF805F500
2FF406E000
3FF30A9000
1FF44E2000
05DEB30000
ENDCHAR
STARTCHAR uni043F
ENCODING 1087
SWIDTH 505 0
DWIDTH 8 0
BBX 10 8 -1 0
BITMAP
00FFBEE500
03FF47FC00
07FC07FC00
0AF90AFA00
0DF60DF700
1FF31FF305
4FF01FF373
8FC008ED50
ENDCHAR
STARTCHAR uni0440
ENCODING 1088
SWIDTH 468 0
DWIDTH 7 0
BBX 10 13 -2 -4
BITMAP
0006830000
000FFBDE60
003FF44FE0
006FC02FF1
00AF904FF0
00DF607FC0
01FF30DF70
04FF7BFD10
08FDDEB200
0BF8000000
0EF5000000
2FF2000000
4A60000000
ENDCHAR
STARTCHAR uni0441
ENCODING 1089
SWIDTH 384 0
DWIDTH 6 0
BBX 8 8 -1 0
BITMAP
0019DE60
00CF76D0
07FD0570
0DF80000
1FF40000
3FF30014
1FF50390
05DEC600
ENDCHAR
STARTCHAR uni0442
ENCODING 1090
SWIDTH 752 0
DWIDTH 12 0
BBX 14 8 -1 0
BITMAP
00FFBEE88DE400
03FF48FF48FB00
07FC08FC08FB00
0AF90BF80BF900
0DF60EF50EF600
1FF32FF21FF215
4FF05FE01FF273
8FC08FB008ED50
ENDCHAR
STARTCHAR uni0443
ENCODING 1091
SWIDTH 486 0
DWIDTH 8 0
BBX 10 12 -1 -4
BITMAP
01FF41FF40
03FF14FF10
07FD07FC00
0AFA0BF900
0DF60EF600
1FF44FF254
1FFADFE2A0
09ECBFEA10
002AFF8000
01C3EF4000
04B8FE0000
01BEC30000
ENDCHAR
STARTCHAR uni0444
ENCODING 1092
SWIDTH 738 0
DWIDTH 12 0
BBX 13 15 -1 -4
BITMAP
0000001CE10000
0000004FD00000
0000008F900000
001AEDCFBDE700
01DF81FF53FF10
07FD02FE01FF20
0DF705FB02FF10
1FF408F804FE00
3FF20BF509F900
1FF44FF34FE200
06ED9FEDEB3000
00007FA0000000
0000AF70000000
0000EF30000000
0001A700000000
ENDCHAR
STARTCHAR uni0445
ENCODING 1093
SWIDTH 522 0
DWIDTH 8 0
BBX 9 9 0 0
BITMAP
0000009800
009EC1CE00
072CF62C00
1709F9C300
7207FF6000
9006FC0000
404DFE0050
03C2EF3460
2C205ED600
ENDCHAR
STARTCHAR uni0446
ENCODING 1094
SWIDTH 535 0
DWIDTH 9 0
BBX 9 12 -1 -4
BITMAP
01FF41FF40
03FF14FF10
07FD07FC00
0AFA0BF900
0DF60EF600
1FF43FF300
1FFABFFA40
09EC39EC70
0000000940
0009EFFD00
004FFFE300
0063210000
ENDCHAR
STARTCHAR uni0447
ENCODING 1095
SWIDTH 505 0
DWIDTH 8 0
BBX 9 8 0 0
BITMAP
0FF41FF400
3FF14FF100
6FE07FC000
8FB0CF9000
8FEBFF6000
2DE9FF3150
0002FF7930
0000AEC400
ENDCHAR
STARTCHAR uni0448
ENCODING 1096
SWIDTH 752 0
DWIDTH 12 0
BBX 14 8 -1 0
BITMAP
01FF41FF42FF30
03FF14FF15FE00
07FD07FC08FB00
0AFA0BF90BF800
0DF60EF60EF500
1FF43FF34FF237
1FFABFFACFFAC1
09EC39FC29EB30
ENDCHAR
STARTCHAR uni0449
ENCODING 1097
SWIDTH 782 0
DWIDTH 13 0
BBX 13 12 -1 -4
BITMAP
01FF41FF42FF30
03FF14FF15FE00
07FD07FC08FB00
0AFA0BF90BF800
0DF60EF60EF500
1FF43FF34FF200
1FFABFFACFFA40
09EC39FC2AEC60
00000000000A30
0000001BFFFC00
0000008FFFD300
000000B3210000
ENDCHAR
STARTCHAR uni044A
ENCODING 1098
SWIDTH 448 0
DWIDTH 7 0
BBX 7 8 0 0
BITMAP
6EEF4000
D8880000
06FCEB10
3FB0BF70
BF60AF70
FF30DF40
FF46FA00
5DEC6000
ENDCHAR
STARTCHAR uni044B
ENCODING 1099
SWIDTH 655 0
DWIDTH 10 0
BBX 12 8 -1 0
BITMAP
01FF30005D90
04FE005BEF60
07FBAEA1FF30
0AF809B3FE00
0DF50AB6FB02
1FF20E79F80A
0FF7BD1AFDA6
06DEB203DE80
ENDCHAR
STARTCHAR uni044C
ENCODING 1100
SWIDTH 448 0
DWIDTH 7 0
BBX 8 8 -1 0
BITMAP
00FF4000
03FF1000
06FE9B70
0AFD7EF5
0DF709F7
1FF40DF4
0EF8AFA0
05DFD700
ENDCHAR
STARTCHAR uni044D
ENCODING 1101
SWIDTH 413 0
DWIDTH 7 0
BBX 7 8 -1 0
BITMAP
009DEB20
0940AFB0
00006FE0
007EFFD0
0000BF90
9902FF20
C90AF600
4DDC5000
ENDCHAR
STARTCHAR uni044E
ENCODING 1102
SWIDTH 675 0
DWIDTH 11 0
BBX 14 8 -1 0
BITMAP
00FF402AED5000
03FF13EF47D003
07FD0BFA0BFAA3
0AFFEFF507E200
0DF65FF10AB000
1FF36FE00E6000
4FF04FF18C0000
8FC008EE910000
ENDCHAR
STARTCHAR uni044F
ENCODING 1103
SWIDTH 527 0
DWIDTH 8 0
BBX 10 8 -1 0
BITMAP
0007CEFF90
007F91CF60
00DF20FF30
00DF43FE00
004DFEFC00
390979F906
9F4E2BF827
3DE704DE80
ENDCHAR
STARTCHAR uni0450
ENCODING 1104
SWIDTH 384 0
DWIDTH 6 0
BBX 8 12 -1 0
BITMAP
0005F300
0000E500
00008700
00000000
0019DE60
00CF76D0
07FC09A0
0DF77E30
1FFEA300
3FF30014
1FF50490
05DEC600
ENDCHAR
STARTCHAR uni0451
ENCODING 1105
SWIDTH 384 0
DWIDTH 6 0
BBX 8 11 -1 0
BITMAP
000B91C8
000DA1D9
00000000
0019DE60
00CF76D0
07FC09A0
0DF77E30
1FFEA300
3FF30014
1FF50490
05DEC600
ENDCHAR
STARTCHAR uni0452
ENCODING 1106
SWIDTH 491 0
DWIDTH 8 0
BBX 10 16 -1 -4
BITMAP
0001300000
006FE00000
009FA00000
0AFFFE7000
01FF400000
03FFAED300
07FE2BF900
0AF90BF800
0DF60EF501
1FF32FF264
4FF05FE2A0
8FC09FD810
003DFF6000
01E5DF3000
02B3FC0000
00AEC30000
ENDCHAR
STARTCHAR uni0453
ENCODING 1107
SWIDTH 375 0
DWIDTH 6 0
BBX 8 12 -1 0
BITMAP
000006E3
00000D60
00006A00
00000000
007DEA10
0751FF60
0903FF50
006EFC00
09FF9100
3FF60043
4FF40560
09EEB400
ENDCHAR
STARTCHAR uni0454
ENCODING 1108
SWIDTH 384 0
DWIDTH 6 0
BBX 8 8 -1 0
BITMAP
0019DE70
00CF66C0
07FB0330
0DFFE500
1FF40000
3FF30034
1FF60480
05DEC500
ENDCHAR
STARTCHAR uni0455
ENCODING 1109
SWIDTH 382 0
DWIDTH 6 0
BBX 8 9 -1 0
BITMAP
00036500
000EFB00
005EFC00
00A9FD00
0387FE00
0B45FF00
6E55FF64
680AFD30
0AED9100
ENDCHAR
STARTCHAR uni0456
ENCODING 1110
SWIDTH 267 0
DWIDTH 4 0
BBX 6 11 -1 0
BITMAP
004E80
008FE0
003C60
01FF40
03FF10
07FD00
0AFA00
0DF600
1FF319
1FFAC4
09EC50
ENDCHAR
STARTCHAR uni0457
ENCODING 1111
SWIDTH 267 0
DWIDTH 4 0
BBX 6 11 -1 0
BITMAP
08D1AD
07C19C
000000
01FF40
03FF10
07FD00
0AFA00
0DF600
1FF319
1FFAC4
09EC50
ENDCHAR
STARTCHAR uni0458
ENCODING 1112
SWIDTH 240 0
DWIDTH 4 0
BBX 9 15 -4 -4
BITMAP
000005E700
00000AFC00
000004C500
00000FF500
00003FF100
00006FD000
0000AFA000
0000DF7000
0001FF4340
0004FF1910
0007FE8300
019EFA0000
0D8EF60000
3B3FE10000
0AEC400000
ENDCHAR
STARTCHAR uni0459
ENCODING 1113
SWIDTH 745 0
DWIDTH 12 0
BBX 13 8 -1 0
BITMAP
000009EFF10000
00007B5FD00000
0000D38FCAA400
0002E0CFCAFF20
0006A0FF40DF40
4A1962FF11FE10
8E3E22FF18F700
3DE7007EEC5000
ENDCHAR
STARTCHAR uni045A
ENCODING 1114
SWIDTH 694 0
DWIDTH 11 0
BBX 12 8 -1 0
BITMAP
00FF40DF4000
03FF12FF1000
07FC05FEBC80
0AFFEFFC5EF5
0DF60CF60AF6
1FF30FF30DF3
4FF00EF36F90
8FC005DED600
ENDCHAR
STARTCHAR uni045B
ENCODING 1115
SWIDTH 505 0
DWIDTH 8 0
BBX 10 12 -1 0
BITMAP
0001300000
006FE00000
009FA00000
0AFFFE7000
01FF400000
03FFAED200
07FE2BF900
0AF90BF900
0DF60EF600
1FF31FF316
4FF01FF373
8FC007ED50
ENDCHAR
STARTCHAR uni045C
ENCODING 1116
SWIDTH 501 0
DWIDTH 8 0
BBX 10 12 -1 0
BITMAP
000000BC00
000003E200
00000A5000
0000000000
00FF408E70
03FF2A7C60
06FDA80000
0AFFFFE100
0DF92FF300
1FF31FF136
4FF02FF9B1
8FC009ED40
ENDCHAR
STARTCHAR uni045D
ENCODING 1117
SWIDTH 505 0
DWIDTH 8 0
BBX 10 12 -1 0
BITMAP
0001E70000
00009A0000
00003C0000
0000000000
01FF41FF40
03FF14FF10
07FD07FC00
0AFA0BF900
0DF60EF600
1FF43FF327
1FFABFFAC2
09EC39EC30
ENDCHAR
STARTCHAR uni045E
ENCODING 1118
SWIDTH 486 0
DWIDTH 8 0
BBX 10 16 -1 -4
BITMAP
0006700420
000FE15B00
0007DD9100
0000000000
01FF41FF40
03FF14FF10
07FD07FC00
0AFA0BF900
0DF60EF600
1FF44FF254
1FFADFE2A0
09ECBFEA10
002AFF8000
01C3EF4000
04B8FE0000
01BEC30000
ENDCHAR
STARTCHAR uni045F
ENCODING 1119
SWIDTH 505 0
DWIDTH 8 0
BBX 10 12 -1 -4
BITMAP
01FF41FF40
03FF14FF10
07FD07FC00
0AFA0BF900
0DF60EF600
1FF43FF327
1FFABFFAC2
09EC39EC30
0001B00000
0008F60000
0004F80000
0000810000
ENDCHAR
STARTCHAR uni0462
ENCODING 1122
SWIDTH 659 0
DWIDTH 11 0
BBX 10 12 0 0
BITMAP
0002FF2000
0005FE0000
18DFFFEDDD
9D2DFBCEE6
D91FF40000
794FFCED60
007FD03FF3
00AFA00CF6
00DF700CF6
01FF400EF2
04FF416FA0
07FC5EE910
ENDCHAR
STARTCHAR uni0463
ENCODING 1123
SWIDTH 692 0
DWIDTH 11 0
BBX 12 8 -1 0
BITMAP
00FFBEE60000
03FF47FC0000
07FC07FEDE90
0AF90AF91CF5
0DF60DF50BF6
1FF30FF20EF2
4FF00EF37F80
8FC005DEC600
ENDCHAR
STARTCHAR uni046A
ENCODING 1130
SWIDTH 834 0
DWIDTH 13 0
BBX 13 12 0 0
BITMAP
00039DFFEEEF60
009D7FF8003B00
09E10CFE01C200
1F8006FF496000
1F6001FFDA0000
0335CDEFFDDA10
005FC1AF90DF50
00BF50DF60CF50
00EF21FF31FF20
03FE04FF05FD00
06FC07FC08FA00
1DE50AF905FC00
ENDCHAR
STARTCHAR uni046B
ENCODING 1131
SWIDTH 750 0
DWIDTH 12 0
BBX 11 8 0 0
BITMAP
007CFFFEEC00
08E4BF907200
0AA04FE45000
004CDFFDDA10
01EE2EF3AF60
04FA2FF1CF40
07F85FC1FF10
1CD38F91EE10
ENDCHAR
STARTCHAR uni0472
ENCODING 1138
SWIDTH 665 0
DWIDTH 11 0
BBX 11 12 0 0
BITMAP
0005ADEEA200
02CC6754FC00
1DA2DE10BF40
8E1BF600AF60
BC4FE000AF70
48AFCC91DF50
00EF72CBFF20
02FF4006FD00
04FF200BF600
03FF203FC100
00EF62DE2000
003CFE920000
ENDCHAR
STARTCHAR uni0473
ENCODING 1139
SWIDTH 439 0
DWIDTH 7 0
BBX 10 8 -1 0
BITMAP
0019DE7000
00CF73F103
07FD08F9A6
0DF955F400
2FFACEE000
3FF30C9000
1FF9AE2000
05DEB20000
ENDCHAR
STARTCHAR uni0474
ENCODING 1140
SWIDTH 668 0
DWIDTH 11 0
BBX 12 12 0 0
BITMAP
0018DF5006E8
05D6FF604FB0
4F30FF60AF20
BB00FF61F900
D900EF65F200
4600EF79B000
0000EF7C5000
0000DF7E1000
0000DFAA0000
0000DFE50000
0000CFE10000
0000CFA00000
ENDCHAR
STARTCHAR uni0475
ENCODING 1141
SWIDTH 414 0
DWIDTH 7 0
BBX 8 8 -1 0
BITMAP
01FF46E2
03FF16E5
07FD00A4
0AFA00D1
0DF604C0
1FF31C50
1FFACA00
08EE8000
ENDCHAR
STARTCHAR uni0490
ENCODING 1168
SWIDTH 431 0
DWIDTH 7 0
BBX 11 14 0 0
BITMAP
000000000510
000000002D40
006BEFFFFF30
0BB9FFADC600
7E17FC000000
BB0BF9000000
BA0EF5000000
372FF2000000
005FE0000000
009FB0000000
00CF80000000
00FF40000000
03FF10000000
07FD00000000
ENDCHAR
STARTCHAR uni0491
ENCODING 1169
SWIDTH 342 0
DWIDTH 5 0
BBX 7 9 -1 0
BITMAP
000005E0
00FFEE80
03FF1000
07FD0000
0AF90000
0DF60000
1FF30000
4FF00000
8FC00000
ENDCHAR
STARTCHAR uni0492
ENCODING 1170
SWIDTH 400 0
DWIDTH 6 0
BBX 11 12 0 0
BITMAP
006BDFFFFF10
1BC6FF9BC700
8F26FE000000
BE09FB000000
AD0CF7000000
151FF4000000
07DFFC800000
007FC0000000
00AF90000000
00DF60000000
01FF30000000
04FF10000000
ENDCHAR
STARTCHAR uni0493
ENCODING 1171
SWIDTH 375 0
DWIDTH 6 0
BBX 8 8 -1 0
BITMAP
008DFB20
0941FF60
0506FE20
4EFFFE90
0BFC1000
4FF30063
4FF40650
09EEB300
ENDCHAR
STARTCHAR uni0494
ENCODING 1172
SWIDTH 665 0
DWIDTH 11 0
BBX 11 12 0 0
BITMAP
004ADEFFFF10
09D7FF9BC700
6F35FE000000
BE09FC000000
CD0CF9000000
7D0FFDDD8000
013FF53CF800
006FE006FC00
00AFB005FC00
00DF7008F800
01FF513ED100
04FF4DEA2000
ENDCHAR
STARTCHAR uni0495
ENCODING 1173
SWIDTH 486 0
DWIDTH 8 0
BBX 10 12 -1 -4
BITMAP
00DFFFFF10
03FF8BC600
06FD010000
0AFDCFC000
0DFA7FF300
1FF41FF243
4FF14FD1B0
8FC08FDA20
0019EF7000
01C5EF2000
04A4FC0000
01BEB20000
ENDCHAR
STARTCHAR uni0496
ENCODING 1174
SWIDTH 777 0
DWIDTH 12 0
BBX 15 17 -1 -5
BITMAP
004EE405B907ED10
006FCC0CF76ECF20
00011F2FF5E40100
00000D6FF8900000
00000D9FCC200000
0019EFEFEFE90000
009FA1EF62FF2000
01FF22FF31FF1000
03FD05FE04FD0000
06FB08FB08FA0000
0AF80BF80BF70000
3FD20EF509F90000
000000000AA10000
000000000FD10000
000000000AF80000
0000000001F70000
0000000000800000
ENDCHAR
STARTCHAR uni0497
ENCODING 1175
SWIDTH 882 0
DWIDTH 14 0
BBX 16 12 -1 -4
BITMAP
02BEC308F905DE80
0B33FC0BF64F96C0
0100FE0EF2CF2220
0000FFEFFEFC0000
0003FA6FB5FA0001
6C07F59F85F90036
8C1DB0CF53FD4690
2DDB11FF208ED700
00000000000A6000
00000000001FE000
00000000000BD000
0000000000042000
ENDCHAR
STARTCHAR uni0498
ENCODING 1176
SWIDTH 525 0
DWIDTH 8 0
BBX 9 17 -1 -5
BITMAP
00029DEB20
001A20BFB0
0052008FD0
000000CFA0
000008FD20
0006FFD300
000008FE20
000001FF70
046001FF80
1F9005FF40
1F902DFA00
05CEFD7000
000AB00000
000DF40000
0007FB0000
0000D80000
0000700000
ENDCHAR
STARTCHAR uni0499
ENCODING 1177
SWIDTH 498 0
DWIDTH 8 0
BBX 9 16 0 -8
BITMAP
007DEA1000
0860CF8000
19009FC000
6400AFB000
A000EF6000
7008FB0030
02FFC00640
001DF65800
002CFD4000
079DF90000
1D4FF40000
0AFD600000
02B0000000
09F6000000
05F6000000
0080000000
ENDCHAR
STARTCHAR uni049A
ENCODING 1178
SWIDTH 635 0
DWIDTH 10 0
BBX 11 17 0 -5
BITMAP
0018CE519E90
04D8FF2BCEB0
3F46FE7B0100
AD09FBD20000
BB0CFE700000
371FFDDB3000
003FF16FB000
007FD06FB000
00AFA09F8000
00DF60DF5000
01FF31FF1000
05FF01FF4000
000000D91000
000001FE1000
000000BF8000
0000002F6000
000000170000
ENDCHAR
STARTCHAR uni049B
ENCODING 1179
SWIDTH 501 0
DWIDTH 8 0
BBX 10 12 -1 -4
BITMAP
00FF408E70
03FF2A7C60
06FDA80000
0AFFFFE100
0DF92FF300
1FF31FF215
4FF02FF272
8FC00AFD40
000002C100
000008F800
000003F700
0000007000
ENDCHAR
STARTCHAR uni049C
ENCODING 1180
SWIDTH 721 0
DWIDTH 12 0
BBX 13 12 0 0
BITMAP
0017CE5005DD20
04D8FF205ECF20
3F56FE01D30100
AD09FB68600000
BB0CF8AB000000
481FFFFFD30000
003FF86CF80000
007FD41AF70000
00AFA00DF40000
00DF702FF10000
01FF406FC00000
05FF104EE10000
ENDCHAR
STARTCHAR uni049D
ENCODING 1181
SWIDTH 551 0
DWIDTH 9 0
BBX 11 8 -1 0
BITMAP
00FF4019E600
03FFA393D600
06FDC9300000
0AFBFFFC0000
0DFE85FF0000
1FFC44FD0640
4FF005FFAB00
8FC001BEB200
ENDCHAR
STARTCHAR uni04A0
ENCODING 1184
SWIDTH 691 0
DWIDTH 11 0
BBX 12 12 0 0
BITMAP
006BDFE31AE8
1CA25FF1C7EA
8E008FC97010
CA00BFBC0000
D900EFF50000
4702FFFFD400
0005FF09FA00
0009FC07F900
000CF80BF600
000FF50EF300
003FF23FF000
006FE02EF200
ENDCHAR
STARTCHAR uni04A1
ENCODING 1185
SWIDTH 676 0
DWIDTH 11 0
BBX 13 8 -1 0
BITMAP
017CEED11AE400
0BE36FE1CAF500
1F909FBB601000
0D80CFFFEA0000
0011FF86FF0000
0004FF14FD0540
0007FC05FF9B00
000BF901BEB200
ENDCHAR
STARTCHAR uni04A2
ENCODING 1186
SWIDTH 665 0
DWIDTH 11 0
BBX 12 15 0 -3
BITMAP
0017CE505FF0
04D9FF208FC0
2E65FE00BF80
AD09FB00EF50
CB0CF802FF20
590FFFFFFD00
003FF43AFA00
007FD00CF700
00AFA00FF300
00DF703FF000
01FF407FC000
04FF10AFE610
00000004FFF4
000000008FC0
000000000100
ENDCHAR
STARTCHAR uni04A3
ENCODING 1187
SWIDTH 507 0
DWIDTH 8 0
BBX 10 12 -1 -4
BITMAP
00FF40EF40
03FF12FF10
07FC06FD00
0AFFEFFA00
0DF60CF700
1FF30FF417
4FF01FF373
8FC008FD50
000001C100
000006F900
000002F800
0000007000
ENDCHAR
STARTCHAR uni04A4
ENCODING 1188
SWIDTH 689 0
DWIDTH 11 0
BBX 15 12 0 0
BITMAP
0017CE504EFFFFB0
04D7FF208FD9CC30
2E46FE00BF800000
AD09FB00EF500000
CB0CF802FF200000
591FFFFFFE000000
004FF43AFB000000
007FD00BF8000000
00AFA00EF4000000
00DF703FF1000000
01FF406FD0000000
05FF10AFA0000000
ENDCHAR
STARTCHAR uni04A5
ENCODING 1189
SWIDTH 681 0
DWIDTH 11 0
BBX 13 8 -1 0
BITMAP
00FF40CFFFFF20
03FF12FF8BC800
07FC06FC000000
0AFFEFF9000000
0DF60CF6000000
1FF30FF3280000
4FF01FFAC20000
8FC007ED400000
ENDCHAR
STARTCHAR uni04AA
ENCODING 1194
SWIDTH 497 0
DWIDTH 8 0
BBX 9 17 0 -5
BITMAP
0004BEE900
005FE40D60
02EF700D80
09FE103C30
1EF9000000
5FF5000000
8FF2000000
9FF0000000
AFF0000000
9FF1000320
6FFA227A00
1BFFFF9100
004F820000
004FB00000
001EF50000
0006F50000
0003800000
ENDCHAR
STARTCHAR uni04AB
ENCODING 1195
SWIDTH 384 0
DWIDTH 6 0
BBX 8 12 -1 -4
BITMAP
0019DE70
00CF76C0
07FD0450
0DF70000
1FF40000
3FF30045
1FF94890
06DFD700
004B0000
00AF5000
005F5000
00060000
ENDCHAR
STARTCHAR uni04AE
ENCODING 1198
SWIDTH 620 0
DWIDTH 10 0
BBX 11 12 0 0
BITMAP
0018DF7002E0
05D5EFB00780
4F30AFE00D10
BB006FF35900
D9002FF6B300
46000EFCB000
00000AFF4000
000009FE0000
00000CFB0000
00001FF80000
00003FF50000
00007FF20000
ENDCHAR
STARTCHAR uni04AF
ENCODING 1199
SWIDTH 480 0
DWIDTH 8 0
BBX 8 13 0 -5
BITMAP
2FF309D1
0FF408D3
0EF600B1
0DF700A0
0BF80650
0AFA1A00
08FB9200
07FE6000
07FD0000
0AFA0000
0DF70000
1FD30000
11000000
ENDCHAR
STARTCHAR uni04B0
ENCODING 1200
SWIDTH 620 0
DWIDTH 10 0
BBX 11 12 0 0
BITMAP
0018DF7002E0
05D5EFB00780
4F30AFE00D10
BB006FF35900
D9002FF6B300
46000EFCB000
00000AFF4000
0000EFFFE400
00000CFB0000
00001FF80000
00003FF50000
00007FF20000
ENDCHAR
STARTCHAR uni04B1
ENCODING 1201
SWIDTH 480 0
DWIDTH 8 0
BBX 8 13 0 -5
BITMAP
2FF309D1
0FF408D3
0EF600B1
0DF700A0
0BF80650
0AFA1A00
08FB9200
CFFFF600
07FD0000
0AFA0000
0DF70000
1FD30000
11000000
ENDCHAR
STARTCHAR uni04B6
ENCODING 1206
SWIDTH 695 0
DWIDTH 11 0
BBX 12 15 0 -3
BITMAP
0018CE500CF7
04D8FF201FF4
3F56FE004FF1
AD09FB007FC0
BB0BF800AF90
3709FB13EF50
0002CFEBFF20
00000005FE00
00000008FB00
0000000CF700
0000000FF400
0000003FFA20
00000001BFFB
000000002EE4
000000000100
ENDCHAR
STARTCHAR uni04B7
ENCODING 1207
SWIDTH 505 0
DWIDTH 8 0
BBX 9 12 0 -4
BITMAP
0FF41FF400
3FF14FF100
6FE07FC000
8FB0CF9000
8FEBFF6000
2DE9FF3150
0002FF7940
0000AFF600
00002D1000
00008F7000
00003F7000
0000070000
ENDCHAR
STARTCHAR uni04B8
ENCODING 1208
SWIDTH 715 0
DWIDTH 11 0
BBX 12 12 0 0
BITMAP
0017CE5008FC
04D9FF200BF9
3F66FE000EF6
AD09FB002FF2
BB0BF8005FE0
4809FB66AFB0
0002BEFCEF80
000000A0FF50
00000053FF20
00000006FD00
00000009FA00
0000000DF700
ENDCHAR
STARTCHAR uni04B9
ENCODING 1209
SWIDTH 545 0
DWIDTH 9 0
BBX 10 8 0 0
BITMAP
0FF406FD00
3FF109FA00
6FE44CF700
8FB87FF400
8FFEFFF100
2CFD9FD032
00397FD5A0
00002DEA10
ENDCHAR
STARTCHAR uni04BA
ENCODING 1210
SWIDTH 679 0
DWIDTH 11 0
BBX 10 12 0 0
BITMAP
0017CE5000
04D9FF2000
3F56FE0000
AD09FB0000
BB0CF80000
480FFBDFD4
003FF419FC
007FD005FE
00AFA008FC
00DF700BF9
01FF300EF6
05FF002FF2
ENDCHAR
STARTCHAR uni04BB
ENCODING 1211
SWIDTH 505 0
DWIDTH 8 0
BBX 10 11 -1 0
BITMAP
004DE00000
008FB00000
00CF700000
00FFBEE500
03FF47FC00
06FC07FC00
0AF90AFA00
0DF60DF700
1FF31FF305
4FF01FF373
8FC008ED50
ENDCHAR
STARTCHAR uni04C0
ENCODING 1216
SWIDTH 375 0
DWIDTH 6 0
BBX 7 12 0 0
BITMAP
0018DF40
05D9FF10
4F37FD00
BB0AF900
D90DF600
462FF300
005FE000
008FC000
00BF8000
00EF5000
03FF2000
06FE0000
ENDCHAR
STARTCHAR uni04C1
ENCODING 1217
SWIDTH 777 0
DWIDTH 12 0
BBX 15 15 -1 0
BITMAP
0000003820160000
0000009F53B30000
0000003CDB400000
004EE405B907ED10
006FCC0CF76ECF20
00011F2FF5E40100
00000D6FF8900000
00000D9FCC200000
0019EFEFEFE90000
009FA1EF62FF2000
01FF22FF31FF1000
03FD05FE04FD0000
06FB08FB08FA0000
0AF80BF80BF70000
3FD20EF509F90000
ENDCHAR
STARTCHAR uni04C2
ENCODING 1218
SWIDTH 882 0
DWIDTH 14 0
BBX 16 12 -1 0
BITMAP
0000003810150000
000000AF53B30000
0000003CDB400000
0000000000000000
02BEC308F905DE80
0B33FC0BF64F96C0
0100FE0EF2CF2220
0000FFEFFEFC0000
0003FA6FB5FA0000
5C07F59F85F90026
8C1DB0CF53FC1390
2DEB11FF207ED800
ENDCHAR
STARTCHAR uni04CB
ENCODING 1227
SWIDTH 695 0
DWIDTH 11 0
BBX 12 14 0 -2
BITMAP
0018CE500CF7
05D7FF201FF4
4F46FD004FF1
BC09FA007FD0
AB0BF800BF90
1509FC46EF60
0002CFDAFF30
00000005FF00
00000008FC00
0000000BF800
0000000EF500
000314AFF200
000FFFC21000
0008E9000000
ENDCHAR
STARTCHAR uni04CC
ENCODING 1228
SWIDTH 516 0
DWIDTH 8 0
BBX 9 12 0 -4
BITMAP
0DF70DF600
1FF41FF300
3FF14FF000
6FE09FC000
5FFBFF9000
1CE9EF6050
0000FF8670
0000BFFA00
00002D3000
08EFF90000
3FFFB10000
7621000000
ENDCHAR
STARTCHAR uni04CF
ENCODING 1231
SWIDTH 267 0
DWIDTH 4 0
BBX 6 12 -1 0
BITMAP
000020
005FE0
009FB0
00CF70
01FF40
03FF10
07FD00
0AFA00
0DF600
1FF31A
1FFAB3
09EC40
ENDCHAR
STARTCHAR uni04D0
ENCODING 1232
SWIDTH 668 0
DWIDTH 11 0
BBX 13 17 0 -2
BITMAP
00000001830060
00000006F82960
00000001BDC600
00000001AED000
0000002DDFC000
000001D6AF9000
00000BA0DF6000
00006F21FF3000
19DEFE87FE0000
BE39F22BFB0000
7A2FA00BF80000
009F500EF50000
01EE003FF10000
05FA006FD00000
08F700AFA00000
09F50000000000
04D50000000000
ENDCHAR
STARTCHAR uni04D1
ENCODING 1233
SWIDTH 526 0
DWIDTH 8 0
BBX 10 12 -1 0
BITMAP
0000750061
0003FB2790
00009DC800
0000000000
0019EDCF90
01CF71FF50
07FC02FF20
0DF705FE00
1FF409FB00
3FF30DF809
1FFAADFC96
06EE54ED70
ENDCHAR
STARTCHAR uni04D2
ENCODING 1234
SWIDTH 668 0
DWIDTH 11 0
BBX 13 17 0 -2
BITMAP
00000001C82D60
00000001D92E70
00000000000000
00000001AED000
0000002DDFC000
000001D6AF9000
00000BA0DF6000
00006F21FF3000
19DEFE87FE0000
BE39F22BFB0000
7A2FA00BF80000
009F500EF50000
01EE003FF10000
05FA006FD00000
08F700AFA00000
09F50000000000
04D50000000000
ENDCHAR
STARTCHAR uni04D3
ENCODING 1235
SWIDTH 526 0
DWIDTH 8 0
BBX 10 11 -1 0
BITMAP
0000AB0B90
0000BC0CB0
0000000000
0019EDCF90
01CF71FF50
07FC02FF20
0DF705FE00
1FF409FB00
3FF30DF809
1FFAADFC96
06EE54ED70
ENDCHAR
STARTCHAR uni04D4
ENCODING 1236
SWIDTH 764 0
DWIDTH 12 0
BBX 15 14 0 -2
BITMAP
00000002AEC51440
0000002CBFECEB00
000001D3BF900000
00000B70EF500000
00006D02FF200000
3ADEFEBAFFFF5000
CE09F10AFB330000
232FA00CF7000000
009F401FF4000000
01EE003FF1000000
05FA007FFDDD5000
08F700AFFFFF4000
09F5000000000000
04D5000000000000
ENDCHAR
STARTCHAR uni04D5
ENCODING 1237
SWIDTH 650 0
DWIDTH 10 0
BBX 12 8 -1 0
BITMAP
002AEEB8DEA0
005309FFA3F1
000008FF25E0
029DEFFB4E60
0CFA1EFEC500
1FF32FF70004
1FF48FF90282
07EE86DFD810
ENDCHAR
STARTCHAR uni04D6
ENCODING 1238
SWIDTH 459 0
DWIDTH 7 0
BBX 9 15 0 0
BITMAP
0002820060
0008F63A50
0002BDB500
0003CEC300
003FC17C00
00AF408C00
00DF309400
00AF700000
005FE40000
09FE300000
5FF6000000
BFF1000000
DFE0000400
9FF4038100
1AEEC71000
ENDCHAR
STARTCHAR uni04D7
ENCODING 1239
SWIDTH 384 0
DWIDTH 6 0
BBX 8 12 -1 0
BITMAP
00184006
005F9287
001ADC60
00000000
0019DE60
00CF76D0
07FC09A0
0DF77E30
1FFEA300
3FF30014
1FF50490
05DEC600
ENDCHAR
STARTCHAR uni04D8
ENCODING 1240
SWIDTH 544 0
DWIDTH 9 0
BBX 9 12 0 0
BITMAP
006CFEA200
05FEEFFD00
058006FF50
000000FF80
000000FF90
0006BEFF70
02CE56FF40
1DF309FE00
7F900EF700
AF506FC000
7F63ED2000
1AEE910000
ENDCHAR
STARTCHAR uni04D9
ENCODING 1241
SWIDTH 404 0
DWIDTH 6 0
BBX 7 8 0 0
BITMAP
08DEC300
2707FD00
0003FF20
03BEFF10
4F68FD00
C80DF600
E67FA000
8ED70000
ENDCHAR
STARTCHAR uni04DC
ENCODING 1244
SWIDTH 777 0
DWIDTH 12 0
BBX 15 15 -1 0
BITMAP
0000003D54D40000
0000003E65E40000
0000000000000000
004EE405B907ED10
006FCC0CF76ECF20
00011F2FF5E40100
00000D6FF8900000
00000D9FCC200000
0019EFEFEFE90000
009FA1EF62FF2000
01FF22FF31FF1000
03FD05FE04FD0000
06FB08FB08FA0000
0AF80BF80BF70000
3FD20EF509F90000
ENDCHAR
STARTCHAR uni04DD
ENCODING 1245
SWIDTH 882 0
DWIDTH 14 0
BBX 16 11 -1 0
BITMAP
0000003D54D30000
0000003E65E40000
0000000000000000
02BEC308F905DE80
0B33FC0BF64F96C0
0100FE0EF2CF2220
0000FFEFFEFC0000
0003FA6FB5FA0000
5C07F59F85F90026
8C1DB0CF53FC1390
2DEB11FF207ED800
ENDCHAR
STARTCHAR uni04DE
ENCODING 1246
SWIDTH 525 0
DWIDTH 8 0
BBX 10 15 -1 0
BITMAP
00005D36D2
00005E47E2
0000000000
00029DEB20
001A20BFB0
0052008FD0
000000CFA0
000008FD20
0006FFD300
000008FE20
000001FF80
046001FF80
1F9005FF30
1F902DF800
05CEEB5000
ENDCHAR
STARTCHAR uni04DF
ENCODING 1247
SWIDTH 498 0
DWIDTH 8 0
BBX 9 15 0 -4
BITMAP
006D27C100
006E38E100
0000000000
007DEA1000
0860CF8000
19009FC000
6400AFB000
A000EF6000
7008FB0030
02FFC00640
001DF65900
002BFD5000
07ADF90000
1D2FF30000
0AED500000
ENDCHAR
STARTCHAR uni04E2
ENCODING 1250
SWIDTH 705 0
DWIDTH 11 0
BBX 12 14 0 0
BITMAP
000004EEEEC0
000000000000
0017CE500CFA
04D8FF206FF6
3F56FE01EFF3
AD09FB08FFF0
BB0CF82EBFC0
370FF4AABF90
003FF4E2EF60
007FDB82FF20
00AFED15FE00
00DFF509FB00
01FFC00CF800
05FF300FF500
ENDCHAR
STARTCHAR uni04E3
ENCODING 1251
SWIDTH 505 0
DWIDTH 8 0
BBX 10 10 -1 0
BITMAP
000DEEEE40
0000000000
01FF41FF40
03FF14FF10
07FD07FC00
0AFA0BF900
0DF60EF600
1FF43FF327
1FFABFFAC2
09EC39EC30
ENDCHAR
STARTCHAR uni04E4
ENCODING 1252
SWIDTH 705 0
DWIDTH 11 0
BBX 12 15 0 0
BITMAP
000001C82D60
000001D92E70
000000000000
0017CE500CFA
04D8FF206FF6
3F56FE01EFF3
AD09FB08FFF0
BB0CF82EBFC0
370FF4AABF90
003FF4E2EF60
007FDB82FF20
00AFED15FE00
00DFF509FB00
01FFC00CF800
05FF300FF500
ENDCHAR
STARTCHAR uni04E5
ENCODING 1253
SWIDTH 505 0
DWIDTH 8 0
BBX 10 11 -1 0
BITMAP
0007D18C00
0008E29D10
0000000000
01FF41FF40
03FF14FF10
07FD07FC00
0AFA0BF900
0DF60EF600
1FF43FF327
1FFABFFAC2
09EC39EC30
ENDCHAR
STARTCHAR uni04E6
ENCODING 1254
SWIDTH 665 0
DWIDTH 11 0
BBX 11 15 0 0
BITMAP
000004D45D30
000004E56E30
000000000000
0005ADEEA200
02CC5644FC00
1DA2DE20BF40
8E1BF700AF60
BC4FF100AF70
48AFB000CF50
00EF6001FF20
02FF3006FD00
03FF200CF600
03FF205FC100
00EF96EE2000
003CFE920000
ENDCHAR
STARTCHAR uni04E7
ENCODING 1255
SWIDTH 439 0
DWIDTH 7 0
BBX 10 11 -1 0
BITMAP
0005D27C10
0006E38E20
0000000000
0019DE7000
00CF83F102
07FD07F787
0DF805F500
2FF406E000
3FF30A9000
1FF44E2000
05DEB30000
ENDCHAR
STARTCHAR uni04E8
ENCODING 1256
SWIDTH 665 0
DWIDTH 11 0
BBX 11 12 0 0
BITMAP
0004ADEEA200
01BC5544FC00
0CB2CF40BF40
7F2AF900AF60
AC4FF300AF70
8BAFC000CF50
01EFECCCFF20
02FF5003FD00
03FF2009F600
03FF202FC100
00EF52CE2000
004CED920000
ENDCHAR
STARTCHAR uni04E9
ENCODING 1257
SWIDTH 439 0
DWIDTH 7 0
BBX 10 8 -1 0
BITMAP
0019DE7000
00CF83F102
07FD07F787
0FFFEFF700
2FF406E000
3FF30A9000
1FF44E2000
05DEB30000
ENDCHAR
STARTCHAR uni04EE
ENCODING 1262
SWIDTH 644 0
DWIDTH 10 0
BBX 12 14 0 0
BITMAP
000001EEEEE1
000000000000
0018CE8000C3
04D6CFC004C0
3F508FF10A50
AD004FF42D00
BB001FF78800
37000BFBD200
000007FFA000
000003FF4000
000000EC0000
000130B60000
0009F9D00000
0006EC200000
ENDCHAR
STARTCHAR uni04EF
ENCODING 1263
SWIDTH 486 0
DWIDTH 8 0
BBX 10 14 -1 -4
BITMAP
000DEEEE30
0000000000
01FF41FF40
03FF14FF10
07FD07FC00
0AFA0BF900
0DF60EF600
1FF44FF254
1FFADFE2A0
09ECBFEA10
002AFF8000
01C3EF4000
04B8FE0000
01BEC30000
ENDCHAR
STARTCHAR uni04F0
ENCODING 1264
SWIDTH 644 0
DWIDTH 10 0
BBX 12 15 0 0
BITMAP
000000AB0B90
000000BC0CB0
000000000000
0018CE8000C3
04D6CFC004C0
3F508FF10A50
AD004FF42D00
BB001FF78800
37000BFBD200
000007FFA000
000003FF4000
000000EC0000
000130B60000
0009F9D00000
0006EC200000
ENDCHAR
STARTCHAR uni04F1
ENCODING 1265
SWIDTH 486 0
DWIDTH 8 0
BBX 10 15 -1 -4
BITMAP
0007C18C00
0008E1AD00
0000000000
01FF41FF40
03FF14FF10
07FD07FC00
0AFA0BF900
0DF60EF600
1FF44FF254
1FFADFE2A0
09ECBFEA10
002AFF8000
01C3EF4000
04B8FE0000
01BEC30000
ENDCHAR
STARTCHAR uni04F2
ENCODING 1266
SWIDTH 644 0
DWIDTH 10 0
BBX 12 16 0 0
BITMAP
00000008D2D8
0000001E47C0
000000871D20
000000000000
0018CE8000C3
04D6CFC004C0
3F508FF10A50
AD004FF42D00
BB001FF78800
37000BFBD200
000007FFA000
000003FF4000
000000EC0000
000130B60000
0009F9D00000
0006EC200000
ENDCHAR
STARTCHAR uni04F3
ENCODING 1267
SWIDTH 486 0
DWIDTH 8 0
BBX 10 16 -1 -4
BITMAP
00006E3BB0
0000D64E10
0005A0B400
0000000000
01FF41FF40
03FF14FF10
07FD07FC00
0AFA0BF900
0DF60EF600
1FF44FF254
1FFADFE2A0
09ECBFEA10
002AFF8000
01C3EF4000
04B8FE0000
01BEC30000
ENDCHAR
STARTCHAR uni04F4
ENCODING 1268
SWIDTH 695 0
DWIDTH 11 0
BBX 12 15 0 0
BITMAP
000000C81C70
000000DA1E80
000000000000
0018CE500CF7
04D8FF201FF4
3F56FE004FF1
AD09FB007FD0
BB0BF800AF90
3709FB13EF60
0002CFDAFF30
00000005FF00
00000008FC00
0000000BF900
0000000EF500
0000002FF200
ENDCHAR
STARTCHAR uni04F5
ENCODING 1269
SWIDTH 505 0
DWIDTH 8 0
BBX 9 11 0 0
BITMAP
008C1AB000
009D1BC000
0000000000
0FF41FF400
3FF14FF100
6FE07FC000
8FB0CF9000
8FEBFF6000
2DE9FF3150
0002FF7930
0000AEC400
ENDCHAR
STARTCHAR uni04F6
ENCODING 1270
SWIDTH 442 0
DWIDTH 7 0
BBX 11 15 0 -3
BITMAP
005ADFFFFF10
0BC6FF9BC700
7F25FE000000
BE09FB000000
BD0CF8000000
271FF4000000
004FF1000000
007FD0000000
00AFA0000000
00DF60000000
02FF30000000
05FF61000000
001CFFA00000
0003EE400000
000010000000
ENDCHAR
STARTCHAR uni04F7
ENCODING 1271
SWIDTH 375 0
DWIDTH 6 0
BBX 8 12 -1 -4
BITMAP
007DEB10
0751FF60
0703FF50
006EF900
09FE5000
3FF30073
4FF96B50
09EEA300
00770000
00FF1000
00AE1000
00440000
ENDCHAR
STARTCHAR uni04F8
ENCODING 1272
SWIDTH 909 0
DWIDTH 15 0
BBX 15 15 0 0
BITMAP
00000002D54D4000
00000003E64E4000
0000000000000000
0018CE5000006FE0
04D8FF2000009FA0
3F56FE000000CF70
AD09FB000001FF40
BB0CF8000004FF10
370FFDED8007FD00
003FF22EF60AFA00
007FD009F90DF600
00AFA009F91FF300
00DF700BF55FF000
01FF514FC08FC000
05FF3DEA20BF9000
ENDCHAR
STARTCHAR uni04F9
ENCODING 1273
SWIDTH 642 0
DWIDTH 10 0
BBX 11 11 0 0
BITMAP
0003A1590000
0007F4AF1000
000020010000
0CD20004B600
3FE003BFF400
6FBADA3FF100
9F80A95FC000
DF50BA8F9010
FF11E6BF6190
FF7AD1BFBB30
6DEA204EE600
ENDCHAR
STARTCHAR uni051A
ENCODING 1306
SWIDTH 665 0
DWIDTH 11 0
BBX 11 14 0 -2
BITMAP
0005ADEEA200
02CB5644FC00
1E92DE20BF40
8E1BF700AF60
AC4FE100BF70
37AFA000DF60
00EF6001FF30
02FF3007FE00
03FF200DF800
03FFABAFE100
00EF78FF4000
003CEEFB0000
0000009FE600
000000056100
ENDCHAR
STARTCHAR uni051B
ENCODING 1307
SWIDTH 486 0
DWIDTH 8 0
BBX 9 12 -1 -4
BITMAP
0019EDDF80
01CF81FF50
07FD02FF20
0DF805FE00
1FF408FA00
3FF30BF700
1FF54FF400
06ED9FF100
00007FD000
0000AF9000
0000DF6000
0001B71000
ENDCHAR
STARTCHAR uni051C
ENCODING 1308
SWIDTH 962 0
DWIDTH 15 0
BBX 17 12 0 0
BITMAP
0018DF5005FD000C50
05D6FF600AFE002E00
4F30FF601EFE007900
BB00FF605FFE00C300
D900EF60ABFE02D000
4600EF71D6FF077000
0000EF7596FF0C2000
0000DF7A35FF2B0000
0000DF8C05FF850000
0000DFD704FFC10000
0000CFF104FF900000
0000CFB004FF400000
ENDCHAR
STARTCHAR uni051D
ENCODING 1309
SWIDTH 661 0
DWIDTH 11 0
BBX 12 8 -1 0
BITMAP
01FF41FF47E2
03FF14FF16E5
07FD07FC00A3
0AFA0BF900E1
0DF60EF605B0
1FF43FF31D40
1FFACFFAD900
09EC39EE8000
ENDCHAR
STARTCHAR uni0524
ENCODING 1316
SWIDTH 742 0
DWIDTH 12 0
BBX 13 15 0 -3
BITMAP
006BEFFEEDDE80
0BE9FF8AEFFC20
7F36FE00BF9000
BC09FB00EF5000
BB0CF702FF2000
261FF406FE0000
004FF109FB0000
007FD00CF80000
00AFA01FF40000
00DF704FF10000
01FF307FD00000
05FF00AFC30000
00000004FFF400
000000008FB000
00000000010000
ENDCHAR
STARTCHAR uni0525
ENCODING 1317
SWIDTH 505 0
DWIDTH 8 0
BBX 10 12 -1 -4
BITMAP
00FFBEE500
03FF47FC00
07FC07FC00
0AF90AF900
0DF60DF501
1FF31FF238
4FF01FFBC1
8FC008FC30
000001C100
000007F900
000003F900
0000007100
ENDCHAR
STARTCHAR uni1E0C
ENCODING 7692
SWIDTH 663 0
DWIDTH 11 0
BBX 11 16 0 -4
BITMAP
0018CEEC5000
05E8332BF600
4F66FD02FE00
BC09FA00EF30
D90DF700EF40
791FF400FF30
004FF102FF20
008FC005FD00
00BF900AF800
00EF602FE100
03FF41BF5000
06FEBED60000
000000000000
0007B2000000
000FF7000000
000AE3000000
ENDCHAR
STARTCHAR uni1E0D
ENCODING 7693
SWIDTH 525 0
DWIDTH 8 0
BBX 10 15 -1 -4
BITMAP
0000001CE4
0000004FF1
0000008FC0
0019EDCF90
01CF81FF60
07FD02FF30
0DF805FF00
1FF408FC00
3FF30BF904
1FF53FF827
06ED97EE80
0000000000
002C600000
008FE00000
004E900000
ENDCHAR
STARTCHAR uni1E20
ENCODING 7712
SWIDTH 578 0
DWIDTH 9 0
BBX 10 18 0 -3
BITMAP
0002EEEEE0
0000000000
0000000000
0005BEEB30
00AFD409D0
09FE2009F1
2FF7000B90
7FF2000000
AFD0002750
AFC0007F80
8FD000DF40
2FF519FF10
04CEC8FC00
000007F900
02CD5BF500
0CA13FE000
0CA08F6000
03BED60000
ENDCHAR
STARTCHAR uni1E21
ENCODING 7713
SWIDTH 507 0
DWIDTH 8 0
BBX 10 15 -1 -4
BITMAP
0008EEEE80
0000000000
0000000000
0019EDCF90
01CF81FF60
07FD02FF20
0DF805FE00
1FF408FB00
3FF30BF804
1FF53FF565
06EEBFFA80
0004BFE200
0088AFA000
00D1EF5000
007ED70000
ENDCHAR
STARTCHAR uni1E24
ENCODING 7716
SWIDTH 665 0
DWIDTH 11 0
BBX 11 16 0 -4
BITMAP
0017CE505FF0
04EAFF208FC0
2E75FE00BF90
AE08FB00EF50
CB0CF802FF20
590FFFFFFE00
003FF43AFB00
006FD00BF800
00AFA00EF500
00DF703FF100
01FF406FD000
04FF10AFA000
000000000000
0003C6000000
0009FD000000
0004E8000000
ENDCHAR
STARTCHAR uni1E25
ENCODING 7717
SWIDTH 505 0
DWIDTH 8 0
BBX 10 15 -1 -4
BITMAP
004DE00000
008FB00000
00CF700000
00FFBEE500
03FF47FC00
06FC07FC00
0AF90AFA00
0DF60DF700
1FF31FF305
4FF01FF373
8FC008ED50
0000000000
004C500000
00AFC00000
006E600000
ENDCHAR
STARTCHAR uni1E2A
ENCODING 7722
SWIDTH 665 0
DWIDTH 11 0
BBX 11 15 0 -3
BITMAP
0017CE505FF0
04EAFF208FC0
2E75FE00BF90
AE08FB00EF50
CB0CF802FF20
590FFFFFFE00
003FF43AFB00
006FD00BF800
00AFA00EF500
00DF703FF100
01FF406FD000
04FF10AFA000
002100210000
00CA03E40000
003BDB400000
ENDCHAR
STARTCHAR uni1E2B
ENCODING 7723
SWIDTH 505 0
DWIDTH 8 0
BBX 10 14 -1 -3
BITMAP
004DE00000
008FB00000
00CF700000
00FFBEE500
03FF47FC00
06FC07FC00
0AF90AFA00
0DF60DF700
1FF31FF305
4FF01FF373
8FC008ED50
0210021000
0D804F3000
04CDB30000
ENDCHAR
STARTCHAR uni1E36
ENCODING 7734
SWIDTH 379 0
DWIDTH 6 0
BBX 11 16 0 -4
BITMAP
0028DF400000
06D8FF100000
5F27FC000000
CB0BF9000000
C90EF6000000
352FF2000000
005FE0000000
009FB0000000
00CF80000000
00FF40000000
03FF10000000
07FF60000000
0028FC300000
06C33DFA4330
0DF901BFFF60
08E40008EC10
ENDCHAR
STARTCHAR uni1E37
ENCODING 7735
SWIDTH 293 0
DWIDTH 5 0
BBX 7 15 -1 -4
BITMAP
00069400
001FF400
005FF100
008FC000
00BF9000
00EF6000
03FF3000
06FE0000
09FB0320
0AFA1900
04DE9100
00000000
08B10000
1FF60000
0BD20000
ENDCHAR
STARTCHAR uni1E42
ENCODING 7746
SWIDTH 787 0
DWIDTH 13 0
BBX 12 16 1 -4
BITMAP
003AEF600AFC
06D5FF501FFA
5F27FF407FF8
BB0CFF40DFF6
C93FFF34FFF3
258BFF3ACFF1
00D6FF4F8FE0
04E2FF9B7FC0
0A92FFE5AFA0
1E43FFE0CF80
6D03FF80EF60
B804FF21FF40
000000000000
0006C3000000
000DF9000000
0008E4000000
ENDCHAR
STARTCHAR uni1E43
ENCODING 7747
SWIDTH 752 0
DWIDTH 12 0
BBX 14 12 -1 -4
BITMAP
00FFBEE88DE400
03FF48FF48FB00
07FC08FC08FB00
0AF90BF80BF900
0DF60EF50EF600
1FF32FF21FF215
4FF05FE01FF273
8FC08FB008ED50
00000000000000
00008B10000000
0001FF60000000
0000BD20000000
ENDCHAR
STARTCHAR uni1E44
ENCODING 7748
SWIDTH 668 0
DWIDTH 11 0
BBX 12 16 0 0
BITMAP
000000002000
00000008F900
00000007E800
000000000000
006CEE4002F6
0AD7FF8006F2
7F26FFB009E0
CB0AFFE00CB0
DA0DCFF30F80
5B1F7DF63F40
005F49F96F10
008F16FD9D00
00BC02FFDA00
00E800EFF600
03F500AFF300
06F1007FE000
ENDCHAR
STARTCHAR uni1E45
ENCODING 7749
SWIDTH 505 0
DWIDTH 8 0
BBX 10 12 -1 0
BITMAP
00001DB000
00005FF200
00001B9000
0000000000
00FFBEE500
03FF47FC00
07FC07FC00
0AF90AFA00
0DF60DF700
1FF31FF305
4FF01FF373
8FC008ED50
ENDCHAR
STARTCHAR uni1E46
ENCODING 7750
SWIDTH 668 0
DWIDTH 11 0
BBX 12 16 0 -4
BITMAP
006CEE4002F6
0AD7FF8006F2
7F26FFB009E0
CB0AFFE00CB0
DA0DCFF30F80
5B1F7DF63F40
005F49F96F10
008F16FD9D00
00BC02FFDA00
00E800EFF600
03F500AFF300
06F1007FE000
000000000000
0002B8000000
0007FF000000
0003EA000000
ENDCHAR
STARTCHAR uni1E47
ENCODING 7751
SWIDTH 505 0
DWIDTH 8 0
BBX 10 12 -1 -4
BITMAP
00FFBEE500
03FF47FC00
07FC07FC00
0AF90AFA00
0DF60DF700
1FF31FF305
4FF01FF373
8FC008ED50
0000000000
002C600000
008FE00000
004E900000
ENDCHAR
STARTCHAR uni1E5A
ENCODING 7770
SWIDTH 601 0
DWIDTH 10 0
BBX 10 16 0 -4
BITMAP
0017CEEA20
02D9311CD0
1D85EE06F4
9E09FB06F4
DA0DF80CE0
C91FF68F50
364FFFFE40
008FE09FA0
00BFB08F90
00EF70DF40
03FF32FF10
06FE02EF20
0000000000
0004C50000
000AFC0000
0005E70000
ENDCHAR
STARTCHAR uni1E5B
ENCODING 7771
SWIDTH 376 0
DWIDTH 6 0
BBX 8 12 -1 -4
BITMAP
00FF9DD1
03FF7AE2
07FC0010
0AF90000
0DF60000
1FF30000
4FF00000
8FC00000
00000000
4C400000
BFB00000
6E600000
ENDCHAR
STARTCHAR uni1E60
ENCODING 7776
SWIDTH 570 0
DWIDTH 9 0
BBX 9 16 0 0
BITMAP
0000002000
000006FB00
000005EA00
0000000000
0003BEEA10
003FE31DA0
008FB00CC0
007FE12B50
001EFC1000
0004FFA000
00106FF800
09FD1AFF10
4FB104FF30
6F6004FE10
2FC33DF700
04CEEB5000
ENDCHAR
STARTCHAR uni1E61
ENCODING 7777
SWIDTH 382 0
DWIDTH 6 0
BBX 8 12 -1 0
BITMAP
0001CC10
0003FF40
0000AA00
00000000
000AEA00
003FFB00
009BFC00
01B7FD00
0946FE00
5F65FF34
6809FE60
1AEE9200
ENDCHAR
STARTCHAR uni1E62
ENCODING 7778
SWIDTH 570 0
DWIDTH 9 0
BBX 9 16 0 -4
BITMAP
0003BEEA10
003FE31DA0
008FB00CC0
007FE12B50
001EFC1000
0004FFA000
00106FF800
09FD1AFF10
4FB104FF30
6F6004FE10
2FC33DF700
04CEEB5000
0000000000
007B200000
00FF700000
00AE300000
ENDCHAR
STARTCHAR uni1E63
ENCODING 7779
SWIDTH 382 0
DWIDTH 6 0
BBX 8 12 -1 -4
BITMAP
000AEA00
003FFB00
008BFC00
01B7FD00
0956FE00
5F65FF13
6B29FE50
1AEEA200
00000000
08B10000
1FF60000
0AE20000
ENDCHAR
STARTCHAR uni1E6C
ENCODING 7788
SWIDTH 481 0
DWIDTH 8 0
BBX 12 16 0 -4
BITMAP
005BDFD94145
0AB35FFFFFF4
6E108FF9BC80
CA00BFC00000
D900EF800000
9902FF500000
0205FF100000
0008FD000000
000CF9000000
000EF6000000
003FF2000000
006FE0000000
000000000000
006C20000000
00EF80000000
009E40000000
ENDCHAR
STARTCHAR uni1E6D
ENCODING 7789
SWIDTH 267 0
DWIDTH 4 0
BBX 6 15 -1 -4
BITMAP
001460
009FB0
00CF80
07FFF4
03FF20
06FE00
09FA00
0DF700
1FF418
1FFAB4
09EC50
000000
4C4000
BFB000
6E6000
ENDCHAR
STARTCHAR Wgrave
ENCODING 7808
SWIDTH 962 0
DWIDTH 15 0
BBX 17 16 0 0
BITMAP
0000000009F0000000
0000000004F2000000
0000000000E5000000
000000000000000000
0018DF5005FD000C50
05D6FF600AFE002E00
4F30FF601EFE007900
BB00FF605FFE00C300
D900EF60ABFE02D000
4600EF71D6FF077000
0000EF7596FF0C2000
0000DF7A35FF2B0000
0000DF8C05FF850000
0000DFD704FFC10000
0000CFF104FF900000
0000CFB004FF400000
ENDCHAR
STARTCHAR wgrave
ENCODING 7809
SWIDTH 661 0
DWIDTH 11 0
BBX 12 12 -1 0
BITMAP
00000AE00000
000005F10000
000001E30000
000000000000
01FF41FF47E2
03FF14FF16E5
07FD07FC00A3
0AFA0BF900E1
0DF60EF605B0
1FF43FF31D40
1FFACFFAD900
09EC39EE8000
ENDCHAR
STARTCHAR Wacute
ENCODING 7810
SWIDTH 962 0
DWIDTH 15 0
BBX 17 16 0 0
BITMAP
000000000002830000
00000000000AC00000
00000000004E200000
000000000000000000
0018DF5005FD000C50
05D6FF600AFE002E00
4F30FF601EFE007900
BB00FF605FFE00C300
D900EF60ABFE02D000
4600EF71D6FF077000
0000EF7596FF0C2000
0000DF7A35FF2B0000
0000DF8C05FF850000
0000DFD704FFC10000
0000CFF104FF900000
0000CFB004FF400000
ENDCHAR
STARTCHAR wacute
ENCODING 7811
SWIDTH 661 0
DWIDTH 11 0
BBX 12 12 -1 0
BITMAP
00000006F300
0000000D9000
0000004E1000
000000230000
01FF41FF47E2
03FF14FF16E5
07FD07FC00A3
0AFA0BF900E1
0DF60EF605B0
1FF43FF31D40
1FFACFFAD900
09EC39EE8000
ENDCHAR
STARTCHAR Wdieresis
ENCODING 7812
SWIDTH 962 0
DWIDTH 15 0
BBX 17 15 0 0
BITMAP
000000004D45D20000
000000004E46E30000
000000000000000000
0018DF5005FD000C50
05D6FF600AFE002E00
4F30FF601EFE007900
BB00FF605FFE00C300
D900EF60ABFE02D000
4600EF71D6FF077000
0000EF7596FF0C2000
0000DF7A35FF2B0000
0000DF8C05FF850000
0000DFD704FFC10000
0000CFF104FF900000
0000CFB004FF400000
ENDCHAR
STARTCHAR wdieresis
ENCODING 7813
SWIDTH 661 0
DWIDTH 11 0
BBX 12 11 -1 0
BITMAP
00004E56E300
00004D45D300
000000000000
01FF41FF47E2
03FF14FF16E5
07FD07FC00A3
0AFA0BF900E1
0DF60EF605B0
1FF43FF31D40
1FFACFFAD900
09EC39EE8000
ENDCHAR
STARTCHAR uni1E8E
ENCODING 7822
SWIDTH 620 0
DWIDTH 10 0
BBX 11 16 0 0
BITMAP
000000002000
0000000BF700
00000009E600
000000000000
0018DF7002E0
05D5EFB00780
4F30AFE00D10
BB006FF35900
D9002FF6B300
46000EFCB000
00000AFF4000
000009FE0000
00000CFB0000
00001FF80000
00003FF50000
00007FF20000
ENDCHAR
STARTCHAR uni1E8F
ENCODING 7823
SWIDTH 505 0
DWIDTH 8 0
BBX 10 16 -1 -4
BITMAP
00004E8000
00008FE000
00003C6000
0000000000
01FF41FF40
03FF14FF10
07FD07FC00
0AFA0BF900
0DF60EF600
1FF44FF254
1FFADFE2A0
09ECBFEA10
002AFF8000
01C3EF4000
04B8FE0000
01BEC30000
ENDCHAR
STARTCHAR uni1E92
ENCODING 7826
SWIDTH 542 0
DWIDTH 9 0
BBX 9 20 0 -4
BITMAP
0000000660
0000003F40
000000BA00
0000017100
02CFEEFF90
08F108FF20
04901EF900
00008FF200
0001EF9000
0008FF2000
001EF90000
008FF20000
01EF900000
08FF205800
2FF900BE00
9FFFEFD400
0000000000
006C300000
00DF900000
008E500000
ENDCHAR
STARTCHAR uni1E93
ENCODING 7827
SWIDTH 428 0
DWIDTH 7 0
BBX 7 12 0 -4
BITMAP
06EEFF80
1F64FE10
051CF600
006FD000
01EF5000
08FB0300
2FF34F20
BFFFE800
00000000
1B900000
5FF20000
1DC00000
ENDCHAR
STARTCHAR uni1E97
ENCODING 7831
SWIDTH 267 0
DWIDTH 4 0
BBX 7 13 -1 0
BITMAP
00B83D50
00D93E50
00146000
009FB000
00CF8000
07FFF400
03FF2000
06FE0000
09FA0000
0DF70000
1FF41800
1FFAB400
09EC5000
ENDCHAR
STARTCHAR uni1E9E
ENCODING 7838
SWIDTH 559 0
DWIDTH 9 0
BBX 11 16 -1 -4
BITMAP
00008EFFFF50
0007FC19FD00
000EF52FF500
005FE09FD000
009FB2FF5000
00CF77FD0000
01FF40CF4000
03FF106FC000
07FC004FF000
0AF9005FD000
0DF621CF6000
1FF4DFD60000
4FE000000000
7FB000000000
AF8000000000
751000000000
ENDCHAR
STARTCHAR uni1EA0
ENCODING 7840
SWIDTH 668 0
DWIDTH 11 0
BBX 11 16 0 -4
BITMAP
00000001AED0
0000002DDFC0
000001D6AF90
00000BA0DF60
00006F21FF30
19DEFE87FE00
BE39F22BFB00
7A2FA00BF800
009F400EF500
01EE003FF100
05FA006FD000
08F700AFA000
09F500000000
03C40AA00000
00004FF30000
00001DC10000
ENDCHAR
STARTCHAR uni1EA1
ENCODING 7841
SWIDTH 526 0
DWIDTH 8 0
BBX 10 12 -1 -4
BITMAP
0019EDCF90
01CF71FF50
07FC02FF20
0DF705FE00
1FF409FB00
3FF30DF809
1FFAADFC96
06EE54ED70
0000000000
002C600000
008FE00000
004E900000
ENDCHAR
STARTCHAR uni1EA2
ENCODING 7842
SWIDTH 668 0
DWIDTH 11 0
BBX 12 18 0 -2
BITMAP
000000002DE7
00000000026B
000000000A61
000000000000
00000001AED0
0000002DDFC0
000001D6AF90
00000BA0DF60
00006F21FF30
19DEFE87FE00
BE39F22BFB00
7A2FA00BF800
009F500EF500
01EE003FF100
05FA006FD000
08F700AFA000
09F500000000
04D500000000
ENDCHAR
STARTCHAR uni1EA3
ENCODING 7843
SWIDTH 526 0
DWIDTH 8 0
BBX 10 12 -1 0
BITMAP
000009EC10
0000011D30
000003B300
0000000000
0019EDCF90
01CF71FF50
07FC02FF20
0DF705FE00
1FF409FB00
3FF30DF809
1FFAADFC96
06EE54ED70
ENDCHAR
STARTCHAR uni1EA4
ENCODING 7844
SWIDTH 668 0
DWIDTH 11 0
BBX 14 18 0 -2
BITMAP
00000000000044
0000000003D2C2
000000007A7A40
00000000000000
00000001AED000
0000002DDFC000
000001D6AF9000
00000BA0DF6000
00006F21FF3000
19DEFE87FE0000
BE39F22BFB0000
7A2FA00BF80000
009F500EF50000
01EE003FF10000
05FA006FD00000
08F700AFA00000
09F50000000000
04D50000000000
ENDCHAR
STARTCHAR uni1EA5
ENCODING 7845
SWIDTH 526 0
DWIDTH 8 0
BBX 11 14 -1 0
BITMAP
000000000D60
000000007A00
000000A46100
00000BD90000
000084080000
000000000000
0019EDCF9000
01CF71FF5000
07FC02FF2000
0DF705FE0000
1FF409FB0000
3FF30DF80900
1FFAADFC9600
06EE54ED7000
ENDCHAR
STARTCHAR uni1EA6
ENCODING 7846
SWIDTH 668 0
DWIDTH 11 0
BBX 13 18 0 -2
BITMAP
000000000013C0
0000000005E3B0
00000000883910
00000000000000
00000001AED000
0000002DDFC000
000001D6AF9000
00000BA0DF6000
00006F21FF3000
19DEFE87FE0000
BE39F22BFB0000
7A2FA00BF80000
009F500EF50000
01EE003FF10000
05FA006FD00000
08F700AFA00000
09F50000000000
04D50000000000
ENDCHAR
STARTCHAR uni1EA7
ENCODING 7847
SWIDTH 526 0
DWIDTH 8 0
BBX 10 14 -1 0
BITMAP
00000001C2
00000000B5
000000A477
00000BC900
0000840800
0000000000
0019EDCF90
01CF71FF50
07FC02FF20
0DF705FE00
1FF409FB00
3FF30DF809
1FFAADFC96
06EE54ED70
ENDCHAR
STARTCHAR uni1EA8
ENCODING 7848
SWIDTH 668 0
DWIDTH 11 0
BBX 14 18 0 -2
BITMAP
000000000004E8
0000000003D3E7
00000000695830
00000000100100
00000001AED000
0000002DDFC000
000001D6AF9000
00000BA0DF6000
00006F21FF3000
19DEFE87FE0000
BE39F22BFB0000
7A2FA00BF80000
009F500EF50000
01EE003FF10000
05FA006FD00000
08F700AFA00000
09F50000000000
04D50000000000
ENDCHAR
STARTCHAR uni1EA9
ENCODING 7849
SWIDTH 526 0
DWIDTH 8 0
BBX 10 13 -1 0
BITMAP
00000001DC
000000A4A4
00001BC900
0000840700
0000000000
0019EDCF90
01CF71FF50
07FC02FF20
0DF705FE00
1FF409FB00
3FF30DF809
1FFAADFC96
06EE54ED70
ENDCHAR
STARTCHAR uni1EAA
ENCODING 7850
SWIDTH 668 0
DWIDTH 11 0
BBX 13 18 0 -2
BITMAP
00000000047870
0000000004E920
00000000795800
00000000000000
00000001AED000
0000002DDFC000
000001D6AF9000
00000BA0DF6000
00006F21FF3000
19DEFE87FE0000
BE39F22BFB0000
7A2FA00BF80000
009F500EF50000
01EE003FF10000
05FA006FD00000
08F700AFA00000
09F50000000000
04D50000000000
ENDCHAR
STARTCHAR uni1EAB
ENCODING 7851
SWIDTH 526 0
DWIDTH 8 0
BBX 10 14 -1 0
BITMAP
000005BC81
0000000000
000000A400
00000BD900
0000840800
0000000000
0019EDCF90
01CF71FF50
07FC02FF20
0DF705FE00
1FF409FB00
3FF30DF809
1FFAADFC96
06EE54ED70
ENDCHAR
STARTCHAR uni1EAC
ENCODING 7852
SWIDTH 668 0
DWIDTH 11 0
BBX 13 20 0 -4
BITMAP
00000000003300
0000000004E900
000000005C6C00
00000001500410
00000001AED000
0000002DDFC000
000001D6AF9000
00000BA0DF6000
00006F21FF3000
19DEFE87FE0000
BE39F22BFB0000
7A2FA00BF80000
009F400EF50000
01EE003FF10000
05FA006FD00000
08F700AFA00000
09F50000000000
03C40AA0000000
00004FF3000000
00001DC1000000
ENDCHAR
STARTCHAR uni1EAD
ENCODING 7853
SWIDTH 526 0
DWIDTH 8 0
BBX 10 16 -1 -4
BITMAP
000000A600
00001BEA00
0001A61B10
0001000000
0019EDCF90
01CF71FF50
07FC02FF20
0DF705FE00
1FF409FB00
3FF30DF809
1FFAADFC96
06EE54ED70
0000000000
002C600000
008FE00000
004E900000
ENDCHAR
STARTCHAR uni1EAE
ENCODING 7854
SWIDTH 668 0
DWIDTH 11 0
BBX 13 18 0 -2
BITMAP
00000000003600
0000000000B500
00000000E46980
000000005BA700
00000001AED000
0000002DDFC000
000001D6AF9000
00000BA0DF6000
00006F21FF3000
19DEFE87FE0000
BE39F22BFB0000
7A2FA00BF80000
009F500EF50000
01EE003FF10000
05FA006FD00000
08F700AFA00000
09F50000000000
04D50000000000
ENDCHAR
STARTCHAR uni1EAF
ENCODING 7855
SWIDTH 526 0
DWIDTH 8 0
BBX 10 14 -1 0
BITMAP
0000002700
0000008900
000000D200
0002F339A0
00007CB700
0000000000
0019EDCF90
01CF71FF50
07FC02FF20
0DF705FE00
1FF409FB00
3FF30DF809
1FFAADFC96
06EE54ED70
ENDCHAR
STARTCHAR uni1EB0
ENCODING 7856
SWIDTH 668 0
DWIDTH 11 0
BBX 13 18 0 -2
BITMAP
00000000099000
0000000004B000
00000000E42980
000000005BA700
00000001AED000
0000002DDFC000
000001D6AF9000
00000BA0DF6000
00006F21FF3000
19DEFE87FE0000
BE39F22BFB0000
7A2FA00BF80000
009F500EF50000
01EE003FF10000
05FA006FD00000
08F700AFA00000
09F50000000000
04D50000000000
ENDCHAR
STARTCHAR uni1EB1
ENCODING 7857
SWIDTH 526 0
DWIDTH 8 0
BBX 10 14 -1 0
BITMAP
0000021000
00000A8000
000004A000
0002F209A0
00007CB700
0000000000
0019EDCF90
01CF71FF50
07FC02FF20
0DF705FE00
1FF409FB00
3FF30DF809
1FFAADFC96
06EE54ED70
ENDCHAR
STARTCHAR uni1EB2
ENCODING 7858
SWIDTH 668 0
DWIDTH 11 0
BBX 13 18 0 -2
BITMAP
0000000007E500
0000000073E660
00000000E63A60
000000005DD700
00000001AED000
0000002DDFC000
000001D6AF9000
00000BA0DF6000
00006F21FF3000
19DEFE87FE0000
BE39F22BFB0000
7A2FA00BF80000
009F500EF50000
01EE003FF10000
05FA006FD00000
08F700AFA00000
09F50000000000
04D50000000000
ENDCHAR
STARTCHAR uni1EB3
ENCODING 7859
SWIDTH 526 0
DWIDTH 8 0
BBX 10 14 -1 0
BITMAP
000006E500
0000014A00
000002E400
0002F339A0
00007CB700
0000000000
0019EDCF90
01CF71FF50
07FC02FF20
0DF705FE00
1FF409FB00
3FF30DF809
1FFAADFC96
06EE54ED70
ENDCHAR
STARTCHAR uni1EB4
ENCODING 7860
SWIDTH 668 0
DWIDTH 11 0
BBX 13 18 0 -2
BITMAP
00000000167840
00000000126610
00000000E30980
000000005BA700
00000001AED000
0000002DDFC000
000001D6AF9000
00000BA0DF6000
00006F21FF3000
19DEFE87FE0000
BE39F22BFB0000
7A2FA00BF80000
009F500EF50000
01EE003FF10000
05FA006FD00000
08F700AFA00000
09F50000000000
04D50000000000
ENDCHAR
STARTCHAR uni1EB5
ENCODING 7861
SWIDTH 526 0
DWIDTH 8 0
BBX 10 14 -1 0
BITMAP
000017CC60
0000000000
0000000000
0001F408B0
00006CB810
0000000000
0019EDCF90
01CF71FF50
07FC02FF20
0DF705FE00
1FF409FB00
3FF30DF809
1FFAADFC96
06EE54ED70
ENDCHAR
STARTCHAR uni1EB6
ENCODING 7862
SWIDTH 668 0
DWIDTH 11 0
BBX 14 19 0 -4
BITMAP
00000004600281
00000006F21AB0
000000009DD810
00000001AED000
0000002DDFC000
000001D6AF9000
00000BA0DF6000
00006F21FF3000
19DEFE87FE0000
BE39F22BFB0000
7A2FA00BF80000
009F400EF50000
01EE003FF10000
05FA006FD00000
08F700AFA00000
09F50000000000
03C40AA0000000
00004FF3000000
00001DC1000000
ENDCHAR
STARTCHAR uni1EB7
ENCODING 7863
SWIDTH 526 0
DWIDTH 8 0
BBX 10 16 -1 -4
BITMAP
0008D004F2
0004F41C90
00008DD700
0000000000
0019EDCF90
01CF71FF50
07FC02FF20
0DF705FE00
1FF409FB00
3FF30DF809
1FFAADFC96
06EE54ED70
0000000000
002C600000
008FE00000
004E900000
ENDCHAR
STARTCHAR uni1EB8
ENCODING 7864
SWIDTH 459 0
DWIDTH 7 0
BBX 8 16 0 -4
BITMAP
0003CEC3
003FC17C
00AF408C
00DF3094
00AF7000
005FE400
09FE3000
5FF60000
BFF10000
DFE00004
9FF40381
1AEEC710
00000000
05C40000
0CFA0000
07E50000
ENDCHAR
STARTCHAR uni1EB9
ENCODING 7865
SWIDTH 384 0
DWIDTH 6 0
BBX 8 12 -1 -4
BITMAP
0019DE60
00CF76D0
07FC09A0
0DF77E30
1FFEA300
3FF30014
1FF50490
05DEC600
00000000
03C60000
08FD0000
04E80000
ENDCHAR
STARTCHAR uni1EBA
ENCODING 7866
SWIDTH 459 0
DWIDTH 7 0
BBX 8 16 0 0
BITMAP
00001CE8
0000024C
00000971
00000000
0003CEC3
003FC17C
00AF408C
00DF3094
00AF7000
005FE400
09FE3000
5FF60000
BFF10000
DFE00004
9FF40381
1AEEC710
ENDCHAR
STARTCHAR uni1EBB
ENCODING 7867
SWIDTH 384 0
DWIDTH 6 0
BBX 8 12 -1 0
BITMAP
0000CEA0
000013E0
00007810
00000000
0019DE60
00CF76D0
07FC09A0
0DF77E30
1FFEA300
3FF30014
1FF50490
05DEC600
ENDCHAR
STARTCHAR uni1EBC
ENCODING 7868
SWIDTH 459 0
DWIDTH 7 0
BBX 10 15 0 0
BITMAP
00009EEB85
00058AEE80
0000000000
0003CEC300
003FC17C00
00AF408C00
00DF309400
00AF700000
005FE40000
09FE300000
5FF6000000
BFF1000000
DFE0000400
9FF4038100
1AEEC71000
ENDCHAR
STARTCHAR uni1EBD
ENCODING 7869
SWIDTH 384 0
DWIDTH 6 0
BBX 9 11 -1 0
BITMAP
004CFC8710
0166BEC300
0000000000
0019DE6000
00CF76D000
07FC09A000
0DF77E3000
1FFEA30000
3FF3001400
1FF5049000
05DEC60000
ENDCHAR
STARTCHAR uni1EBE
ENCODING 7870
SWIDTH 459 0
DWIDTH 7 0
BBX 10 16 0 0
BITMAP
0000000097
000003C4B0
0000773900
0000000000
0003CEC300
003FC17C00
00AF408C00
00DF309400
00AF700000
005FE40000
09FE300000
5FF6000000
BFF1000000
DFE0000400
9FF4038100
1AEEC71000
ENDCHAR
STARTCHAR uni1EBF
ENCODING 7871
SWIDTH 384 0
DWIDTH 6 0
BBX 10 14 -1 0
BITMAP
00000000B9
00000003D1
0000077430
00007DC000
0006707100
0000000000
0019DE6000
00CF76D000
07FC09A000
0DF77E3000
1FFEA30000
3FF3001400
1FF5049000
05DEC60000
ENDCHAR
STARTCHAR uni1EC0
ENCODING 7872
SWIDTH 459 0
DWIDTH 7 0
BBX 9 16 0 0
BITMAP
00000013C0
000005E3B0
0000783910
0000000000
0003CEC300
003FC17C00
00AF408C00
00DF309400
00AF700000
005FE40000
09FE300000
5FF6000000
BFF1000000
DFE0000400
9FF4038100
1AEEC71000
ENDCHAR
STARTCHAR uni1EC1
ENCODING 7873
SWIDTH 384 0
DWIDTH 6 0
BBX 9 14 -1 0
BITMAP
0000000A50
0000000880
00000774A0
00007DC000
0006707100
0000000000
0019DE6000
00CF76D000
07FC09A000
0DF77E3000
1FFEA30000
3FF3001400
1FF5049000
05DEC60000
ENDCHAR
STARTCHAR uni1EC2
ENCODING 7874
SWIDTH 459 0
DWIDTH 7 0
BBX 10 16 0 0
BITMAP
00000001DB
000003D3CB
0000695840
0000100100
0003CEC300
003FC17C00
00AF408C00
00DF309400
00AF700000
005FE40000
09FE300000
5FF6000000
BFF1000000
DFE0000400
9FF4038100
1AEEC71000
ENDCHAR
STARTCHAR uni1EC3
ENCODING 7875
SWIDTH 384 0
DWIDTH 6 0
BBX 9 13 -1 0
BITMAP
0000001DB0
0000077A40
00008DC000
0006607100
0000000000
0019DE6000
00CF76D000
07FC09A000
0DF77E3000
1FFEA30000
3FF3001400
1FF5049000
05DEC60000
ENDCHAR
STARTCHAR uni1EC4
ENCODING 7876
SWIDTH 459 0
DWIDTH 7 0
BBX 9 16 0 0
BITMAP
00001BFB70
000013E910
0000794900
0000000000
0003CEC300
003FC17C00
00AF408C00
00DF309400
00AF700000
005FE40000
09FE300000
5FF6000000
BFF1000000
DFE0000400
9FF4038100
1AEEC71000
ENDCHAR
STARTCHAR uni1EC5
ENCODING 7877
SWIDTH 384 0
DWIDTH 6 0
BBX 9 14 -1 0
BITMAP
00004AC920
0000000000
0000077000
00007DC000
0006707100
0000000000
0019DE6000
00CF76D000
07FC09A000
0DF77E3000
1FFEA30000
3FF3001400
1FF5049000
05DEC60000
ENDCHAR
STARTCHAR uni1EC6
ENCODING 7878
SWIDTH 459 0
DWIDTH 7 0
BBX 8 20 0 -4
BITMAP
00000050
000008F4
00009B79
00043005
0003CEC3
003FC17C
00AF408C
00DF3094
00AF7000
005FE400
09FE3000
5FF60000
BFF10000
DFE00004
9FF40381
1AEEC710
00000000
05C40000
0CFA0000
07E50000
ENDCHAR
STARTCHAR uni1EC7
ENCODING 7879
SWIDTH 384 0
DWIDTH 6 0
BBX 8 16 -1 -4
BITMAP
00000780
00008ED0
00098193
00010001
0019DE60
00CF76D0
07FC09A0
0DF77E30
1FFEA300
3FF30014
1FF50490
05DEC600
00000000
03C60000
08FD0000
04E80000
ENDCHAR
STARTCHAR uni1EC8
ENCODING 7880
SWIDTH 375 0
DWIDTH 6 0
BBX 8 16 0 0
BITMAP
00008EC2
000011D3
00003B20
00000000
0018DF40
05D9FF10
4F37FD00
BB0AF900
D90DF600
462FF300
005FE000
008FC000
00BF8000
00EF5000
03FF2000
06FE0000
ENDCHAR
STARTCHAR uni1EC9
ENCODING 7881
SWIDTH 267 0
DWIDTH 4 0
BBX 6 12 -1 0
BITMAP
006ED3
0011B6
000D30
000000
01FF40
03FF10
07FD00
0AFA00
0DF600
1FF319
1FFAC4
09EC50
ENDCHAR
STARTCHAR uni1ECA
ENCODING 7882
SWIDTH 375 0
DWIDTH 6 0
BBX 7 16 0 -4
BITMAP
0018DF40
05D9FF10
4F37FD00
BB0AF900
D90DF600
462FF300
005FE000
008FC000
00BF8000
00EF5000
03FF2000
06FE0000
00000000
08B20000
0FF70000
0AE30000
ENDCHAR
STARTCHAR uni1ECB
ENCODING 7883
SWIDTH 267 0
DWIDTH 4 0
BBX 6 15 -1 -4
BITMAP
004E80
008FE0
003C60
01FF40
03FF10
07FD00
0AFA00
0DF600
1FF319
1FFAC4
09EC50
000000
4C4000
BFB000
6E6000
ENDCHAR
STARTCHAR uni1ECC
ENCODING 7884
SWIDTH 665 0
DWIDTH 11 0
BBX 11 16 0 -4
BITMAP
0005ADEEA200
02CC5644FC00
1DA2DE20BF40
8E1BF700AF60
BC4FF100AF70
48AFB000CF50
00EF6001FF20
02FF3006FD00
03FF200CF600
03FF205FC100
00EF96EE2000
003CFE920000
000000000000
0008B1000000
001FF6000000
000BD2000000
ENDCHAR
STARTCHAR uni1ECD
ENCODING 7885
SWIDTH 433 0
DWIDTH 7 0
BBX 10 12 -1 -4
BITMAP
0019EE5000
01DF65E002
08FC09F686
0EF607F400
3FF307D000
4FF10C8000
2FF35D1000
06DEA20000
0000000000
03C6000000
08FD000000
04E8000000
ENDCHAR
STARTCHAR uni1ECE
ENCODING 7886
SWIDTH 665 0
DWIDTH 11 0
BBX 11 16 0 0
BITMAP
0000008EC200
00000011D400
0000003B3000
000000000000
0005ADEEA200
02CC5644FC00
1DA2DE20BF40
8E1BF700AF60
BC4FF100AF70
48AFB000CF50
00EF6001FF20
02FF3006FD00
03FF200CF600
03FF205FC100
00EF96EE2000
003CFE920000
ENDCHAR
STARTCHAR uni1ECF
ENCODING 7887
SWIDTH 433 0
DWIDTH 7 0
BBX 10 12 -1 0
BITMAP
00007ED300
000011C500
00001C3000
0000000000
0019EE5000
01DF65E002
08FC09F686
0EF607F400
3FF307D000
4FF10C8000
2FF35D1000
06DEA20000
ENDCHAR
STARTCHAR uni1ED0
ENCODING 7888
SWIDTH 665 0
DWIDTH 11 0
BBX 11 16 0 0
BITMAP
0000000003C0
0000001A7940
000004A6C600
000000000000
0005ADEEA200
02CC5644FC00
1DA2DE20BF40
8E1BF700AF60
BC4FF100AF70
48AFB000CF50
00EF6001FF20
02FF3006FD00
03FF200CF600
03FF205FC100
00EF96EE2000
003CFE920000
ENDCHAR
STARTCHAR uni1ED1
ENCODING 7889
SWIDTH 433 0
DWIDTH 7 0
BBX 10 14 -1 0
BITMAP
00000000B9
00000003D1
0000077430
00007DC000
0006707100
0000000000
0019EE5000
01DF65E002
08FC09F686
0EF607F400
3FF307D000
4FF10C8000
2FF35D1000
06DEA20000
ENDCHAR
STARTCHAR uni1ED2
ENCODING 7890
SWIDTH 665 0
DWIDTH 11 0
BBX 11 16 0 0
BITMAP
000000001D20
0000002C8840
000004A2B110
000000000000
0005ADEEA200
02CC5644FC00
1DA2DE20BF40
8E1BF700AF60
BC4FF100AF70
48AFB000CF50
00EF6001FF20
02FF3006FD00
03FF200CF600
03FF205FC100
00EF96EE2000
003CFE920000
ENDCHAR
STARTCHAR uni1ED3
ENCODING 7891
SWIDTH 433 0
DWIDTH 7 0
BBX 10 14 -1 0
BITMAP
0000000A50
0000000880
00000774A0
00007DC000
0006707100
0000000000
0019EE5000
01DF65E002
08FC09F686
0EF607F400
3FF307D000
4FF10C8000
2FF35D1000
06DEA20000
ENDCHAR
STARTCHAR uni1ED4
ENCODING 7892
SWIDTH 665 0
DWIDTH 11 0
BBX 12 16 0 0
BITMAP
000000000AD2
0000001A87D2
000003A4B310
000001001000
0005ADEEA200
02CC5644FC00
1DA2DE20BF40
8E1BF700AF60
BC4FF100AF70
48AFB000CF50
00EF6001FF20
02FF3006FD00
03FF200CF600
03FF205FC100
00EF96EE2000
003CFE920000
ENDCHAR
STARTCHAR uni1ED5
ENCODING 7893
SWIDTH 433 0
DWIDTH 7 0
BBX 10 13 -1 0
BITMAP
0000000CC1
0000077AC0
00006FC300
000692A100
0000000000
0019EE5000
01DF65E002
08FC09F686
0EF607F400
3FF307D000
4FF10C8000
2FF35D1000
06DEA20000
ENDCHAR
STARTCHAR uni1ED6
ENCODING 7894
SWIDTH 665 0
DWIDTH 11 0
BBX 11 16 0 0
BITMAP
0000007ED820
0000002CC300
000004A4B000
000000000000
0005ADEEA200
02CC5644FC00
1DA2DE20BF40
8E1BF700AF60
BC4FF100AF70
48AFB000CF50
00EF6001FF20
02FF3006FD00
03FF200CF600
03FF205FC100
00EF96EE2000
003CFE920000
ENDCHAR
STARTCHAR uni1ED7
ENCODING 7895
SWIDTH 433 0
DWIDTH 7 0
BBX 10 14 -1 0
BITMAP
0000166110
0000127500
0000078000
00007DC000
0006707100
0000000000
0019EE5000
01DF65E002
08FC09F686
0EF607F400
3FF307D000
4FF10C8000
2FF35D1000
06DEA20000
ENDCHAR
STARTCHAR uni1ED8
ENCODING 7896
SWIDTH 665 0
DWIDTH 11 0
BBX 11 20 0 -4
BITMAP
000000041000
0000006F6000
000008C7B000
000034005000
0005ADEEA200
02CC5644FC00
1DA2DE20BF40
8E1BF700AF60
BC4FF100AF70
48AFB000CF50
00EF6001FF20
02FF3006FD00
03FF200CF600
03FF205FC100
00EF96EE2000
003CFE920000
000000000000
0008B1000000
001FF6000000
000BD2000000
ENDCHAR
STARTCHAR uni1ED9
ENCODING 7897
SWIDTH 433 0
DWIDTH 7 0
BBX 10 16 -1 -4
BITMAP
0000096000
0000AEB000
001A71B100
0011001000
0019EE5000
01DF65E002
08FC09F686
0EF607F400
3FF307D000
4FF10C8000
2FF35D1000
06DEA20000
0000000000
03C6000000
08FD000000
04E8000000
ENDCHAR
STARTCHAR uni1EDA
ENCODING 7898
SWIDTH 665 0
DWIDTH 11 0
BBX 12 16 0 0
BITMAP
00000006F300
0000000D8000
0000006D00D7
0000000000E7
0005ADED84E1
02CC5644FF30
1DA2DE20BF30
8E1BF700AF60
BC4FF100AF70
48AFB000CF60
00EF6001FF30
02FF3006FE00
03FF200CF700
03FF205FD100
00EF96EE2000
003CFE920000
ENDCHAR
STARTCHAR uni1EDB
ENCODING 7899
SWIDTH 439 0
DWIDTH 7 0
BBX 9 12 -1 0
BITMAP
000004F500
00000BB110
00003E29C0
0000110A90
0018DE9E20
01CF83F400
08FD01F300
0EF803F200
2FF406E000
2FF30B9000
1EF46D1000
05DEA20000
ENDCHAR
STARTCHAR uni1EDC
ENCODING 7900
SWIDTH 665 0
DWIDTH 11 0
BBX 12 16 0 0
BITMAP
00001E900000
00000BB00010
000006D000E8
0000000000E6
0005ADED85E1
02CC5644FF30
1DA2DE20BF30
8E1BF700AF60
BC4FF100AF70
48AFB000CF60
00EF6001FF30
02FF3006FE00
03FF200CF700
03FF205FD100
00EF96EE2000
003CFE920000
ENDCHAR
STARTCHAR uni1EDD
ENCODING 7901
SWIDTH 439 0
DWIDTH 7 0
BBX 9 12 -1 0
BITMAP
0000E90000
0000AC0120
00005E09C0
0000000A90
0018DE9E20
01CF83F400
08FD01F300
0EF803F200
2FF406E000
2FF30B9000
1EF46D1000
05DEA20000
ENDCHAR
STARTCHAR uni1EDE
ENCODING 7902
SWIDTH 665 0
DWIDTH 11 0
BBX 12 16 0 0
BITMAP
0000008EC200
00000011D400
0000003B30D7
0000000000E7
0005ADED85E1
02CC5644FF30
1DA2DE20BF30
8E1BF700AF60
BC4FF100AF70
48AFB000CF60
00EF6001FF30
02FF3006FE00
03FF200CF700
03FF205FD100
00EF96EE2000
003CFE920000
ENDCHAR
STARTCHAR uni1EDF
ENCODING 7903
SWIDTH 439 0
DWIDTH 7 0
BBX 9 12 -1 0
BITMAP
00007ED300
000011C500
00001C38A0
00000009A0
0018DE9E20
01CF83F400
08FD01F300
0EF803F200
2FF406E000
2FF30B9000
1EF46D1000
05DEA20000
ENDCHAR
STARTCHAR uni1EE0
ENCODING 7904
SWIDTH 665 0
DWIDTH 11 0
BBX 12 15 0 0
BITMAP
000016741100
000079DE91D7
0000000000E7
0005ADED84E1
02CC5644FF30
1DA2DE20BF30
8E1BF700AF60
BC4FF100AF70
48AFB000CF60
00EF6001FF30
02FF3006FE00
03FF200CF700
03FF205FD100
00EF96EE2000
003CFE920000
ENDCHAR
STARTCHAR uni1EE1
ENCODING 7905
SWIDTH 439 0
DWIDTH 7 0
BBX 9 11 -1 0
BITMAP
002CEA6240
0046CC39C0
0000000A90
0018DE9D20
01CF73F300
08FD01F300
0EF703F200
2FF407E000
2FF31E9000
1EFACD1000
05DEA20000
ENDCHAR
STARTCHAR uni1EE2
ENCODING 7906
SWIDTH 665 0
DWIDTH 11 0
BBX 12 18 0 -4
BITMAP
000000000063
0000000000E8
0005ADED84E2
02CC5644FF40
1DA2DE20BF30
8E1BF700AF60
BC4FF100AF70
48AFB000CF60
00EF6001FF30
02FF3006FE00
03FF200CF700
03FF205FD100
00EF96EE2000
003CFE920000
000000000000
0008B1000000
001FF6000000
000BD2000000
ENDCHAR
STARTCHAR uni1EE3
ENCODING 7907
SWIDTH 439 0
DWIDTH 7 0
BBX 9 14 -1 -4
BITMAP
0000000350
00000009B0
0018DE9E40
01CF83F400
08FD01F300
0EF803F200
2FF406E000
2FF30B9000
1EF46D1000
05DEA20000
0000000000
03C6000000
08FD000000
04E8000000
ENDCHAR
STARTCHAR uni1EE4
ENCODING 7908
SWIDTH 716 0
DWIDTH 11 0
BBX 12 16 0 -4
BITMAP
0028CE9004FF
07D4EF5007FC
7E12FF100BF8
E906FC000EF5
F70AF8002FF2
540EF4006FE0
002FF1009FA0
006FC000DF60
008F9003FF20
008FA00AFA00
006FE9AFD200
0008DFD92000
000000000000
0000A9000000
0004FF300000
0001DC000000
ENDCHAR
STARTCHAR uni1EE5
ENCODING 7909
SWIDTH 505 0
DWIDTH 8 0
BBX 10 12 -1 -4
BITMAP
01FF41FF40
03FF14FF10
07FD07FC00
0AFA0BF900
0DF60EF600
1FF43FF327
1FFABFFAC2
09EC39EC30
0000000000
0017200000
00AFB00000
006E700000
ENDCHAR
STARTCHAR uni1EE6
ENCODING 7910
SWIDTH 716 0
DWIDTH 11 0
BBX 12 16 0 0
BITMAP
00000006ED30
000000011B60
00000000D300
000000000000
0028CE9004FF
07D4EF5007FC
7E12FF100BF8
E906FC000EF5
F70AF8002FF2
540EF4006FE0
002FF1009FA0
006FC000DF60
008F9003FF20
008FA00AFA00
006FE9AFD200
0008DFD92000
ENDCHAR
STARTCHAR uni1EE7
ENCODING 7911
SWIDTH 505 0
DWIDTH 8 0
BBX 10 12 -1 0
BITMAP
0000AEB100
000011E200
00005A2000
0000000000
01FF41FF40
03FF14FF10
07FD07FC00
0AFA0BF900
0DF60EF600
1FF43FF327
1FFABFFAC2
09EC39EC30
ENDCHAR
STARTCHAR uni1EE8
ENCODING 7912
SWIDTH 716 0
DWIDTH 11 0
BBX 14 16 0 0
BITMAP
000000000DB000
000000005E208C
00000000C7009C
000000000001D5
0028CE9004FF60
07D4EF5007FC00
7E12FF100BF800
E906FC000EF500
F70AF8002FF200
540EF4006FE000
002FF1009FA000
006FC000DF6000
008F9003FF2000
008FA00AFA0000
006FE9AFD20000
0008DFD9200000
ENDCHAR
STARTCHAR uni1EE9
ENCODING 7913
SWIDTH 505 0
DWIDTH 8 0
BBX 10 12 -1 0
BITMAP
000001EA00
000007E156
00000D60AA
00000001D4
01FF41FF70
03FF14FF00
07FD07FC00
0AFA0BF900
0DF60EF600
1FF43FF327
1FFABFFAC2
09EC39EC30
ENDCHAR
STARTCHAR uni1EEA
ENCODING 7914
SWIDTH 716 0
DWIDTH 11 0
BBX 14 16 0 0
BITMAP
0000005F300000
0000001F60007B
0000000B80009C
000000000001D5
0028CE9004FF70
07D4EF5007FC00
7E12FF100BF900
E906FC000EF500
F70AF8002FF200
540EF4006FE000
002FF1009FA000
006FC000DF6000
008F9003FF2000
008FA00AFA0000
006FE9AFE20000
0008DFD9200000
ENDCHAR
STARTCHAR uni1EEB
ENCODING 7915
SWIDTH 505 0
DWIDTH 8 0
BBX 10 12 -1 0
BITMAP
0000DB0000
00009D0066
00004E10AA
00000001D4
01FF41FF70
03FF14FF00
07FD07FC00
0AFA0BF900
0DF60EF600
1FF43FF327
1FFABFFAC2
09EC39EC30
ENDCHAR
STARTCHAR uni1EEC
ENCODING 7916
SWIDTH 716 0
DWIDTH 11 0
BBX 14 16 0 0
BITMAP
00000006ED3000
000000011B6069
00000000D3009D
000000000001D6
0028CE9004FF90
07D4EF5007FC00
7E12FF100BF900
E906FC000EF600
F70AF8002FF200
540EF4006FE000
002FF1009FB000
006FC000DF6000
008F9003FF2000
008FA00AFA0000
006FE9AFE20000
0008DFD9200000
ENDCHAR
STARTCHAR uni1EED
ENCODING 7917
SWIDTH 505 0
DWIDTH 8 0
BBX 10 12 -1 0
BITMAP
0000AEB100
000011E222
00005A20AA
00000001D7
01FF41FFA0
03FF14FF10
07FD07FD00
0AFA0BF900
0DF60EF600
1FF43FF327
1FFABFFAC2
09EC39EC30
ENDCHAR
STARTCHAR uni1EEE
ENCODING 7918
SWIDTH 716 0
DWIDTH 11 0
BBX 14 15 0 0
BITMAP
0000007EE7137C
0000048AEEA19C
000000000001D5
0028CE9004FF60
07D4EF5007FC00
7E12FF100BF800
E906FC000EF500
F70AF8002FF200
540EF4006FE000
002FF1009FA000
006FC000DF6000
008F9003FF2000
008FA00AFA0000
006FE9AFD20000
0008DFD9200000
ENDCHAR
STARTCHAR uni1EEF
ENCODING 7919
SWIDTH 505 0
DWIDTH 8 0
BBX 10 11 -1 0
BITMAP
0005ED8467
00047C91AA
00000001D3
01FF41FF60
03FF14FF00
07FD07FC00
0AFA0BF900
0DF60EF600
1FF43FF327
1FFABFFAC2
09EC39EC30
ENDCHAR
STARTCHAR uni1EF0
ENCODING 7920
SWIDTH 716 0
DWIDTH 11 0
BBX 14 19 0 -4
BITMAP
00000000000035
0000000000009D
000000000001C8
0028CE9004FFC1
07D4EF5007FD00
7E12FF100BF900
E906FC000EF600
F70AF8002FF300
540EF4006FE000
002FF1009FB000
006FC000DF7000
008F9003FF2000
008FA00AFB0000
006FE9AFE20000
0008DFD9200000
00000000000000
0000A900000000
0004FF30000000
0001DC00000000
ENDCHAR
STARTCHAR uni1EF1
ENCODING 7921
SWIDTH 505 0
DWIDTH 8 0
BBX 10 14 -1 -4
BITMAP
000000009A
00000001C8
01FF41FFC1
03FF14FF20
07FD07FD00
0AFA0BFA00
0DF60EF600
1FF43FF327
1FFABFFAC2
09EC39EC30
0000000000
0017200000
00AFB00000
006E700000
ENDCHAR
STARTCHAR Ygrave
ENCODING 7922
SWIDTH 620 0
DWIDTH 10 0
BBX 11 16 0 0
BITMAP
0000001F8000
0000000CA000
00000007C000
000000000000
0018DF7002E0
05D5EFB00780
4F30AFE00D10
BB006FF35900
D9002FF6B300
46000EFCB000
00000AFF4000
000009FE0000
00000CFB0000
00001FF80000
00003FF50000
00007FF20000
ENDCHAR
STARTCHAR ygrave
ENCODING 7923
SWIDTH 505 0
DWIDTH 8 0
BBX 10 16 -1 -4
BITMAP
0000EA0000
00009C0000
00004E0000
0000000000
01FF41FF40
03FF14FF10
07FD07FC00
0AFA0BF900
0DF60EF600
1FF44FF254
1FFADFE2A0
09ECBFEA10
002AFF8000
01C3EF4000
04B8FE0000
01BEC30000
ENDCHAR
STARTCHAR uni1EF4
ENCODING 7924
SWIDTH 620 0
DWIDTH 10 0
BBX 11 16 0 -4
BITMAP
0018DF7002E0
05D5EFB00780
4F30AFE00D10
BB006FF35900
D9002FF6B300
46000EFCB000
00000AFF4000
000009FE0000
00000CFB0000
00001FF80000
00003FF50000
00007FF20000
000000000000
00007B200000
0000EF800000
00009E300000
ENDCHAR
STARTCHAR uni1EF5
ENCODING 7925
SWIDTH 505 0
DWIDTH 8 0
BBX 10 12 -1 -4
BITMAP
01FF41FF40
03FF14FF10
07FD07FC00
0AFA0BF900
0DF60EF600
1FF44FF254
1FFADFE2A0
09ECBFEA10
002AFF8000
01C3EF4100
04B8FE5F70
01BEC34E60
ENDCHAR
STARTCHAR uni1EF6
ENCODING 7926
SWIDTH 620 0
DWIDTH 10 0
BBX 11 16 0 0
BITMAP
00000006ED30
000000011B60
00000000D300
000000000000
0018DF7002E0
05D5EFB00780
4F30AFE00D10
BB006FF35900
D9002FF6B300
46000EFCB000
00000AFF4000
000009FE0000
00000CFB0000
00001FF80000
00003FF50000
00007FF20000
ENDCHAR
STARTCHAR uni1EF7
ENCODING 7927
SWIDTH 505 0
DWIDTH 8 0
BBX 10 16 -1 -4
BITMAP
0000AEB100
000011E200
00005A2000
0000000000
01FF41FF40
03FF14FF10
07FD07FC00
0AFA0BF900
0DF60EF600
1FF44FF254
1FFADFE2A0
09ECBFEA10
002AFF8000
01C3EF4000
04B8FE0000
01BEC30000
ENDCHAR
STARTCHAR uni1EF8
ENCODING 7928
SWIDTH 620 0
DWIDTH 10 0
BBX 12 15 0 0
BITMAP
000000576211
0000068CFD70
000000000000
0018DF7002E0
05D5EFB00780
4F30AFE00D10
BB006FF35900
D9002FF6B300
46000EFCB000
00000AFF4000
000009FE0000
00000CFB0000
00001FF80000
00003FF50000
00007FF20000
ENDCHAR
STARTCHAR uni1EF9
ENCODING 7929
SWIDTH 505 0
DWIDTH 8 0
BBX 10 15 -1 -4
BITMAP
0008EEB850
00346BC800
0000000000
01FF41FF40
03FF14FF10
07FD07FC00
0AFA0BF900
0DF60EF600
1FF44FF254
1FFADFE2A0
09ECBFEA10
002AFF8000
01C3EF4000
04B8FE0000
01BEC30000
ENDCHAR
STARTCHAR uni2010
ENCODING 8208
SWIDTH 290 0
DWIDTH 5 0
BBX 4 1 0 4
BITMAP
8EE9
ENDCHAR
STARTCHAR endash
ENCODING 8211
SWIDTH 352 0
DWIDTH 6 0
BBX 5 1 0 4
BITMAP
8EEE90
ENDCHAR
STARTCHAR emdash
ENCODING 8212
SWIDTH 444 0
DWIDTH 7 0
BBX 7 1 0 4
BITMAP
8EEEEE10
ENDCHAR
STARTCHAR quoteleft
ENCODING 8216
SWIDTH 209 0
DWIDTH 3 0
BBX 3 4 1 8
BITMAP
0240
1D10
6F80
4E70
ENDCHAR
STARTCHAR quoteright
ENCODING 8217
SWIDTH 238 0
DWIDTH 4 0
BBX 3 4 1 8
BITMAP
4E70
5F90
0C20
3300
ENDCHAR
STARTCHAR quotesinglbase
ENCODING 8218
SWIDTH 220 0
DWIDTH 4 0
BBX 3 4 -1 -2
BITMAP
1DB0
1EE0
0870
0600
ENDCHAR
STARTCHAR quotedblleft
ENCODING 8220
SWIDTH 429 0
DWIDTH 7 0
BBX 6 4 1 8
BITMAP
024015
1D10C2
6F85F9
4E73E8
ENDCHAR
STARTCHAR quotedblright
ENCODING 8221
SWIDTH 426 0
DWIDTH 7 0
BBX 6 4 1 8
BITMAP
1DA1DC
2FD1EE
095087
150060
ENDCHAR
STARTCHAR quotedblbase
ENCODING 8222
SWIDTH 440 0
DWIDTH 7 0
BBX 7 4 -1 -2
BITMAP
1DB0CD00
1EE0DF10
08706800
06006000
ENDCHAR
STARTCHAR dagger
ENCODING 8224
SWIDTH 495 0
DWIDTH 8 0
BBX 7 16 1 -4
BITMAP
0003E000
0006B000
00098000
000D5000
001F1000
7BCFBB30
CFFFFF10
00A70000
00E40000
02F10000
05C00000
08900000
0B600000
0E300000
3E000000
6B000000
ENDCHAR
STARTCHAR daggerdbl
ENCODING 8225
SWIDTH 495 0
DWIDTH 8 0
BBX 8 16 0 -4
BITMAP
00003E00
00006B00
00009800
0000D500
0001F100
07BCFBB3
0CFFFFF1
000A7000
000D5000
5FFFFF80
7DDFDD50
007A0000
00A70000
00E30000
02F00000
06C00000
ENDCHAR
STARTCHAR bullet
ENCODING 8226
SWIDTH 434 0
DWIDTH 7 0
BBX 3 3 2 3
BITMAP
9E80
FFE0
9E80
ENDCHAR
STARTCHAR ellipsis
ENCODING 8230
SWIDTH 702 0
DWIDTH 11 0
BBX 11 3 0 0
BITMAP
2B704C405C40
7FF0BFB0CFA0
3EA06E607E50
ENDCHAR
STARTCHAR perthousand
ENCODING 8240
SWIDTH 1175 0
DWIDTH 19 0
BBX 19 12 0 0
BITMAP
006DE4000D3000000000
05F4AC007A0000000000
0DA09D01E20000000000
2F70BC09800000000000
3F50E82E100000000000
1F67E1A719EC1009EC20
08EB34D0AD1E709D1D80
00000C53F50E82F60D90
00005C06F21F75F30F80
0000D308F04F37F13F40
0007A006F1BA05F2AB00
001E2001CEA101BEA100
ENDCHAR
STARTCHAR minute
ENCODING 8242
SWIDTH 196 0
DWIDTH 3 0
BBX 3 4 1 8
BITMAP
0DA0
3F30
7B00
B400
ENDCHAR
STARTCHAR second
ENCODING 8243
SWIDTH 341 0
DWIDTH 5 0
BBX 6 4 1 8
BITMAP
0DA9E1
3F3D80
7B2E10
B46800
ENDCHAR
STARTCHAR guilsinglleft
ENCODING 8249
SWIDTH 359 0
DWIDTH 6 0
BBX 6 6 0 1
BITMAP
0002A3
019A20
5C4000
4C6000
019C20
000330
ENDCHAR
STARTCHAR guilsinglright
ENCODING 8250
SWIDTH 344 0
DWIDTH 6 0
BBX 6 6 0 1
BITMAP
0A6000
01AA10
0005D2
003AA1
3AA300
520000
ENDCHAR
STARTCHAR fraction
ENCODING 8260
SWIDTH 248 0
DWIDTH 4 0
BBX 9 12 -2 0
BITMAP
0000003D10
000000C600
000005C000
00000D4000
00007B0000
0001E20000
0008900000
002E100000
00A7000000
03D1000000
0B60000000
5C00000000
ENDCHAR
STARTCHAR uni2052
ENCODING 8274
SWIDTH 796 0
DWIDTH 13 0
BBX 9 12 2 0
BITMAP
5E70000D40
AFC0007A00
3C5001E200
0000099000
00002E1000
0000A70000
0004D00000
000C500000
005C000000
00D4004500
07A001FF50
1E2000CD20
ENDCHAR
STARTCHAR uni2070
ENCODING 8304
SWIDTH 379 0
DWIDTH 6 0
BBX 6 7 0 5
BITMAP
006DE4
05F4AC
0DA09D
2F70BC
3F50E8
1F67E1
08EB30
ENDCHAR
STARTCHAR uni2074
ENCODING 8308
SWIDTH 352 0
DWIDTH 6 0
BBX 6 7 0 5
BITMAP
00E3B4
01F6F2
0778D0
1CBED2
000E70
002F40
002710
ENDCHAR
STARTCHAR uni2075
ENCODING 8309
SWIDTH 335 0
DWIDTH 5 0
BBX 6 8 0 5
BITMAP
002021
00DDD1
038000
066000
08DE80
0C69F1
2E1AD0
09EB20
ENDCHAR
STARTCHAR uni2076
ENCODING 8310
SWIDTH 351 0
DWIDTH 6 0
BBX 6 7 0 5
BITMAP
006DE3
05F586
0DB020
1F9EB0
3F73F3
1F66E1
08EC30
ENDCHAR
STARTCHAR uni2077
ENCODING 8311
SWIDTH 329 0
DWIDTH 5 0
BBX 5 7 0 5
BITMAP
1DFFD0
111B40
007800
04E100
0D9000
0F7000
043000
ENDCHAR
STARTCHAR uni2078
ENCODING 8312
SWIDTH 354 0
DWIDTH 6 0
BBX 6 7 0 5
BITMAP
008EC2
03F597
01E9B1
02BF80
1D47F3
2F46F2
08ED50
ENDCHAR
STARTCHAR uni2079
ENCODING 8313
SWIDTH 345 0
DWIDTH 6 0
BBX 6 7 0 5
BITMAP
01BE90
0A84F3
0F32F5
0F47F4
08EAE0
1A1D50
088400
ENDCHAR
STARTCHAR uni2080
ENCODING 8320
SWIDTH 379 0
DWIDTH 6 0
BBX 6 7 0 0
BITMAP
006DE4
05F49C
0DA09D
1F70BC
3F50E8
1F66E1
08EC30
ENDCHAR
STARTCHAR uni2081
ENCODING 8321
SWIDTH 229 0
DWIDTH 4 0
BBX 4 7 0 0
BITMAP
0144
2EF4
04F1
08C0
0B90
0E60
3F30
ENDCHAR
STARTCHAR uni2082
ENCODING 8322
SWIDTH 328 0
DWIDTH 5 0
BBX 6 7 0 0
BITMAP
01CE80
0878F1
0568D0
002D30
01C300
0B4010
2FEE90
ENDCHAR
STARTCHAR uni2083
ENCODING 8323
SWIDTH 336 0
DWIDTH 5 0
BBX 6 7 0 0
BITMAP
01AEA0
05C3F2
0285D1
002D40
0A47E1
2E08E0
09AC30
ENDCHAR
STARTCHAR uni2084
ENCODING 8324
SWIDTH 352 0
DWIDTH 6 0
BBX 6 7 0 0
BITMAP
00E2B5
00F6F3
03E6F0
0958C0
1CBED2
000E60
003F30
ENDCHAR
STARTCHAR uni2085
ENCODING 8325
SWIDTH 335 0
DWIDTH 5 0
BBX 6 8 0 0
BITMAP
002021
00DDD1
038000
066000
08DE80
0C59F1
2E1AD0
0AEC20
ENDCHAR
STARTCHAR uni2086
ENCODING 8326
SWIDTH 351 0
DWIDTH 6 0
BBX 6 7 0 0
BITMAP
006DE3
05F586
0DB020
1F9EB0
3F73F3
1F56E1
08EC30
ENDCHAR
STARTCHAR uni2087
ENCODING 8327
SWIDTH 329 0
DWIDTH 5 0
BBX 5 7 0 0
BITMAP
1DFFE0
111B50
005A00
02E200
0BA000
0F7000
0C7000
ENDCHAR
STARTCHAR uni2088
ENCODING 8328
SWIDTH 354 0
DWIDTH 6 0
BBX 6 7 0 0
BITMAP
008ED2
03F597
01E9B1
02BF80
1D47F3
2F35F2
08EE60
ENDCHAR
STARTCHAR uni2089
ENCODING 8329
SWIDTH 345 0
DWIDTH 6 0
BBX 6 7 0 0
BITMAP
02CE90
0D64F3
1F34F5
09E7F4
0006E1
170B70
1B9800
ENDCHAR
STARTCHAR colonmonetary
ENCODING 8353
SWIDTH 384 0
DWIDTH 6 0
BBX 7 11 0 0
BITMAP
00074C10
000BDE30
02C60C90
1DA00D60
8F400000
CF100000
DF100000
9F803400
1CEFE300
0B1C0000
0C390000
ENDCHAR
STARTCHAR franc
ENCODING 8355
SWIDTH 529 0
DWIDTH 8 0
BBX 10 12 0 0
BITMAP
0006FFEED2
0006FE0000
0008FB0000
000CF90000
001FF60000
004FFEE500
007FD00000
00BFA00000
AEFFFE7000
02FF400000
05FF100000
07FD000000
ENDCHAR
STARTCHAR lira
ENCODING 8356
SWIDTH 455 0
DWIDTH 7 0
BBX 9 12 0 0
BITMAP
00007DEA00
0007F86F30
001EF27E10
004FD00100
008FA00000
3EFFFEA000
8EFFEE5000
04FD000000
07F9000000
0CE3000500
3FFFEDEC00
ADDDEFD400
ENDCHAR
STARTCHAR uni20A6
ENCODING 8358
SWIDTH 723 0
DWIDTH 12 0
BBX 13 12 0 0
BITMAP
0000FF4002F600
0004FF7005F300
0007FFB009E000
000AFFE00CB000
000ECFF21F8000
4CCFDFFDDFDC40
005F3BF97F1000
AEFFEFFFFFEE00
00CB04FEDA0000
00F801FFF60000
04F400CFF20000
07F1008FE00000
ENDCHAR
STARTCHAR uni20A9
ENCODING 8361
SWIDTH 841 0
DWIDTH 13 0
BBX 15 12 0 0
BITMAP
00EF8002FF200980
00DF8008FF201E20
00DF800DFF205A00
00CF804EFF20B400
00BF80A8FF21D000
4CEFECECFFCDDC80
00BF8592FF2C2000
AEFFFFEEFFFFEE40
009F9C01FF870000
009FD800FFD20000
008FF300FFB00000
008FD000FF600000
ENDCHAR
STARTCHAR Euro
ENCODING 8364
SWIDTH 507 0
DWIDTH 8 0
BBX 10 12 0 0
BITMAP
000019DE90
0002DD25F6
001DF406F7
007FC008D2
00DF800000
3EFFFEE900
06FF300000
8FFFEEE400
06FF200000
04FF700400
00DFFEEC00
003BFEA200
ENDCHAR
STARTCHAR uni20AE
ENCODING 8366
SWIDTH 481 0
DWIDTH 8 0
BBX 12 12 0 0
BITMAP
005BDFD94145
0AB35FFFFFF4
6E108FE29C80
CA00BFB00000
D900DF800000
9901FF535000
068BFFB95000
1A8AFE685000
279EFC630000
452EF6000000
002FF2000000
006FE0000000
ENDCHAR
STARTCHAR uni20B3
ENCODING 8371
SWIDTH 573 0
DWIDTH 9 0
BBX 10 12 0 0
BITMAP
0018CEEA20
04D7222DD1
3F45FE06F5
BC09FA05F7
D90CF708F5
891FF41ED0
004FF2BE40
09FFFDA200
1EFFFEB000
00FF500000
03FF200000
06FE000000
ENDCHAR
STARTCHAR uni20B4
ENCODING 8372
SWIDTH 570 0
DWIDTH 9 0
BBX 9 12 0 0
BITMAP
0019DEE910
01D811CF70
03F300CF60
005206FA00
1EEEFFEE90
0006E60000
6EFFFEEE30
06F9000000
1FF208EB00
5FE001DF10
2FF503EB00
04CEED8100
ENDCHAR
STARTCHAR uni20B8
ENCODING 8376
SWIDTH 522 0
DWIDTH 8 0
BBX 13 12 0 0
BITMAP
08EEEEEEEEEE10
00000000000000
004ADEFFFFFA00
09E51FFABCB300
7F504FF1000000
DE007FD0000000
AD00BF90000000
0400EF60000000
0002FF30000000
0006FE00000000
0009FB00000000
000CF700000000
ENDCHAR
STARTCHAR uni20B9
ENCODING 8377
SWIDTH 544 0
DWIDTH 9 0
BBX 10 12 0 0
BITMAP
05CCDEDCC3
0ACCCFFDA0
00000DF200
00003FC000
0004DE2000
1CEFF60000
0006FF4000
0000FF5000
0002FF2000
0007FD0000
000AFA0000
0005DA0000
ENDCHAR
STARTCHAR uni20BA
ENCODING 8378
SWIDTH 455 0
DWIDTH 7 0
BBX 9 12 0 0
BITMAP
0008FC0000
000BF90000
000EF54000
003FFD8000
27DFE14200
55AFEC8100
18EF803400
26FF402F50
04FF103F60
07FD00BE10
0AFB7DD300
0CFEB60000
ENDCHAR
STARTCHAR uni20BD
ENCODING 8381
SWIDTH 573 0
DWIDTH 9 0
BBX 10 12 0 0
BITMAP
0018CEEA20
04D7222DD1
3F45FD06F5
BC09FA05F7
D90CF708F5
891FF41ED0
004FF3BE30
2EFFFDA200
7EFFFE1000
01FF400000
03FF100000
06FE000000
ENDCHAR
STARTCHAR uni2116
ENCODING 8470
SWIDTH 996 0
DWIDTH 16 0
BBX 16 12 0 0
BITMAP
005BEE4002F60000
09FBFF8005F32CE3
5F65FFC008E0CB59
BD08FFF00CB3F558
DB0CDFF30F86F276
9C1F8DF73F56F3C1
034F59FB6F22DE50
007F16FE9D1FFFF2
00BD02FFEA133330
00E900EFF7000000
02F600AFF3000000
06F2006FF0000000
ENDCHAR
STARTCHAR uni2120
ENCODING 8480
SWIDTH 585 0
DWIDTH 9 0
BBX 8 5 1 7
BITMAP
03640514
09564B88
03D28BC6
48788EA4
18842661
ENDCHAR
STARTCHAR trademark
ENCODING 8482
SWIDTH 379 0
DWIDTH 6 0
BBX 7 4 -1 7
BITMAP
17A861A0
4480D5B0
0552C890
08259860
ENDCHAR
STARTCHAR uni2126
ENCODING 8486
SWIDTH 745 0
DWIDTH 12 0
BBX 12 14 0 -1
BITMAP
000000010000
000018EFF910
0003DC659F80
001E900009F0
00AC000005F2
02F5000004F3
06F0000005F1
08D0000008C0
07D000000E60
04F100007C00
00D60003E200
014D204C3100
6FFF60DFFF50
233310333310
ENDCHAR
STARTCHAR uni212A
ENCODING 8490
SWIDTH 601 0
DWIDTH 10 0
BBX 11 12 0 0
BITMAP
0028DF407F30
05D9FF13F500
4F37FC1D7000
CB0AF9A90000
D90DFCB00000
362FFDDB2000
005FE08FA000
008FB07FA000
00BF80BF7000
00EF50EF3000
03FF23FF0000
06FE02EF2000
ENDCHAR
STARTCHAR uni212B
ENCODING 8491
SWIDTH 668 0
DWIDTH 11 0
BBX 12 16 0 -2
BITMAP
000000000593
000000000A27
000000002BD2
00000008DFE0
000000A6AFB0
000009A0DF70
00005F21FF40
19DFFE87FF10
BE39F23BFC00
8B2FA00BF900
009F500EF600
01EE002FF200
05FA006FE000
08F7009FB000
09F500232000
03D500000000
ENDCHAR
STARTCHAR estimated
ENCODING 8494
SWIDTH 786 0
DWIDTH 13 0
BBX 12 12 0 0
BITMAP
0003ADED8100
007E7203AD30
05FC00001FD1
0DFC00001FF8
3FFC00001FFD
6FFFDDDDDEEE
6FFC00000000
3FFC00000000
0DFC00000000
04FC00000300
006E61028D20
00039DEC8100
ENDCHAR
STARTCHAR uni2153
ENCODING 8531
SWIDTH 733 0
DWIDTH 12 0
BBX 12 12 0 0
BITMAP
01540000D400
2EF40006B000
04F1001E3000
08C000890000
0B9002E10000
0E600A706ED2
2E203D10F2C8
0000B60073D4
0005C0000A90
000D400682F5
006B000C42F5
01E30005BB70
ENDCHAR
STARTCHAR uni2154
ENCODING 8532
SWIDTH 852 0
DWIDTH 14 0
BBX 14 12 0 0
BITMAP
01CE800001E300
0878F100089000
0568D0002E2000
002D3000980000
01C30003E10000
0C30100B608EC1
2FEE904D02F1E6
000000D40083E3
000006B0001B70
00001E300874F4
000089000E34F3
0002E20006BC60
ENDCHAR
STARTCHAR oneeighth
ENCODING 8539
SWIDTH 741 0
DWIDTH 12 0
BBX 12 12 0 0
BITMAP
01540000D400
2EF40006B000
04F1001E3000
08C000890000
0B9002E10000
0E600A706ED4
2E203D10F869
0000B600CBA3
0005C0019EA0
000D400B74F5
006B000E62F5
01E30006EE80
ENDCHAR
STARTCHAR threeeighths
ENCODING 8540
SWIDTH 828 0
DWIDTH 13 0
BBX 13 12 0 0
BITMAP
01BEA00007A000
05C3F2001E2000
0176C000980000
002D5002E10000
1D47F10B700000
2E09D04D02CE90
06A910C509D1F0
000005C006E870
00000D3005DE20
00007A005C1DB0
0001E2008C0BB0
000980002CEB20
ENDCHAR
STARTCHAR fiveeighths
ENCODING 8541
SWIDTH 827 0
DWIDTH 13 0
BBX 13 13 0 0
BITMAP
00202100000000
00DDD10007A000
038000001E2000
06600000980000
08DE8003E10000
0C69F10B600000
2E1AD04D02CE90
09EB20C509D1F0
000006B007E870
00001D3005EE20
00007A006C1DB0
0001E2009C0CB0
000980002CEB20
ENDCHAR
STARTCHAR seveneighths
ENCODING 8542
SWIDTH 761 0
DWIDTH 12 0
BBX 12 12 0 0
BITMAP
1DFFD0008900
111B4002E100
0078000A7000
04E1003D0000
0D9000C50000
0F7005C03CE8
04300D40AC2E
00007B007E86
0001E2006EE2
00089006B1DA
002E1009B0CA
00A70002CEB1
ENDCHAR
STARTCHAR partialdiff
ENCODING 8706
SWIDTH 597 0
DWIDTH 10 0
BBX 10 13 0 -1
BITMAP
00007DFD40
0002C65BE1
00000001F6
00000000D7
00000000D7
0019EFD7F5
02EA546DF1
0C800009B0
3F10001F40
5F1000BA00
2F923BC100
07FFF91000
0013100000
ENDCHAR
STARTCHAR uni2206
ENCODING 8710
SWIDTH 619 0
DWIDTH 10 0
BBX 10 13 0 -1
BITMAP
0000009C20
000005FF50
00000DBF70
00007E1F90
0001E60DB0
0009C00BE0
003F4009F1
00CA0007F3
05F20005F6
1D800003F8
8E211111FA
CFFFFFFFFB
2333333332
ENDCHAR
STARTCHAR product
ENCODING 8719
SWIDTH 661 0
DWIDTH 11 0
BBX 11 14 0 -1
BITMAP
011111111100
3FFFFFFFFF30
139C336F4300
00B9006D0000
00E5009A0000
02F200C70000
05E001F40000
08B004F10000
0C8007D00000
0E400A900000
3F100D600000
6D001F300000
9A004F000000
220013000000
ENDCHAR
STARTCHAR summation
ENCODING 8721
SWIDTH 605 0
DWIDTH 10 0
BBX 10 14 0 -1
BITMAP
0001111111
005FFFFFFC
005F733332
000CC00000
0004F50000
0000BD0000
00003F6000
00005F5000
0004F60000
003E800000
02E9000000
1DB1111100
7FFFFFFB00
2333333200
ENDCHAR
STARTCHAR minus
ENCODING 8722
SWIDTH 471 0
DWIDTH 8 0
BBX 7 3 0 4
BITMAP
01111100
3FFFFF60
13333310
ENDCHAR
STARTCHAR uni2215
ENCODING 8725
SWIDTH 488 0
DWIDTH 8 0
BBX 8 12 0 0
BITMAP
00000098
000003E1
00000B60
00004D00
0000C500
0006B000
001D3000
008A0000
02E20000
09800000
3E100000
B7000000
ENDCHAR
STARTCHAR uni2219
ENCODING 8729
SWIDTH 434 0
DWIDTH 7 0
BBX 3 4 2 3
BITMAP
0100
AF90
FFE0
9E80
ENDCHAR
STARTCHAR radical
ENCODING 8730
SWIDTH 660 0
DWIDTH 11 0
BBX 11 13 0 0
BITMAP
000000011100
0000008FFF10
000000D83300
000004F10000
00000AA00000
00001E400000
00006D000000
0100C7000000
8F82F1000000
2AA8A0000000
06DD40000000
03FD00000000
00A600000000
ENDCHAR
STARTCHAR infinity
ENCODING 8734
SWIDTH 833 0
DWIDTH 13 0
BBX 12 6 0 1
BITMAP
019ED502AFD3
0CA48F7D74D9
3F100BF300B9
4F429CCA24F3
0CFF912DFE60
002100002100
ENDCHAR
STARTCHAR integral
ENCODING 8747
SWIDTH 305 0
DWIDTH 5 0
BBX 8 16 -2 -3
BITMAP
000004DD
00001E70
00005F00
00008C00
0000B900
0000E600
0002F300
0006E000
0009B000
000C8000
000F5000
003F2000
006E0000
009B0000
02E60000
7D900000
ENDCHAR
STARTCHAR approxequal
ENCODING 8776
SWIDTH 441 0
DWIDTH 7 0
BBX 8 6 0 1
BITMAP
08EE9322
0646BFF1
00000220
4EFB5230
5559EF60
00001200
ENDCHAR
STARTCHAR notequal
ENCODING 8800
SWIDTH 500 0
DWIDTH 8 0
BBX 8 9 0 0
BITMAP
0000B200
0000C000
08FFFFF6
08CDDCC2
00093000
2CCECC80
6FFFFF80
00570000
00210000
ENDCHAR
STARTCHAR lessequal
ENCODING 8804
SWIDTH 405 0
DWIDTH 6 0
BBX 7 9 0 1
BITMAP
00000430
0004CE30
04CE7100
1EE40000
019FA200
0002B700
01111100
DFFFFC00
33333200
ENDCHAR
STARTCHAR greaterequal
ENCODING 8805
SWIDTH 405 0
DWIDTH 6 0
BBX 7 9 0 1
BITMAP
01700000
02DD5000
0007EC20
0006DD30
05DD5000
0D600000
11111100
BFFFFD00
33333200
ENDCHAR
STARTCHAR lozenge
ENCODING 9674
SWIDTH 619 0
DWIDTH 10 0
BBX 10 12 0 0
BITMAP
00001DF100
0000BBE700
0008D19D00
005E303F40
03E5000CA0
1D800006F1
2F400008D1
0CA0005E20
06E103E400
01E61D7000
009CBA0000
003FC00000
ENDCHAR
STARTCHAR uni27E8
ENCODING 10216
SWIDTH 456 0
DWIDTH 7 0
BBX 8 17 0 -3
BITMAP
00000071
000005B0
00002C10
0000B400
00088000
004B0000
02D20000
0B400000
1D000000
08700000
01C20000
004B0000
00096000
0001D200
00005A00
00000A40
00000100
ENDCHAR
STARTCHAR uni27E9
ENCODING 10217
SWIDTH 456 0
DWIDTH 7 0
BBX 7 17 0 -2
BITMAP
01000000
1C100000
06900000
00B40000
002C1000
00078000
0000C300
00003C00
00000960
00001D20
0000B500
00079000
003C0000
01C20000
0A500000
79000000
80000000
ENDCHAR
STARTCHAR ff
ENCODING 64256
SWIDTH 508 0
DWIDTH 8 0
BBX 14 16 -4 -4
BITMAP
0000005DEA9EE7
000003FE2BFD1C
000009FA0BF901
00000CF70EF600
00001FFFEFFEC0
00004FF24FF100
00007FE07FD000
0000AFB0AF9000
0000DF80DF6000
0001FF51FF3000
0004FF25FE0000
0008FE4AFB0000
04CFFB1BF80000
2E4BF70EF40000
4B2EF44FE00000
0AED8CEC300000
ENDCHAR
STARTCHAR fi
ENCODING 64257
SWIDTH 534 0
DWIDTH 9 0
BBX 14 16 -4 -4
BITMAP
0000002AEEB300
000001EF51EB00
000007FC05FA00
00000CF8002000
00000FFF9BF800
00003FF30EF500
00006FE03FF200
00009FB06FE000
0000DF809FB000
0001FF50CF8081
0004FF20CFC980
0007FD005ED700
039DFA00000000
2C1DF600000000
4A3FE100000000
0AEC4000000000
ENDCHAR
STARTCHAR fl
ENCODING 64258
SWIDTH 548 0
DWIDTH 9 0
BBX 14 16 -4 -4
BITMAP
0000005DED9400
000003FE21EF60
000009FB02FF30
00000CF805FF00
00001FFFC8FC00
00004FF20BF800
00007FE00EF500
0000AFB03FF200
0000DF806FE000
0001FF408FB063
0004FF108FD8B0
0008FD003DE910
04ADFA00000000
2C0DF600000000
4A3FE100000000
0AEC4000000000
ENDCHAR
STARTCHAR ffi
ENCODING 64259
SWIDTH 764 0
DWIDTH 12 0
BBX 17 16 -4 -4
BITMAP
0000005DE94CEE9100
000003FF37FD27F600
000009FB0DF709F400
00000CF82FF3001000
00001FFFFFFEEFF400
00004FF37FD03FF100
00007FE0BFA07FC000
0000AFB0EF60AF9000
0000DF72FF30DF6000
0001FF46FF01FF3180
0004FF19FC02FF9B40
0008FE6DF8009EC400
04ADFA0FF500000000
2D1CF73FF200000000
4B2FF49FB000000000
0AED8DEA1000000000
ENDCHAR
STARTCHAR ffl
ENCODING 64260
SWIDTH 780 0
DWIDTH 12 0
BBX 17 16 -4 -4
BITMAP
0000005DEB9EEC8300
000003FF39FB04FF20
000009FB0DF606FE00
00000CF82FF309FA00
00001FFFFFFE8CF700
00004FF37FD01FF400
00007FE0AFA04FF100
0000AFB0EF607FD000
0000DF72FF30AFA000
0001FF46FF00DF7090
0004FF19FC00DFB970
0008FE6DF8006ED700
04ADFA0FF500000000
2D1CF73FF200000000
4B2FF49FB000000000
0AED7DEA1000000000
ENDCHAR
STARTCHAR .notdef
ENCODING -1
SWIDTH 810 0
DWIDTH 13 0
BBX 13 20 0 -4
BITMAP
0000AAAAAAAAA0
00019000000090
00046000000370
00073000000630
00090000000900
000A0000000A00
0028039B501800
00550D29D04500
0081063C608200
00A0009500A000
0090056000A000
03700100027000
06300D30064000
09000200091000
090000000A0000
18000000190000
45000000460000
82000000730000
90000000A00000
BAAAAAAA900000
ENDCHAR
STARTCHAR A.salt
ENCODING -1
SWIDTH 590 0
DWIDTH 9 0
BBX 10 14 0 -2
BITMAP
0000003BEA
000006ACF9
00004A0EF6
0002D13FF2
000B606FE0
005FCCEFB0
00D800DF80
06F301FF50
0DD004FF10
4F9007FD00
9F600AFA00
CF300DF700
DF10000000
6E10000000
ENDCHAR
STARTCHAR B.salt
ENCODING -1
SWIDTH 633 0
DWIDTH 10 0
BBX 10 12 0 0
BITMAP
0018CEEB30
05E8441BE1
3F66FD06F5
BD0AFA09F2
D90DF66F60
791FFFFF90
005FF13FF6
008FC00DF8
00BF900EF5
00EF504FE1
03FF41CF50
06FEBED500
ENDCHAR
STARTCHAR E.salt
ENCODING -1
SWIDTH 554 0
DWIDTH 9 0
BBX 10 12 0 0
BITMAP
006BEFFFF8
1CA8FE9CA1
8D08FB0000
CA0CF70000
BA0FF40000
143FFFF700
006FD33100
009F900000
00DF600000
01FF300000
04FFDDD700
07FFFFF600
ENDCHAR
STARTCHAR N.salt
ENCODING -1
SWIDTH 669 0
DWIDTH 11 0
BBX 12 12 0 0
BITMAP
0028DFBDE700
05A9FF42FF30
4E1BFB00EF50
CA0EF802FF30
D92FF505FF00
466FF209FB00
009FE00CF800
00CFB01FF400
00FF803FF100
03FF506FD032
06FF206FC190
09FE001CEB20
ENDCHAR
STARTCHAR i.loclTRK
ENCODING -1
SWIDTH 267 0
DWIDTH 4 0
BBX 6 11 -1 0
BITMAP
004E80
008FE0
003C60
01FF40
03FF10
07FD00
0AFA00
0DF600
1FF319
1FFAC4
09EC50
ENDCHAR
STARTCHAR a.end
ENCODING -1
SWIDTH 467 0
DWIDTH 7 0
BBX 9 8 -1 0
BITMAP
0019EDCF90
01CF81FF60
07FD02FF30
0DF805FF00
1FF408FC00
3FF30BF900
1FF53FF800
06ED97ED20
ENDCHAR
STARTCHAR aacute.end
ENCODING -1
SWIDTH 461 0
DWIDTH 7 0
BBX 9 12 -1 0
BITMAP
000000CC00
000004F300
00000B8000
0000010000
002AEDDF70
01DF62FF40
08FC03FF10
0EF606FD00
3FF309FB00
4FF10CF800
2FF34FF700
07ED88EC10
ENDCHAR
STARTCHAR c.end
ENCODING -1
SWIDTH 341 0
DWIDTH 5 0
BBX 7 8 -1 0
BITMAP
001AEE50
01DF68B0
08FC0660
0EF70000
3FF30000
4FF10000
2FF41500
07EEB200
ENDCHAR
STARTCHAR d.end
ENCODING -1
SWIDTH 476 0
DWIDTH 8 0
BBX 10 11 -1 0
BITMAP
0000001CE4
0000004FF1
0000008FC0
0019EDCF90
01CF81FF60
07FD02FF30
0DF805FF00
1FF408FC00
3FF30BF900
1FF53FF800
06EE98EE40
ENDCHAR
STARTCHAR e.end
ENCODING -1
SWIDTH 366 0
DWIDTH 6 0
BBX 7 8 -1 0
BITMAP
0019DE60
01CF77C0
07FC09A0
0DF77E30
2FFEA300
3FF20000
1FF61600
06DEC300
ENDCHAR
STARTCHAR eacute.end
ENCODING -1
SWIDTH 367 0
DWIDTH 6 0
BBX 8 12 -1 0
BITMAP
000007F3
00000D80
00006D10
00001100
0019DE60
00CF76D0
07FD09A0
0DF77E30
1FFEA300
3FF30000
1FF61600
05DFC300
ENDCHAR
STARTCHAR uni0292.end
ENCODING -1
SWIDTH 391 0
DWIDTH 6 0
BBX 7 12 0 -4
BITMAP
3DFFFD10
AC0CF500
437FB000
02FF2000
0BF80000
0CFC1000
00CF9000
008FC000
05BFD000
968FB000
D1CF6000
7EE70000
ENDCHAR
STARTCHAR g.end
ENCODING -1
SWIDTH 480 0
DWIDTH 8 0
BBX 9 12 -1 -4
BITMAP
0019EDDF90
01CF81FF60
07FD02FF20
0DF805FE00
1FF408FB00
3FF30BF800
1FF53FF500
06EEBFF200
00169FE000
00C29FA000
00D1DF4000
007ED60000
ENDCHAR
STARTCHAR uni01E5.end
ENCODING -1
SWIDTH 507 0
DWIDTH 8 0
BBX 9 12 -1 -4
BITMAP
0019EDDF90
01CF81FF50
07FD02FF20
0DF805FE00
1FF408FB00
3FF30BF800
1FF53FF400
06EEBFF100
0037AFD000
07ECEFE800
00E2FF3000
006ED60000
ENDCHAR
STARTCHAR h.end
ENCODING -1
SWIDTH 453 0
DWIDTH 7 0
BBX 9 11 -1 0
BITMAP
004DE00000
009FA00000
00CF700000
00FFBEE500
03FF48FC00
07FC07FB00
0AF90AF800
0DF60DF500
1FF31FF200
5FF01FFA10
8FC009EA00
ENDCHAR
STARTCHAR i.end
ENCODING -1
SWIDTH 209 0
DWIDTH 3 0
BBX 5 12 -1 0
BITMAP
003C60
008FE0
004E80
000000
01FF40
03FF10
07FD00
0AFA00
0DF600
1FF300
1FFA20
09EB00
ENDCHAR
STARTCHAR iacute.end
ENCODING -1
SWIDTH 209 0
DWIDTH 3 0
BBX 6 12 -1 0
BITMAP
0001E9
0007D1
001E50
000000
01FF40
03FF10
07FD00
0AFA00
0DF600
1FF300
1FFA20
09EB00
ENDCHAR
STARTCHAR ij.end
ENCODING -1
SWIDTH 480 0
DWIDTH 8 0
BBX 10 15 -1 -4
BITMAP
004E802DB0
008FE05FF2
003C601B90
01FF40BF90
03FF10EF60
07FD02FF20
0AFA06FE00
0DF609FB00
1FF30CF800
1FFA3FF500
09EB4FF200
0028BFE000
00C1AFA000
00E7FF4000
007ED60000
ENDCHAR
STARTCHAR j.end
ENCODING -1
SWIDTH 213 0
DWIDTH 3 0
BBX 8 15 -4 -4
BITMAP
000004E7
000009FD
000003C6
00000FF5
00003FF1
00007FD0
0000AFA0
0000DF70
0001FF40
0004FF10
0008FC00
04CFF900
3D3CF600
4A3FE100
0AEC3000
ENDCHAR
STARTCHAR k.end
ENCODING -1
SWIDTH 472 0
DWIDTH 8 0
BBX 9 12 -1 0
BITMAP
0000100000
005EE00000
009FB00000
00CF700000
00FF41AA10
03FF4B5000
06FFFFD200
0AFE7EF900
0DF60CF900
1FF30EF600
4FF00EFB30
8FC006EC10
ENDCHAR
STARTCHAR l.end
ENCODING -1
SWIDTH 207 0
DWIDTH 3 0
BBX 5 11 -1 0
BITMAP
001570
007FC0
00BF90
00EF60
03FF30
06FE00
0AFB00
0DF800
1FF500
2FF300
09FC10
ENDCHAR
STARTCHAR m.end
ENCODING -1
SWIDTH 701 0
DWIDTH 11 0
BBX 13 8 -1 0
BITMAP
00FFBEE88DE500
03FF48FF48FB00
07FC08FC08FB00
0AF90BF80BF800
0DF60EF50EF400
1FF32FF21FF100
4FF05FE02FFA10
8FC08FB00AE900
ENDCHAR
STARTCHAR n.end
ENCODING -1
SWIDTH 454 0
DWIDTH 7 0
BBX 9 8 -1 0
BITMAP
00FFBEE500
03FF47FC00
07FC07FC00
0AF90AF900
0DF60DF500
1FF31FF200
4FF01FFA20
8FC009EA00
ENDCHAR
STARTCHAR o.end
ENCODING -1
SWIDTH 487 0
DWIDTH 8 0
BBX 9 8 -1 0
BITMAP
0019DE6000
01CF74F270
07FD07FC10
0DF806F200
2FF406E000
3FF30B9000
1FF44E2000
05DEB30000
ENDCHAR
STARTCHAR oacute.end
ENCODING -1
SWIDTH 487 0
DWIDTH 8 0
BBX 9 12 -1 0
BITMAP
000004F500
00000BB000
00003E2000
0000120000
0019DE6000
00CF74F270
07FD07FD10
0DF805F300
1FF506E000
3FF30AA000
1FF54E2000
05DEB30000
ENDCHAR
STARTCHAR s.end
ENCODING -1
SWIDTH 316 0
DWIDTH 5 0
BBX 6 9 -1 0
BITMAP
000023
000DFB
004FFB
009AFC
02A7FE
0A45FF
5E55FF
6809FB
1AEE91
ENDCHAR
STARTCHAR t.end
ENCODING -1
SWIDTH 276 0
DWIDTH 4 0
BBX 6 11 -1 0
BITMAP
001460
008FC0
00BF80
06FFF5
01FF30
05FE00
08FB00
0CF800
0FF500
1FFA10
09E800
ENDCHAR
STARTCHAR u.end
ENCODING -1
SWIDTH 459 0
DWIDTH 7 0
BBX 9 8 -1 0
BITMAP
01FF41FF40
03FF14FF10
07FD07FC00
0AFA0BF900
0DF60EF600
1FF43FF300
1FFACFFA20
09EC38EB00
ENDCHAR
STARTCHAR uacute.end
ENCODING -1
SWIDTH 459 0
DWIDTH 7 0
BBX 9 12 -1 0
BITMAP
000004F500
00000CA000
00004E2000
0000000000
01FF41FF40
03FF14FF10
07FD07FC00
0AFA0BF900
0DF60EF600
1FF43FF300
1FFACFFA20
09EC38EB00
ENDCHAR
STARTCHAR x.end
ENCODING -1
SWIDTH 500 0
DWIDTH 8 0
BBX 8 9 0 0
BITMAP
00000098
019EC1CE
082CF63B
2708FBC2
8106FE30
A009FE00
006AFF20
04B0DFB4
3D105EC2
ENDCHAR
STARTCHAR y.end
ENCODING -1
SWIDTH 460 0
DWIDTH 7 0
BBX 9 12 -1 -4
BITMAP
01FF41FF40
03FF14FF10
07FD07FD00
0AFA0BF900
0DF60EF600
1FF43FF300
1FFADFF000
09ECBFC000
005ADF9000
03C0EF5000
0594FE1000
00AEC30000
ENDCHAR
STARTCHAR k.salt
ENCODING -1
SWIDTH 518 0
DWIDTH 8 0
BBX 10 11 -1 0
BITMAP
004DE00000
008FB00000
00CF800000
00EF51AE10
03FF4CBA00
06FFEA8100
0AFFAEF800
0DF70BF900
1FF40EF608
4FF10EFBA5
8FC007EE60
ENDCHAR
STARTCHAR p.salt
ENCODING -1
SWIDTH 482 0
DWIDTH 8 0
BBX 11 13 -2 -4
BITMAP
000683000000
000FFADE4000
003FFA9FC000
006FE00EE000
00AFA00ED530
00DF606FD830
01FF4CCF4000
04FF89DB0000
08FC5EB10000
0BF800000000
0EF500000000
2FF200000000
4A6000000000
ENDCHAR
STARTCHAR E_x
ENCODING -1
SWIDTH 797 0
DWIDTH 13 0
BBX 14 12 0 0
BITMAP
0004CEC3000000
003FC17C000000
00BF408C000000
00DF3073004E30
009F8003424E70
006FE409FA0940
0AFE2006FD3A00
6FF60003FFB100
CFF10000FF5000
DFE00006FF7073
9FF502998FE9B0
19EEC9301DE910
ENDCHAR
STARTCHAR F_i
ENCODING -1
SWIDTH 726 0
DWIDTH 12 0
BBX 13 12 0 0
BITMAP
006BEFFFFFF700
0B82FF7AEFD100
7D04FF10020000
CA08FD00000000
CA0BFA00AF9000
470EFFE7DF6000
002FF302FF3000
005FF005FF0000
008FC008FC0000
00BF900BF90810
00EF500BFC9900
02FF2004EE8000
ENDCHAR
STARTCHAR T_h
ENCODING -1
SWIDTH 971 0
DWIDTH 16 0
BBX 17 12 0 0
BITMAP
006BDFEDCBB9000000
1CB35FF46EF6000000
8D008FC01FF2000000
DA00BF904FD0000000
B900EF607FDCEA0000
1302FF30AFB1FF4000
0005FE00DF40FF4000
0008FB01FF13FF2000
000BF804FE06FD0000
000EF507FB09FA0510
003FF20BF809FA1900
006FE00EF602DEA100
ENDCHAR
STARTCHAR T_i
ENCODING -1
SWIDTH 744 0
DWIDTH 12 0
BBX 13 12 0 0
BITMAP
006BDFFFFFF900
1C914FF9DFF600
8D008FC0011000
CA00BF90000000
D900EF606FE000
4702FF209FB000
0005FE00CF7000
0008FB01FF4000
000BF804FF1000
000EF506FD0450
003FF207FE8B10
006FE001CEA200
ENDCHAR
STARTCHAR a_x
ENCODING -1
SWIDTH 899 0
DWIDTH 14 0
BBX 16 9 -1 0
BITMAP
00000000000008A0
0019EDCF92FF2AF2
01CF71FF50EF50C0
07FC02FF20BF7760
0DF705FE008FD900
1FF309FB006FE000
3FF30DF801BFF109
1FFBBDFD9D5DFBB6
06EE63DEB305ED60
ENDCHAR
STARTCHAR a_z
ENCODING -1
SWIDTH 906 0
DWIDTH 15 0
BBX 16 8 -1 0
BITMAP
0019EDCF91BFFFF3
01CF81FF66F19FA0
07FD02FF3263FF20
0DF805FF000BF800
1FF408FC005FE100
3FF30BF900DF7000
1FF53FF807FD09B0
06ED86ED4EFFED40
ENDCHAR
STARTCHAR b_s
ENCODING -1
SWIDTH 799 0
DWIDTH 13 0
BBX 15 11 -1 0
BITMAP
004DE00000000000
008FB00000000000
00CF800000252000
00FFCEA006FF6000
03FF79F52AEF7000
07FE04FA81DF8000
0AFB04F800CF9000
0DF805F400AFA000
1FF409D2C6AFA510
0FF53E4490CFD400
06EEB400AEE91000
ENDCHAR
STARTCHAR b_s_x
ENCODING -1
SWIDTH 1144 0
DWIDTH 18 0
BBX 20 12 -1 0
BITMAP
00013000000000000000
006FE000000000000000
009FB000000000000000
00CF8000004630000BB0
01FFCEA006FF63FF19F0
04FF69F52AEF71FF30D0
07FD04FA81DF80DF5670
0AFA04F800CF90AFAC00
0DF606F400BFA08FE200
1FF30CD2C6AFA3BFE006
0FFBBF4490CFD82FFAB6
06EEB400AED80007ED60
ENDCHAR
STARTCHAR b_s_z
ENCODING -1
SWIDTH 1158 0
DWIDTH 19 0
BBX 20 11 -1 0
BITMAP
004DE000000000000000
008FB000000000000000
00CF8000003520000000
00FFCEA006FF60AFEFF4
03FF69F52AEF75F28FA0
07FE04FA81DF8272FF20
0AFB04F700CF900BF900
0DF805F400AFA04FE100
1FF409D2C6AFA0DF7120
0FF53E4490CF67FD0AC0
06EEB400AEE81EFFED40
ENDCHAR
STARTCHAR c_x
ENCODING -1
SWIDTH 755 0
DWIDTH 12 0
BBX 14 9 -1 0
BITMAP
00000000000C70
002AEE56FD1EC0
01DF68B3FF0390
09FC0551FF3A20
0EF60000DFD500
3FF20000AFA000
4FF10003EFC027
2FF6017A4FF9C2
05DFDA4009EC30
ENDCHAR
STARTCHAR c_z
ENCODING -1
SWIDTH 769 0
DWIDTH 12 0
BBX 14 8 -1 0
BITMAP
001AEE508FFFE1
01DF68B3F3CF70
08FC0662B6FD00
0EF700001DF500
3FF300008FC000
4FF10002FF4000
2FF4150AFA1C80
07EEB24FFFFC30
ENDCHAR
STARTCHAR e_x
ENCODING -1
SWIDTH 762 0
DWIDTH 12 0
BBX 14 9 -1 0
BITMAP
00000000000B80
0019DE65FE0CE0
00CF76D2FF22B0
07FD09A0EF5A40
0DF77E30CFD700
1FFEA3009FC000
3FF30001CFD017
1EF8016B4FFAC4
04CFDB5008EC40
ENDCHAR
STARTCHAR e_z
ENCODING -1
SWIDTH 788 0
DWIDTH 13 0
BBX 14 8 -1 0
BITMAP
002AEE50AFEFF5
01DF58B4F27FC0
09FB0B9142EF30
0EF68E200AFA00
3FFEA2003FF200
4FF10000CF8010
2FF41506FE18D0
07EEB21DFFED50
ENDCHAR
STARTCHAR eacute_x
ENCODING -1
SWIDTH 760 0
DWIDTH 12 0
BBX 14 12 -1 0
BITMAP
000003F6000000
00000AB0000000
00003E20000000
00000000000B70
0019DE65FE0DD0
01CF67C2FF12B0
08FC09A0FF4A30
0DF77E30CFD700
2FFEA200AFB000
3FF20001CFD016
1EF8016B4FFAC3
04CFDA5008EC40
ENDCHAR
STARTCHAR f_f_t
ENCODING -1
SWIDTH 780 0
DWIDTH 12 0
BBX 17 16 -4 -4
BITMAP
0000005DEB9EEC8300
000003FF39FB04FF20
000009FB0DF606FE00
00000CF82FF309FA00
00001FFFFFFEEFFF70
00004FF37FD00EF500
00007FE0AFA03FF200
0000AFB0EF606FD000
0000DF72FF30AFA000
0001FF46FF00DF7090
0004FF19FC00DFB970
0008FE6DF8006ED700
04ADFA0FF500000000
2D1CF73FF200000000
4B2FF49FB000000000
0AED7DEA1000000000
ENDCHAR
STARTCHAR f_i_x
ENCODING -1
SWIDTH 898 0
DWIDTH 14 0
BBX 19 16 -4 -4
BITMAP
0000002AEEB300000000
000001EF51EB00000000
000007FC05FB00000000
00000CF8004100006800
00000FFF9BF82FF2AF10
00003FF30EF50EF40D00
00006FE03FF20BF77700
00009FB06FE009FCA000
0000DF809FB006FE0000
0001FF50CF801BFF1090
0004FF20CFD9D4EFBB60
0007FD005EE9205ED600
039DFA00000000000000
2C1DF600000000000000
4A3FE100000000000000
0AEC4000000000000000
ENDCHAR
STARTCHAR f_i_z
ENCODING -1
SWIDTH 904 0
DWIDTH 14 0
BBX 19 16 -4 -4
BITMAP
0000002AEEB300000000
000001EF51EB00000000
000007FC05FA00000000
00000CF8002000000000
00000FFF9BF81BFFFF30
00003FF30EF56F19F900
00006FE03FF2253FE200
00009FB06FE000CF7000
0000DF809FB005FD1000
0001FF50CF801DF52200
0004FF20CFA28FC0AB00
0007FD005ED5FFFFD300
039DFA00000000000000
2C1DF600000000000000
4A3FE100000000000000
0AEC4000000000000000
ENDCHAR
STARTCHAR f_l_x
ENCODING -1
SWIDTH 912 0
DWIDTH 15 0
BBX 20 16 -4 -4
BITMAP
0000005DED9400000000
000003FE21EF60000000
000009FB02FF30000000
00000CF805FE00005C10
00001FFFC8FC0DF57F50
00004FF20BF80BF80B20
00007FE00EF508FB4900
0000AFB03FF205FEB100
0000DF806FE003FF2000
0001FF408FB009FF5081
0004FF109FE9D6AFDA90
0008FD003DEA303DE800
04ADFA00000000000000
2C0DF600000000000000
4A3FE100000000000000
0AEC4000000000000000
ENDCHAR
STARTCHAR f_l_z
ENCODING -1
SWIDTH 938 0
DWIDTH 15 0
BBX 19 16 -4 -4
BITMAP
0000005DED9400000000
000003FE21EF60000000
000009FB02FF30000000
00000CF805FF00000000
00001FFFC8FC05EEFFB0
00004FF20BF90D92EF30
00007FE00EF6042AF900
0000AFB03FF2004FE100
0000DF806FE000CF7000
0001FF408FB006FD1300
0004FF108FD41EF52F40
0008FD003DE68FFFE900
04ADFA00000000000000
2C0DF600000000000000
4A3FE100000000000000
0AEC4000000000000000
ENDCHAR
STARTCHAR f_t
ENCODING -1
SWIDTH 548 0
DWIDTH 9 0
BBX 14 16 -4 -4
BITMAP
0000005DED9400
000003FE21EF60
000009FB02FF30
00000CF805FF00
00001FFFEFFFB0
00004FF20AF900
00007FE00EF600
0000AFB02FF300
0000DF805FE000
0001FF408FB063
0004FF109FD8B0
0008FD003DE910
04ADFA00000000
2C0DF600000000
4A3FE100000000
0AEC4000000000
ENDCHAR
STARTCHAR f_u
ENCODING -1
SWIDTH 772 0
DWIDTH 12 0
BBX 17 16 -4 -4
BITMAP
0000005DE800000000
000003FE2A20000000
000008FA0100000000
00000CF70000000000
00001FFFEFF80CF800
00003FF20EF50FF400
00007FE02FF23FF100
0000AFB05FE07FD000
0000DF709FB0AFA000
0001FF40CF80EF7090
0004FF10CFCBEFBA60
0008FC005ED65ED600
04ADF9000000000000
2C0DF5000000000000
4A3FE1000000000000
0AEC40000000000000
ENDCHAR
STARTCHAR f_x
ENCODING -1
SWIDTH 663 0
DWIDTH 11 0
BBX 16 16 -4 -4
BITMAP
0000005DE8000000
000003FE2B200000
000008FA02000000
00000CF700005C10
00001FFFEFF56F50
00003FF20BF80A30
00007FE009FA3B00
0000AFB006FEC100
0000DF7006FF2000
0001FF4079FF3031
0004FF16E3BF8190
0008FC06E34DE910
044DF90000000000
2A0FF50000000000
495FE10000000000
0AEC400000000000
ENDCHAR
ENDFONT
